<svg width="441" height="426" xmlns="http://www.w3.org/2000/svg" xmlns:xlink="http://www.w3.org/1999/xlink" xml:space="preserve" overflow="hidden"><defs><clipPath id="clip0"><rect x="0" y="0" width="441" height="426"/></clipPath><clipPath id="clip1"><rect x="0" y="0" width="441" height="426"/></clipPath></defs><g clip-path="url(#clip0)"><g clip-path="url(#clip1)"><path d="M33.3696 177.242C32.9099 176.812 32.59 176.362 32.4002 175.903 32.2103 175.443 32.1503 174.963 32.2203 174.474 32.3502 173.624 32.7599 172.965 33.4495 172.515 34.1391 172.065 35.2084 171.935 36.6576 172.135L41.7744 172.855C43.2235 173.054 44.2229 173.474 44.7626 174.104 45.3023 174.733 45.5021 175.473 45.3722 176.322 45.2523 177.102 44.9325 177.692 44.4128 178.101 43.8931 178.511 42.9937 178.741 41.7245 178.801 40.885 178.821 40.2054 178.991 39.6957 179.331 38.6963 179.98 37.8268 180.97 37.0873 182.289 36.3477 183.608 35.878 184.967 35.6582 186.366 35.3983 188.105 35.5482 189.764 36.1079 191.333 36.6775 192.902 37.7569 194.371 39.3559 195.731 40.9549 197.1 42.9737 197.949 45.4022 198.289L49.3198 198.839C52.228 199.248 54.7965 198.569 57.0451 196.8 59.2937 195.041 60.6928 192.343 61.2325 188.725 61.5623 186.566 61.5323 184.697 61.1426 183.108 60.9227 182.189 60.363 181.16 59.4736 180.03 58.9339 179.341 58.6041 178.801 58.4642 178.441 58.3343 178.071 58.2943 177.672 58.3643 177.242 58.4842 176.462 58.8839 175.823 59.5835 175.323 60.2831 174.823 61.0426 174.624 61.8621 174.743 62.6816 174.863 63.5111 175.383 64.3306 176.312 65.5299 177.662 66.3894 179.301 66.899 181.229 67.5886 183.818 67.7185 186.596 67.2688 189.544 66.7491 192.992 65.5499 195.99 63.661 198.559 62.1519 200.628 60.0033 202.277 57.225 203.486 54.4467 204.705 51.5584 205.095 48.5603 204.675L44.4728 204.105C41.3347 203.666 38.5064 202.546 36.008 200.758 33.4995 198.969 31.7006 196.72 30.6113 194.012 29.5119 191.303 29.1821 188.555 29.6019 185.747 29.8517 184.058 30.2915 182.509 30.9211 181.1 31.5407 179.69 32.3602 178.401 33.3796 177.252Z" fill="#1D1D1B" fill-rule="nonzero" fill-opacity="1"/><path d="M48.2405 145.261 70.197 154.246 75.3239 142.563 70.0071 140.384C68.658 139.835 67.8085 139.185 67.4487 138.446 67.0989 137.706 67.0989 136.937 67.4487 136.127 67.7985 135.338 68.3681 134.808 69.1677 134.538 69.9672 134.268 71.0365 134.418 72.3857 134.968L83.309 139.435 72.0359 165.099C71.4662 166.409 70.7967 167.228 70.0271 167.568 69.2576 167.908 68.4581 167.908 67.6186 167.568 66.7991 167.228 66.2494 166.678 65.9696 165.909 65.6898 165.139 65.8397 164.11 66.4093 162.801L67.7885 159.653 45.8319 150.668 44.4528 153.816C43.8831 155.125 43.2135 155.945 42.444 156.285 41.6845 156.625 40.875 156.625 40.0355 156.285 39.196 155.945 38.6363 155.385 38.3565 154.616 38.0767 153.846 38.2266 152.807 38.7962 151.508L43.9731 139.785C44.5427 138.476 45.2123 137.656 45.9619 137.306 46.7214 136.957 47.5109 136.957 48.3504 137.306 49.1899 137.646 49.7495 138.206 50.0294 138.975 50.3092 139.745 50.1593 140.774 49.5896 142.083L48.2005 145.251Z" fill="#1D1D1B" fill-rule="nonzero" fill-opacity="1"/><path d="M74.2346 102.128 93.2229 116.059 96.9506 111.332C97.8401 110.203 98.6996 109.563 99.5291 109.413 100.359 109.264 101.138 109.453 101.858 109.983 102.567 110.503 102.957 111.172 103.027 111.982 103.097 112.791 102.687 113.761 101.798 114.89L90.6545 129.041C89.765 130.171 88.9056 130.81 88.0761 130.96 87.2466 131.11 86.4771 130.92 85.7475 130.391 85.0379 129.871 84.6482 129.201 84.5782 128.392 84.5083 127.582 84.918 126.613 85.8075 125.484L89.5352 120.756 70.5468 106.825 66.8191 111.552C65.9296 112.681 65.0702 113.321 64.2407 113.471 63.4112 113.621 62.6317 113.431 61.9121 112.891 61.1825 112.362 60.7828 111.692 60.7128 110.873 60.6429 110.063 61.0526 109.094 61.9421 107.964L73.1052 93.833C73.9947 92.7037 74.8442 92.064 75.6637 91.9041 76.4832 91.7442 77.2527 91.9341 77.9823 92.4738 78.7118 93.0035 79.1116 93.6731 79.1815 94.4926 79.2515 95.3121 78.8417 96.2715 77.9523 97.4008L74.2246 102.128Z" fill="#1D1D1B" fill-rule="nonzero" fill-opacity="1"/><path d="M110.163 86.8073 115.759 93.5231 120.626 89.7455C121.765 88.856 122.765 88.4363 123.604 88.4862 124.444 88.5362 125.153 88.896 125.723 89.5856 126.283 90.2551 126.493 90.9947 126.363 91.7942 126.233 92.5937 125.593 93.4432 124.444 94.3327L114.08 102.378C112.941 103.267 111.941 103.687 111.102 103.637 110.262 103.587 109.553 103.227 108.983 102.538 108.424 101.868 108.214 101.128 108.354 100.319 108.494 99.5095 109.123 98.67 110.253 97.7905L110.992 97.2109 96.0412 79.2719 95.3017 79.8515C94.1624 80.741 93.163 81.1607 92.3235 81.1107 91.484 81.0608 90.7744 80.701 90.2048 80.0114 89.6351 79.3218 89.4153 78.5823 89.5452 77.7828 89.6751 76.9833 90.3147 76.1338 91.464 75.2443L113.85 57.905 119.687 64.9107C120.596 66 121.026 66.9494 120.976 67.7589 120.926 68.5684 120.546 69.248 119.837 69.8077 119.137 70.3473 118.378 70.5572 117.558 70.4373 116.729 70.3174 115.859 69.7077 114.94 68.5984L112.931 66.1799 100.808 75.5941 106.345 82.2401 110.512 79.002C109.523 77.8128 108.993 76.9533 108.943 76.4236 108.813 75.3243 109.193 74.4248 110.073 73.7453 110.772 73.2056 111.532 72.9957 112.361 73.1256 113.191 73.2556 114.07 73.8652 114.99 74.9745L119.387 80.2513C120.306 81.3506 120.746 82.31 120.696 83.1195 120.646 83.929 120.266 84.6086 119.557 85.1683 118.687 85.8379 117.718 85.9978 116.629 85.638 116.109 85.4781 115.349 84.7885 114.34 83.5792L110.173 86.8173Z" fill="#1D1D1B" fill-rule="nonzero" fill-opacity="1"/><path d="M147.02 63.8313 150.658 71.6965 156.354 69.238C157.693 68.6584 158.763 68.4985 159.562 68.7483 160.362 68.9982 160.951 69.5278 161.321 70.3373 161.681 71.1269 161.701 71.8864 161.361 72.6359 161.021 73.3755 160.182 74.0451 158.843 74.6147L146.7 79.8515C145.361 80.4312 144.292 80.5911 143.492 80.3412 142.693 80.0914 142.103 79.5617 141.733 78.7522 141.373 77.9627 141.363 77.2031 141.713 76.4536 142.063 75.7041 142.893 75.0445 144.222 74.4748L145.091 74.095 135.367 53.0679 134.498 53.4477C133.158 54.0273 132.089 54.1872 131.29 53.9374 130.49 53.6875 129.9 53.1579 129.531 52.3484 129.161 51.5489 129.141 50.7693 129.481 50.0298 129.821 49.2902 130.66 48.6306 131.999 48.051L158.213 36.7779 162.011 44.9829C162.6 46.2621 162.77 47.2815 162.501 48.051 162.241 48.8205 161.691 49.3902 160.862 49.75 160.042 50.0997 159.253 50.1197 158.493 49.7999 157.723 49.4801 157.044 48.6706 156.444 47.3814L155.135 44.5531 140.934 50.6794 144.532 58.4646 149.419 56.3559C148.769 54.9568 148.489 53.9974 148.579 53.4777 148.739 52.3783 149.339 51.6088 150.378 51.1591 151.197 50.8093 151.987 50.7993 152.756 51.1291 153.526 51.4589 154.216 52.2684 154.805 53.5576L157.663 59.7438C158.263 61.033 158.433 62.0724 158.173 62.8419 157.913 63.6115 157.364 64.1811 156.534 64.5409 155.525 64.9806 154.535 64.8907 153.576 64.2711 153.116 63.9912 152.567 63.1318 151.907 61.7226L147.02 63.8313Z" fill="#1D1D1B" fill-rule="nonzero" fill-opacity="1"/><path d="M225.222 56.136 227.711 33.2401 226.761 33.1401C225.302 32.9902 224.293 32.6204 223.733 32.0108 223.173 31.4012 222.934 30.6616 223.033 29.7922 223.123 28.9127 223.513 28.2431 224.193 27.7634 224.872 27.2837 225.942 27.1138 227.401 27.2637L242.601 28.8028C246.229 29.1725 249.038 30.4418 251.036 32.6104 253.035 34.7891 253.885 37.2176 253.595 39.896 253.455 41.1752 253.065 42.3445 252.435 43.4138 251.796 44.4832 250.906 45.4426 249.757 46.2921 251.546 47.5913 252.845 49.0204 253.645 50.5994 254.434 52.1685 254.734 53.8874 254.534 55.7563 254.374 57.2454 253.875 58.5845 253.045 59.7938 252.425 60.7132 251.716 61.4228 250.906 61.9125 249.817 62.6121 248.508 63.1418 246.999 63.4915 245.49 63.8513 243.631 63.9113 241.442 63.6914L223.633 61.8925C222.174 61.7426 221.165 61.3728 220.605 60.7632 220.045 60.1536 219.805 59.414 219.905 58.5446 219.995 57.6851 220.385 57.0255 221.085 56.5458 221.774 56.0661 222.844 55.8962 224.283 56.0461L225.232 56.146ZM231.288 56.7457 241.762 57.805C244.23 58.0549 245.999 57.875 247.079 57.2753 247.908 56.8256 248.368 56.0961 248.478 55.1067 248.608 53.9274 247.968 52.6882 246.579 51.3889 245.18 50.0897 243.071 49.3002 240.223 49.0104L232.208 48.2009 231.278 56.7357ZM232.847 42.3545 239.503 43.0241C241.892 43.2639 243.931 42.8842 245.64 41.8848 246.789 41.2152 247.429 40.2957 247.558 39.1364 247.668 38.1071 247.269 37.1577 246.339 36.2882 245.41 35.4187 243.861 34.8691 241.672 34.6492L233.777 33.8497 232.857 42.3545Z" fill="#1D1D1B" fill-rule="nonzero" fill-opacity="1"/><path d="M287.364 66.2998 273.553 61.133 270.824 63.9613 272.213 64.4809C273.583 64.9906 274.452 65.6102 274.832 66.3398 275.212 67.0694 275.232 67.8389 274.902 68.6584 274.582 69.4579 274.022 70.0075 273.243 70.2974 272.453 70.5872 271.374 70.4773 270.005 69.9676L262.349 67.0993C260.98 66.5896 260.111 65.97 259.731 65.2405 259.351 64.5109 259.331 63.7414 259.661 62.9219 259.991 62.1024 260.56 61.5427 261.38 61.2529 262.199 60.9631 263.299 61.103 264.688 61.6627L282.237 43.5338 278.52 42.1446C277.15 41.6349 276.281 41.0153 275.901 40.2857 275.521 39.5562 275.501 38.7867 275.831 37.9672 276.161 37.1477 276.721 36.588 277.5 36.2982 278.29 36.0084 279.359 36.1183 280.728 36.628L293.001 41.2552 293.49 72.4461C294.82 72.9457 295.639 73.4155 295.949 73.8552 296.558 74.7646 296.678 75.6941 296.289 76.6635 295.969 77.463 295.419 78.0126 294.64 78.3125 293.86 78.6023 292.791 78.5023 291.422 77.9827L283.766 75.1144C282.397 74.6047 281.528 73.9851 281.148 73.2556 280.768 72.526 280.748 71.7565 281.078 70.937 281.398 70.1375 281.957 69.5878 282.737 69.298 283.526 69.0082 284.596 69.1181 285.965 69.6278L287.354 70.1475 287.354 66.2898ZM287.194 59.9337 286.984 47.3514 278.02 56.4958 287.194 59.9337Z" fill="#1D1D1B" fill-rule="nonzero" fill-opacity="1"/><path d="M316.766 77.8627 312.179 83.7991 313.948 85.0683C315.127 85.9178 315.787 86.7373 315.957 87.5368 316.116 88.3363 315.927 89.0859 315.387 89.7954 314.857 90.485 314.168 90.8748 313.328 90.9447 312.489 91.0247 311.479 90.6349 310.31 89.7954L302.895 84.4587C301.715 83.6092 301.046 82.7897 300.886 81.9902 300.726 81.1907 300.916 80.4412 301.455 79.7316 301.985 79.042 302.675 78.6623 303.524 78.5923 304.374 78.5223 305.373 78.9021 306.532 79.7416L307.292 80.2913 321.543 61.8226 320.784 61.2729C319.604 60.4234 318.935 59.6039 318.775 58.8044 318.605 58.0049 318.805 57.2554 319.345 56.5458 319.894 55.8362 320.584 55.4465 321.423 55.3665 322.263 55.2866 323.262 55.6763 324.441 56.5158L335.495 64.5009C338.942 66.9794 340.981 69.7277 341.611 72.7459 342.24 75.764 341.641 78.4524 339.812 80.8109 338.673 82.29 337.204 83.2994 335.375 83.8691 333.556 84.4387 331.387 84.5387 328.869 84.1789 329.228 85.7979 329.468 87.7067 329.588 89.9254 329.648 91.3245 329.578 93.4032 329.388 96.1515 330.628 97.041 331.347 97.7506 331.557 98.2902 331.907 99.2796 331.747 100.209 331.087 101.069 330.548 101.758 329.868 102.148 329.039 102.228 328.209 102.308 327.21 101.928 326.03 101.079L323.242 99.0698C323.842 90.3151 323.302 84.3987 321.623 81.3306L316.776 77.8527ZM320.404 73.1456 324.222 75.8939C325.641 76.9133 327.06 77.6129 328.489 78.0027 330.408 78.5223 331.867 78.6623 332.856 78.4224 333.846 78.1825 334.575 77.7628 335.035 77.1632 335.724 76.2737 335.864 75.0944 335.465 73.6253 335.065 72.1562 333.926 70.7371 332.027 69.3779L326.42 65.3504 320.394 73.1556Z" fill="#1D1D1B" fill-rule="nonzero" fill-opacity="1"/><path d="M358.251 100.109 343.71 111.052 345.059 112.731C345.958 113.851 346.378 114.81 346.318 115.62 346.258 116.429 345.868 117.109 345.149 117.648 344.449 118.178 343.68 118.378 342.85 118.228 342.021 118.088 341.151 117.458 340.252 116.339L335.335 110.253C334.435 109.134 334.016 108.174 334.075 107.365 334.135 106.555 334.525 105.876 335.245 105.336 335.934 104.816 336.694 104.626 337.523 104.746 338.353 104.876 339.162 105.426 339.962 106.405L358.77 92.2439 358.191 91.5244C357.291 90.4051 356.872 89.4456 356.931 88.6361 356.991 87.8266 357.381 87.1471 358.101 86.6074 358.82 86.0677 359.59 85.8678 360.419 86.0078 361.249 86.1477 362.118 86.7773 363.018 87.8966L367.325 93.2833 357.631 119.657 372.102 108.764 370.753 107.085C369.854 105.966 369.434 105.006 369.494 104.197 369.554 103.387 369.944 102.708 370.663 102.168 371.383 101.628 372.152 101.428 372.992 101.568 373.821 101.708 374.691 102.338 375.59 103.457L380.487 109.563C381.387 110.683 381.816 111.642 381.756 112.452 381.696 113.261 381.317 113.931 380.597 114.47 379.897 115 379.128 115.2 378.298 115.07 377.469 114.94 376.659 114.4 375.88 113.431L352.264 131.21 348.547 126.613 358.261 100.119Z" fill="#1D1D1B" fill-rule="nonzero" fill-opacity="1"/><path d="M375.82 143.503 367.565 146.85 373.591 160.692 376.639 159.453C377.989 158.903 379.068 158.763 379.857 159.033 380.647 159.303 381.227 159.843 381.576 160.652 381.916 161.442 381.916 162.211 381.556 162.951 381.197 163.69 380.347 164.33 378.988 164.879L370.323 168.397 359.2 142.853C358.63 141.544 358.491 140.514 358.76 139.745 359.04 138.975 359.6 138.426 360.439 138.086 361.259 137.756 362.058 137.766 362.818 138.116 363.587 138.466 364.247 139.285 364.807 140.574L365.176 141.424 387.163 132.499 386.793 131.65C386.224 130.341 386.084 129.311 386.353 128.542 386.633 127.772 387.193 127.223 388.032 126.883 388.872 126.543 389.671 126.543 390.441 126.883 391.201 127.223 391.87 128.052 392.44 129.361L403.013 153.726 394.459 157.194C393.129 157.734 392.06 157.874 391.27 157.614 390.481 157.354 389.911 156.814 389.552 156.005 389.202 155.195 389.202 154.416 389.552 153.686 389.901 152.957 390.751 152.317 392.1 151.767L395.038 150.578 389.532 137.926 381.416 141.214 383.485 145.981C384.944 145.391 385.944 145.142 386.483 145.231 387.623 145.411 388.402 146.011 388.842 147.02 389.182 147.82 389.182 148.579 388.822 149.319 388.462 150.059 387.613 150.698 386.254 151.248L379.787 153.876C378.558 154.376 377.679 154.566 377.139 154.456 376.03 154.236 375.27 153.656 374.861 152.707 374.421 151.698 374.531 150.748 375.19 149.829 375.49 149.389 376.39 148.879 377.869 148.27L375.8 143.503Z" fill="#1D1D1B" fill-rule="nonzero" fill-opacity="1"/><path d="M375.16 182.669C374.461 182.249 373.991 181.889 373.771 181.599 373.551 181.309 373.401 180.94 373.331 180.48 373.202 179.59 373.401 178.831 373.941 178.211 374.481 177.582 375.46 177.172 376.899 176.972L380.957 176.412C382.406 176.213 383.485 176.342 384.185 176.792 384.884 177.242 385.304 177.921 385.434 178.811 385.534 179.491 385.434 180.09 385.134 180.61 384.834 181.13 384.255 181.569 383.425 181.939 382.586 182.309 382.036 182.649 381.756 182.958 381.227 183.588 380.757 184.647 380.337 186.146 379.917 187.636 379.827 189.215 380.077 190.884 380.457 193.482 381.407 195.521 382.916 197.02 383.835 197.979 384.854 198.379 385.984 198.219 386.733 198.119 387.393 197.759 387.972 197.16 388.552 196.56 388.972 195.651 389.232 194.431 389.412 193.632 389.561 191.883 389.681 189.175 389.821 185.907 390.191 183.398 390.821 181.649 391.44 179.9 392.47 178.441 393.899 177.282 395.328 176.123 396.957 175.403 398.776 175.153 401.664 174.753 404.362 175.573 406.871 177.602 409.389 179.63 410.918 182.509 411.478 186.246 411.698 187.745 411.738 189.155 411.578 190.484 411.428 191.813 411.068 193.042 410.519 194.182 411.398 194.831 411.898 195.541 412.008 196.3 412.138 197.15 411.928 197.889 411.388 198.519 410.848 199.148 409.859 199.558 408.43 199.758L403.893 200.388C402.444 200.588 401.364 200.458 400.665 200.008 399.965 199.548 399.555 198.899 399.425 198.049 399.316 197.33 399.455 196.67 399.825 196.08 400.095 195.621 400.715 195.211 401.684 194.861 402.653 194.511 403.333 194.152 403.713 193.772 404.372 193.122 404.882 192.213 405.232 191.033 405.582 189.864 405.642 188.555 405.432 187.116 405.122 185.017 404.372 183.418 403.173 182.339 401.984 181.259 400.835 180.79 399.735 180.94 398.986 181.04 398.306 181.389 397.687 181.989 397.067 182.589 396.627 183.398 396.377 184.417 396.197 185.097 396.028 186.976 395.868 190.044 395.698 193.112 395.378 195.501 394.888 197.2 394.399 198.899 393.459 200.388 392.07 201.667 390.681 202.946 388.912 203.726 386.773 204.025 383.795 204.435 381.257 203.756 379.168 201.977 376.41 199.608 374.721 196.35 374.101 192.183 373.861 190.574 373.831 188.975 374.001 187.396 374.181 185.817 374.561 184.248 375.15 182.699Z" fill="#1D1D1B" fill-rule="nonzero" fill-opacity="1"/><path d="M64.1208 310.9 83.2091 297.099 82.6394 296.359C81.7599 295.23 81.3602 294.25 81.4401 293.441 81.5201 292.631 81.9198 291.962 82.6494 291.432 83.379 290.902 84.1585 290.712 84.988 290.872 85.8175 291.032 86.6669 291.672 87.5464 292.811L96.7108 304.624C98.8995 307.442 99.8389 310.3 99.5491 313.189 99.2592 316.077 97.99 318.336 95.7514 319.955 94.692 320.724 93.5327 321.244 92.2935 321.524 91.0443 321.803 89.7151 321.823 88.2859 321.584 88.5158 323.732 88.3059 325.631 87.6563 327.26 87.0067 328.889 85.8974 330.268 84.3484 331.398 83.1091 332.297 81.75 332.857 80.2709 333.086 79.1515 333.276 78.1322 333.246 77.2027 333.007 75.9335 332.707 74.6443 332.147 73.3451 331.318 72.0459 330.488 70.7367 329.219 69.4175 327.52L58.6841 313.688C57.8046 312.559 57.4049 311.58 57.4848 310.77 57.5648 309.961 57.9645 309.291 58.6941 308.761 59.4036 308.242 60.1832 308.072 61.0126 308.232 61.8421 308.392 62.6916 309.031 63.5611 310.151L64.1307 310.89ZM67.7785 315.607 74.0946 323.742C75.5837 325.661 76.9229 326.79 78.1122 327.15 79.0216 327.43 79.8911 327.27 80.7106 326.67 81.69 325.961 82.1997 324.672 82.2397 322.803 82.2796 320.934 81.4401 318.895 79.7312 316.697L74.9041 310.47 67.7885 315.617ZM79.7712 306.932 83.7787 312.099C85.2178 313.948 86.8968 315.147 88.8156 315.667 90.1048 316.027 91.2341 315.857 92.2036 315.147 93.063 314.528 93.5127 313.598 93.5427 312.349 93.5827 311.1 92.9431 309.631 91.6139 307.932L86.8568 301.796 79.7612 306.923Z" fill="#1D1D1B" fill-rule="nonzero" fill-opacity="1"/><path d="M104.726 344.02 99.9488 349.816 101.668 351.135C102.817 352.015 103.457 352.854 103.597 353.664 103.736 354.463 103.517 355.213 102.947 355.902 102.387 356.572 101.698 356.942 100.858 356.992 100.019 357.042 99.0194 356.632 97.8701 355.743L90.6345 350.186C89.4852 349.307 88.8456 348.467 88.7057 347.658 88.5658 346.858 88.7856 346.109 89.3553 345.419 89.915 344.739 90.6145 344.38 91.464 344.34 92.3135 344.29 93.3029 344.709 94.4322 345.579L95.1817 346.148 110.023 328.13 109.273 327.56C108.124 326.68 107.484 325.841 107.344 325.031 107.204 324.222 107.424 323.482 107.994 322.793 108.564 322.103 109.263 321.733 110.103 321.683 110.942 321.634 111.941 322.043 113.091 322.933L123.874 331.248C127.242 333.836 129.191 336.644 129.721 339.672 130.25 342.711 129.561 345.379 127.662 347.688 126.473 349.127 124.963 350.096 123.125 350.606 121.286 351.115 119.117 351.155 116.609 350.726 116.918 352.355 117.088 354.273 117.138 356.492 117.148 357.891 117.008 359.97 116.729 362.708 117.938 363.638 118.637 364.367 118.827 364.907 119.147 365.906 118.957 366.826 118.268 367.665 117.708 368.345 117.018 368.705 116.189 368.765 115.359 368.825 114.37 368.415 113.221 367.525L110.492 365.437C111.382 356.702 111.032 350.776 109.443 347.658L104.716 344.03ZM108.524 339.413 112.251 342.271C113.63 343.33 115.03 344.08 116.449 344.499 118.348 345.079 119.807 345.269 120.796 345.049 121.795 344.839 122.535 344.44 123.015 343.85 123.734 342.98 123.914 341.801 123.564 340.322 123.215 338.843 122.115 337.394 120.266 335.975L114.8 331.777 108.524 339.393Z" fill="#1D1D1B" fill-rule="nonzero" fill-opacity="1"/><path d="M157.274 378.209 143.602 372.702 140.804 375.461 142.173 376.01C143.522 376.56 144.382 377.199 144.741 377.929 145.101 378.659 145.101 379.438 144.751 380.248 144.412 381.047 143.842 381.577 143.042 381.847 142.253 382.116 141.174 381.987 139.824 381.437L132.249 378.389C130.89 377.839 130.04 377.199 129.681 376.47 129.321 375.74 129.321 374.961 129.671 374.151 130.02 373.342 130.61 372.802 131.44 372.532 132.269 372.262 133.368 372.422 134.738 373.022L152.756 355.333 149.079 353.854C147.72 353.304 146.87 352.664 146.51 351.935 146.151 351.195 146.151 350.426 146.5 349.616 146.85 348.807 147.42 348.257 148.219 347.987 149.009 347.718 150.088 347.857 151.437 348.397L163.58 353.324 163.25 384.515C164.569 385.045 165.379 385.534 165.679 385.994 166.268 386.914 166.358 387.853 165.948 388.812 165.609 389.602 165.039 390.142 164.259 390.411 163.47 390.681 162.401 390.551 161.051 390.012L153.476 386.964C152.117 386.414 151.267 385.774 150.908 385.045 150.548 384.315 150.548 383.536 150.898 382.726 151.237 381.927 151.807 381.397 152.607 381.127 153.396 380.857 154.475 380.987 155.825 381.537L157.194 382.086 157.284 378.229ZM157.284 371.833 157.404 359.25 148.199 368.175 157.284 371.833ZM158.463 342.411C158.113 343.22 157.524 343.79 156.714 344.12 155.895 344.44 155.075 344.44 154.256 344.11 153.436 343.78 152.846 343.21 152.507 342.411 152.167 341.611 152.167 340.812 152.507 340.012 152.846 339.213 153.436 338.663 154.256 338.343 155.085 338.023 155.905 338.023 156.734 338.363 157.554 338.693 158.133 339.253 158.473 340.042 158.813 340.832 158.803 341.621 158.463 342.421ZM170.206 347.138C169.856 347.947 169.266 348.517 168.437 348.837 167.607 349.157 166.788 349.147 165.958 348.817 165.139 348.487 164.559 347.917 164.229 347.128 163.9 346.328 163.9 345.529 164.249 344.739 164.589 343.94 165.169 343.38 165.988 343.06 166.808 342.731 167.627 342.741 168.447 343.07 169.266 343.4 169.856 343.96 170.196 344.759 170.536 345.549 170.546 346.348 170.196 347.138Z" fill="#1D1D1B" fill-rule="nonzero" fill-opacity="1"/><path d="M192.112 372.572 189.844 390.242 192.032 390.501C193.492 390.671 194.491 391.071 195.041 391.691 195.59 392.31 195.81 393.05 195.7 393.919 195.59 394.779 195.191 395.438 194.501 395.898 193.811 396.358 192.742 396.508 191.283 396.338L183.348 395.388C181.889 395.218 180.889 394.819 180.34 394.209 179.79 393.599 179.57 392.85 179.68 391.97 179.79 391.131 180.18 390.481 180.859 390.002 181.539 389.522 182.518 389.362 183.797 389.512L186.736 366.666 185.796 366.556C184.337 366.386 183.338 365.986 182.788 365.367 182.238 364.747 182.019 364.008 182.129 363.138 182.238 362.269 182.638 361.589 183.328 361.129 184.017 360.66 185.087 360.52 186.546 360.69L193.542 361.559 206.004 386.834 208.262 369.254 206.074 368.995C204.615 368.825 203.615 368.425 203.066 367.805 202.516 367.186 202.296 366.446 202.406 365.567 202.516 364.697 202.916 364.018 203.605 363.558 204.295 363.088 205.364 362.948 206.823 363.118L214.759 364.098C216.218 364.267 217.217 364.667 217.767 365.267 218.316 365.876 218.536 366.616 218.426 367.485 218.316 368.345 217.917 369.005 217.237 369.484 216.557 369.964 215.588 370.124 214.329 369.974L210.651 398.666 204.655 397.947 192.122 372.582Z" fill="#1D1D1B" fill-rule="nonzero" fill-opacity="1"/><path d="M236.915 374.121 239.523 391.741 241.702 391.441C243.151 391.241 244.23 391.371 244.93 391.821 245.63 392.28 246.039 392.94 246.169 393.809 246.299 394.659 246.089 395.398 245.55 396.028 245.01 396.658 244.021 397.067 242.562 397.267L234.646 398.367C233.197 398.566 232.118 398.436 231.418 397.987 230.719 397.537 230.309 396.867 230.179 395.998 230.059 395.168 230.259 394.429 230.789 393.799 231.318 393.17 232.218 392.76 233.487 392.59L230.109 369.794 229.17 369.924C227.721 370.124 226.641 369.994 225.942 369.544 225.242 369.094 224.832 368.425 224.702 367.555 224.573 366.686 224.772 365.936 225.312 365.307 225.852 364.677 226.841 364.267 228.3 364.068L235.286 363.128 254.174 384.355 251.576 366.816 249.397 367.116C247.948 367.316 246.869 367.186 246.169 366.736 245.47 366.286 245.06 365.617 244.93 364.747 244.8 363.878 245 363.128 245.54 362.498 246.079 361.879 247.069 361.459 248.528 361.259L256.453 360.19C257.902 359.99 258.981 360.11 259.681 360.56 260.381 361.009 260.79 361.659 260.92 362.538 261.05 363.388 260.85 364.137 260.321 364.767 259.791 365.397 258.901 365.806 257.642 365.976L261.89 394.599 255.913 395.428 236.925 374.121Z" fill="#1D1D1B" fill-rule="nonzero" fill-opacity="1"/><path d="M284.956 372.302 288.503 380.228 302.785 374.271 301.475 371.343C300.896 370.044 300.736 369.005 301.006 368.235 301.276 367.465 301.825 366.906 302.665 366.556 303.484 366.216 304.274 366.216 305.043 366.556 305.813 366.896 306.482 367.715 307.062 369.014L310.79 377.339 284.446 388.333C283.097 388.892 282.027 389.042 281.228 388.782 280.428 388.523 279.849 387.983 279.489 387.183 279.139 386.394 279.139 385.624 279.489 384.885 279.849 384.145 280.688 383.496 282.017 382.936L282.887 382.576 273.423 361.439 272.553 361.799C271.204 362.359 270.135 362.508 269.335 362.249 268.536 361.989 267.956 361.449 267.596 360.65 267.236 359.84 267.226 359.071 267.576 358.331 267.926 357.591 268.775 356.942 270.115 356.382L295.239 345.929 298.927 354.154C299.497 355.433 299.657 356.462 299.397 357.222 299.137 357.991 298.587 358.541 297.748 358.891 296.908 359.24 296.109 359.25 295.349 358.921 294.59 358.591 293.92 357.781 293.33 356.482L292.071 353.664 279.019 359.111 282.507 366.906 287.424 364.857C286.794 363.448 286.525 362.488 286.615 361.969 286.794 360.869 287.404 360.11 288.433 359.67 289.253 359.33 290.042 359.33 290.812 359.67 291.582 360.01 292.251 360.83 292.831 362.129L295.619 368.345C296.149 369.524 296.359 370.374 296.239 370.893 296.029 371.963 295.429 372.702 294.45 373.112 293.41 373.542 292.421 373.452 291.472 372.822 291.022 372.532 290.472 371.673 289.833 370.254L284.916 372.302Z" fill="#1D1D1B" fill-rule="nonzero" fill-opacity="1"/><path d="M325.681 352.115 330.428 357.941 332.157 356.632C333.306 355.753 334.305 355.343 335.145 355.403 335.984 355.463 336.684 355.833 337.254 356.522 337.803 357.202 338.013 357.941 337.863 358.741 337.723 359.54 337.074 360.38 335.924 361.259L328.659 366.776C327.509 367.655 326.51 368.065 325.671 368.005 324.831 367.945 324.132 367.575 323.562 366.886 323.012 366.206 322.812 365.467 322.962 364.657 323.112 363.848 323.752 363.018 324.891 362.149L325.641 361.579 310.9 343.48 310.15 344.05C309.001 344.929 308.001 345.339 307.162 345.279 306.322 345.219 305.623 344.849 305.053 344.16 304.484 343.47 304.274 342.721 304.424 341.921 304.564 341.122 305.213 340.282 306.362 339.403L317.226 331.188C320.604 328.619 323.892 327.44 327.07 327.64 330.248 327.84 332.786 329.099 334.675 331.418 335.854 332.857 336.484 334.506 336.574 336.345 336.664 338.183 336.204 340.232 335.185 342.491 336.894 342.581 338.873 342.861 341.121 343.32 342.54 343.63 344.589 344.24 347.287 345.139 348.507 344.22 349.406 343.73 349.986 343.67 351.065 343.6 351.955 343.99 352.634 344.839 353.184 345.519 353.394 346.248 353.264 347.048 353.134 347.847 352.484 348.677 351.335 349.556L348.597 351.635C340.002 348.787 333.946 347.747 330.428 348.517L325.681 352.125ZM321.913 347.488 325.651 344.649C327.04 343.6 328.109 342.451 328.869 341.221 329.888 339.573 330.418 338.243 330.428 337.264 330.438 336.275 330.208 335.495 329.728 334.905 329.019 334.036 327.879 333.586 326.3 333.576 324.721 333.566 323.012 334.266 321.163 335.675L315.667 339.842 321.893 347.488Z" fill="#1D1D1B" fill-rule="nonzero" fill-opacity="1"/><path d="M351.625 305.074 370.633 318.985 374.351 314.248C375.24 313.119 376.09 312.479 376.919 312.329 377.749 312.179 378.518 312.369 379.248 312.899 379.957 313.419 380.357 314.088 380.427 314.898 380.497 315.707 380.097 316.677 379.208 317.806L368.085 331.967C367.195 333.096 366.336 333.736 365.516 333.886 364.687 334.036 363.917 333.846 363.188 333.316 362.478 332.797 362.088 332.127 362.008 331.318 361.938 330.508 362.338 329.539 363.228 328.409L366.945 323.672 347.937 309.761 344.219 314.498C343.33 315.627 342.47 316.267 341.651 316.417 340.821 316.567 340.042 316.377 339.322 315.847 338.593 315.317 338.193 314.648 338.123 313.838 338.053 313.029 338.453 312.059 339.342 310.93L350.485 296.779C351.375 295.649 352.224 295.01 353.044 294.85 353.863 294.69 354.633 294.88 355.362 295.41 356.092 295.939 356.492 296.609 356.562 297.418 356.632 298.228 356.232 299.197 355.342 300.327L351.625 305.064Z" fill="#1D1D1B" fill-rule="nonzero" fill-opacity="1"/><path d="M220.505 425.87C98.9194 425.87-1.71198e-15 330.378-1.71198e-15 213-1.71198e-15 95.6219 98.9194 0.130328 220.505 0.130328 342.091 0.130328 441.01 95.6219 441.01 213 441.01 330.378 342.091 425.87 220.505 425.87ZM220.505 6.42647C102.517 6.42647 6.526 99.0997 6.526 213 6.526 326.9 102.517 419.574 220.505 419.574 338.493 419.574 434.484 326.91 434.484 213 434.484 99.0897 338.493 6.42647 220.505 6.42647Z" fill="#1D1D1B" fill-rule="nonzero" fill-opacity="1"/><path d="M220.505 85.1483C147.48 85.1483 88.0761 142.503 88.0761 213 88.0761 283.497 147.48 340.852 220.505 340.852 293.53 340.852 352.934 283.497 352.934 213 352.934 142.503 293.53 85.1483 220.505 85.1483ZM254.824 326.98C252.585 328.859 250.497 330.438 248.068 331.577 239.194 333.496 229.979 334.546 220.515 334.546 213.14 334.546 205.914 333.896 198.878 332.717 196.42 331.817 194.011 330.728 191.803 329.319 188.814 327.31 186.176 324.792 184.137 321.903 182.948 320.304 181.879 318.595 180.48 317.116 179.09 315.487 177.381 314.118 175.942 312.559 173.904 310.29 171.885 307.852 169.706 305.643 168.087 303.844 166.768 302.105 165.399 300.327 161.951 296.299 158.343 292.261 155.075 288.104 152.137 284.516 149.169 280.769 146.63 276.871 145.071 274.512 143.942 272.074 142.633 269.555 141.493 267.317 140.434 265.108 139.415 262.859 137.896 259.302 136.247 255.584 135.397 251.816 134.777 248.568 134.368 245.28 134.468 241.952 134.558 239.574 135.017 237.385 135.357 235.086 135.717 232.548 135.817 229.88 136.536 227.401 137.926 222.574 140.634 218.227 143.922 214.379 146.051 211.681 148.559 209.272 151.307 207.174 153.456 205.475 155.655 203.936 158.163 202.756 159.143 202.287 160.142 201.877 161.171 201.507 161.851 201.117 168.047 199.788 166.308 198.759 164.209 197.909 161.031 198.369 158.933 198.929 156.644 199.688 154.555 200.248 154.056 197.34 153.706 194.861 154.256 192.303 154.156 189.814 154.136 186.956 153.546 184.188 152.776 181.419 152.007 178.591 150.658 175.953 149.848 173.144 149.139 170.466 149.209 167.598 149.648 164.879 150.188 162.151 151.028 159.523 151.727 156.814 152.317 154.496 153.136 152.327 153.776 150.049 154.615 146.95 155.445 143.862 156.594 140.884 157.953 137.066 158.513 133.709 163.37 133.179 165.878 132.869 168.477 132.599 170.925 132.14 172.674 131.8 174.393 131.48 176.232 131.31 178.751 131.05 181.289 130.87 183.718 130.131 186.316 129.351 188.944 128.422 191.443 127.372 193.591 126.423 195.6 125.214 197.599 123.994 198.568 123.415 199.658 122.735 200.177 121.896 200.597 121.296 200.907 120.756 201.397 120.137 202.256 118.998 203.855 118.038 205.204 117.359 206.514 116.639 207.863 115.939 209.172 115.27 211.251 114.121 213.219 112.841 215.188 111.522 217.507 109.923 219.666 107.924 221.784 106.035 224.543 103.497 227.161 100.999 230.099 98.73 232.378 96.8611 234.466 94.6525 236.505 92.4838 246.099 93.6631 255.364 95.8617 264.158 99.0098 264.118 99.6994 264.098 100.389 264.148 101.089 264.338 104.466 265.368 107.595 266.167 110.883 266.627 112.981 267.306 115.01 268.356 116.899 269.105 118.228 269.955 119.457 270.804 120.756 272.333 122.985 273.902 125.154 275.701 127.183 277.48 129.141 279.639 130.8 281.827 132.319 284.436 134.018 287.004 135.897 288.723 138.476 290.502 141.004 291.561 143.782 292.421 146.681 292.961 148.669 293.52 150.668 293.78 152.717 294.15 155.445 293.48 158.174 292.791 160.812 292.471 162.091 292.271 163.45 291.961 164.65 291.582 166.439 291.082 168.068 290.622 169.846 290.022 172.595 289.633 175.463 289.643 178.291 289.593 182.449 290.242 186.696 290.552 190.844 290.582 192.573 292.031 196.24 289.473 196.58 288.303 196.72 287.084 196.3 285.835 196.2 285.125 196.17 283.576 196.07 283.566 197.02 283.786 197.999 285.565 198.859 286.605 199.298 291.372 201.347 295.759 204.315 298.697 208.553 300.076 210.512 301.485 212.56 302.455 214.739 302.925 215.888 303.284 217.117 303.564 218.297L303.564 218.327C304.014 220.346 304.284 222.324 304.643 224.383 305.163 227.211 305.623 229.96 305.543 232.868 305.503 234.607 305.493 236.386 305.363 238.125 305.123 240.773 304.643 243.261 304.084 245.76 303.264 249.817 302.225 253.695 300.876 257.603 300.326 259.222 299.627 260.781 298.847 262.3 297.908 264.059 297.228 265.848 296.309 267.597 295.029 270.025 293.39 272.284 292.081 274.692 289.393 279.249 286.395 283.737 283.227 288.014 280.828 290.972 278.38 293.711 275.881 296.639 274.542 298.198 273.463 299.977 272.323 301.646 271.464 302.835 270.394 303.974 269.695 305.164 269.115 306.093 268.576 307.222 268.006 308.362 267.346 309.561 266.527 310.7 265.827 311.889 262.529 317.166 259.811 322.993 254.814 327.04ZM131.779 195.401C132.429 194.002 133.099 194.371 133.888 195.651 134.558 196.68 135.207 197.759 135.887 198.789 136.456 199.708 138.725 202.357 139.734 202.087 139.874 201.767 139.545 201.357 139.465 201.037 139.385 200.827 139.355 200.658 139.435 200.608 139.664 200.538 140.144 200.748 140.454 200.797 141.234 200.997 141.713 200.977 141.943 200.098 142.033 199.748 142.043 199.368 142.113 199.348 142.143 199.348 142.163 199.348 142.183 199.388 142.453 199.738 142.663 200.128 142.913 200.558L142.913 200.578C143.152 200.987 144.821 203.906 145.221 202.686 145.481 202.077 145.551 201.277 146.131 200.758 146.86 200.048 148.689 198.649 149.039 200.398 149.179 201.257 148.859 202.267 148.299 203.086 147.59 204.145 146.44 204.825 145.371 205.505 144.322 206.134 143.442 206.964 142.553 207.773 140.724 209.532 139.355 211.741 138.065 213.899 136.666 215.928 135.357 217.927 134.518 220.206 134.028 221.465 133.538 222.814 132.499 223.753 131.32 224.793 129.671 225.272 128.102 225.352 126.213 225.482 124.124 224.703 122.405 223.763 120.336 222.794 118.817 221.305 118.138 219.126 117.228 216.538 117.298 213.57 118.707 211.161 120.166 208.343 122.935 206.494 125.023 204.145 126.113 202.926 127.112 201.647 128.221 200.438 129.761 198.929 130.99 197.26 131.789 195.391ZM304.993 208.023C304.204 206.224 303.454 204.565 302.215 203.026 301.455 202.037 300.276 200.887 299.746 199.788 299.497 198.729 301.495 199.398 302.065 199.508 304.054 199.868 303.974 197.38 304.354 196 304.643 194.551 305.193 193.192 305.853 191.853 307.032 189.354 308.701 187.066 310.72 185.107 312.279 183.668 313.178 183.428 313.488 185.717 313.638 187.975 314.168 190.184 315.037 192.263 315.807 193.912 316.596 195.531 317.665 197.03L317.686 197.06C319.065 199.188 320.914 201.067 322.123 203.326 323.422 205.665 323.502 208.513 322.722 211.021 322.233 212.66 321.403 214.219 320.174 215.439 318.665 216.818 316.876 218.027 315.017 218.846 311.319 220.435 309.97 216.908 308.511 214.359 307.262 212.31 306.043 210.162 305.003 208.033ZM94.6021 213C94.6021 182.719 106.165 155.006 125.203 133.699 124.914 135.597 124.674 137.306 123.964 139.135 123.464 140.494 122.655 141.714 122.075 143.193 121.376 145.301 121.486 147.62 121.186 149.809 120.826 152.477 120.096 155.135 119.897 157.824 119.767 159.213 119.877 160.612 119.987 162.001 120.426 167.638 120.716 173.584 123.315 178.771 125.003 181.999 127.032 185.277 128.242 188.675 129.741 192.702 126.732 196.44 123.904 199.128 121.486 201.377 118.767 203.596 116.868 206.264 114.69 208.942 113.84 211.801 114.19 215.239 114.62 219.306 116.249 223.374 119.167 226.322 121.296 228.251 123.904 230.189 126.982 229.91 129.85 229.61 131.21 229.33 130.71 232.908 130.28 235.446 129.691 237.925 129.431 240.493 129.121 243.451 129.221 246.41 129.681 249.318 130.29 252.996 130.87 256.863 131.979 260.391 132.809 262.75 133.978 264.738 135.107 267.047 136.416 269.755 137.466 272.653 138.845 275.322 140.264 278.24 141.823 281.088 143.622 283.847 145.571 286.695 147.52 289.603 149.598 292.361 150.738 293.761 151.977 295.16 153.156 296.449 154.965 298.638 157.034 300.546 158.943 302.665 160.582 304.474 161.951 306.423 163.52 308.312 165.489 310.6 167.288 313.059 168.757 315.627 170.126 317.846 171.635 320.104 173.084 322.283 173.894 323.612 174.613 324.961 175.523 326.181 175.632 326.331 175.762 326.461 175.872 326.61 128.421 309.181 94.6021 264.828 94.6021 212.98ZM266.277 326.201C266.917 325.271 267.546 324.332 268.126 323.372 269.755 320.594 271.714 317.996 273.353 315.217 274.632 312.849 275.751 310.35 277.23 308.142 278.16 306.743 279.169 305.383 280.168 304.024 282.277 301.146 285.255 298.747 287.494 295.949 289.303 293.781 290.662 291.382 292.351 289.133 294.26 286.625 296.538 284.296 298.217 281.648 299.966 278.8 301.715 275.991 303.204 273.013 304.693 269.595 306.322 266.108 307.732 262.7 309.62 257.653 311.08 252.516 311.759 247.179 312.299 244.181 312.898 241.263 312.998 238.195 313.028 236.206 313.148 234.247 313.138 232.268 313.208 230.729 312.908 229.08 313.518 227.741 314.298 226.102 316.276 225.512 317.795 224.553 319.185 223.723 320.574 222.754 321.933 221.715 323.082 220.825 324.251 219.896 325.061 218.697 326.79 216.288 326.58 213.3 326.66 210.472 326.74 208.463 326.73 206.414 326.24 204.475 325.511 201.617 323.982 199.059 322.113 196.75 319.784 193.952 317.705 191.413 317.396 187.705 317.166 185.407 316.736 182.329 317.845 180.26 319.364 177.712 321.753 175.593 323.342 173.034 326.86 168.157 327.759 162.381 326.03 156.724 325.771 155.785 325.541 154.666 325.251 153.886 324.831 152.727 324.341 152.507 323.782 151.787 323.572 151.448 323.482 150.958 323.262 150.139 322.762 147.92 320.744 146.561 319.574 144.652 317.725 141.774 316.736 138.466 315.637 135.258 315.387 134.538 315.277 133.798 315.217 133.069 334.615 154.456 346.408 182.429 346.408 213.02 346.408 264.458 313.128 308.502 266.267 326.221Z" fill="#1D1D1B" fill-rule="nonzero" fill-opacity="1"/><path d="M173.744 229.52C175.503 229.28 177.291 229.16 178.97 228.56 180.48 228.021 181.729 227.131 183.278 227.131 185.127 227.201 186.376 229.05 187.845 230.01 189.294 231.019 190.913 231.918 192.512 232.698 196.849 234.987 201.926 235.166 206.474 236.845 209.772 238.065 209.852 239.924 209.971 242.872 210.861 245.28 213.559 241.313 215.008 241.043 217.597 240.073 221.035 240.663 223.853 240.513 226.052 240.443 227.081 242.382 228.48 243.581 229.699 243.981 229.22 240.933 229.569 240.123 230.699 235.676 236.185 234.317 240.373 234.307 245.68 234.077 251.026 232.108 254.974 228.67 256.563 227.431 257.312 224.883 259.301 224.333 260.84 224.163 262.499 225.253 263.998 225.642 265.997 226.452 267.856 226.852 269.925 227.261 277.75 228.85 282.837 231.369 284.366 239.574 285.655 244.87 284.546 250.447 281.917 255.184 280.878 257.233 279.699 259.122 278.44 261.071 277.73 262.06 273.652 268.116 276.721 267.677 278.809 266.547 280.188 264.249 282.107 262.859 288.383 257.982 294.28 251.646 292.451 243.261 291.252 234.027 283.476 227.451 275.511 223.134 272.433 221.435 269.185 220.246 265.817 219.226 263.079 218.447 260.131 217.367 259.101 214.569 257.962 211.601 256.903 208.513 254.974 205.914 251.426 200.907 243.911 200.028 241.032 194.391 239.973 192.403 239.283 190.214 238.384 188.185 237.615 186.446 236.265 184.797 236.435 182.878L236.435 182.848C236.595 179.111 245.78 177.392 248.918 176.253 258.472 173.454 262.799 177.292 271.234 179.57 279.129 181.409 279.039 177.042 274.702 172.245 269.525 167.768 261.82 165.869 254.984 166.508 251.506 166.908 248.448 168.357 245.33 169.746 243.211 170.666 240.992 171.385 238.944 172.475 237.315 173.204 235.576 174.544 233.757 174.554 231.069 173.894 232.897 169.557 231.488 167.738 229.499 165.389 229.979 179.121 230.589 180.35 232.578 187.096 234.476 198.039 239.823 202.896 243.451 205.944 248.428 208.403 250.337 212.9 252.006 217.957 251.316 225.213 245.859 227.851 241.482 229.73 236.325 228.171 231.778 229.56 226.641 230.419 222.434 234.057 217.227 234.457 214.229 234.487 211.57 232.848 209.052 231.469 205.324 229.44 201.427 227.181 197.059 226.532 191.962 226.132 186.656 222.174 191.603 217.657 193.252 216.188 195.61 215.259 197.559 214.069 200.557 212.3 203.306 210.042 205.394 207.303 208.243 203.536 209.322 198.839 210.011 194.301 210.381 190.794 211.99 187.066 211.131 183.558 210.191 180.92 207.613 182.269 206.943 184.368 205.874 187.216 205.224 190.304 203.815 193.042 202.686 195.271 201.766 197.659 199.878 199.378 195.201 202.976 189.284 205.285 185.416 209.852 183.268 211.981 182.648 214.669 181.049 217.127 176.972 223.164 169.146 224.523 163.03 227.861 157.923 230.679 153.796 235.176 151.877 240.573 150.628 244.051 149.239 247.669 149.628 251.426 150.328 257.083 153.366 262.41 156.854 266.897 159.742 269.535 156.584 264.179 156.024 263.459 150.848 256.154 150.958 246.27 156.064 238.994 159.692 233.058 166.898 230.169 173.774 229.51Z" fill="#1D1D1B" fill-rule="nonzero" fill-opacity="1"/><path d="M165.878 183.088C167.677 182.709 169.486 182.149 171.225 181.639 172.814 181.07 174.283 180.56 175.862 180.06 177.771 179.54 179.73 179.101 181.669 178.621 185.826 177.702 190.333 176.632 194.421 178.381 196.28 179.141 198.019 180.21 200.038 180.58 201.816 180.92 203.765 181 205.574 180.83 207.763 180.72 210.051 180 211.301 178.181 212.53 176.272 212.77 173.824 212.65 171.615 212.59 170.556 212.38 169.487 211.91 168.817 210.841 167.308 209.722 168.387 209.402 169.806 208.992 171.216 208.952 172.915 208.372 174.334 207.203 177.272 204.625 176.053 202.426 174.963 200.987 174.254 199.588 173.484 198.119 172.875 196.77 172.305 195.37 171.875 193.961 171.425 191.643 170.666 189.494 169.477 187.085 169.017 182.768 168.217 178.821 170.576 175.033 172.235L175.003 172.235C172.534 173.374 169.936 174.334 167.497 175.553 165.349 176.562 163.26 177.372 161.471 178.801 159.732 180.26 160.022 182.119 162.191 182.968 163.33 183.418 164.599 183.308 165.888 183.078Z" fill="#1D1D1B" fill-rule="nonzero" fill-opacity="1"/><path d="M172.215 197.769C173.814 198.449 175.493 198.999 177.172 199.478 178.92 199.968 180.649 200.048 182.418 199.958 183.558 199.858 184.737 199.578 185.876 199.348 188.674 198.639 191.593 197.539 193.861 195.761 194.871 194.911 195.67 193.822 196.47 192.772 196.929 192.173 197.489 191.293 197.559 190.804 197.799 189.754 196.47 190.024 195.77 190.144 193.951 190.594 192.352 191.473 190.593 192.223 189.534 192.692 188.435 193.172 187.355 193.612 185.646 194.351 183.947 195.071 182.069 195.231 179.78 195.391 177.421 195.371 175.163 195.291 173.524 195.181 172.015 194.801 170.516 194.261 167.427 193.152 169.226 191.823 171.275 191.023 173.934 189.914 176.622 189.185 179.47 188.735 180.859 188.505 182.188 188.205 183.618 188.055 187.035 187.556 190.563 188.365 193.971 188.075 197.219 187.775 198.129 184.767 197.909 181.969L197.909 181.939C197.519 178.591 193.741 180.72 191.573 180.8 186.266 181.389 181.079 182.669 176.002 184.148 174.313 184.587 172.694 185.217 171.095 185.947 169.406 186.756 167.827 187.935 166.138 188.765 165.189 189.255 164.16 189.554 163.32 189.904 162.61 190.204 161.631 190.734 162.151 191.113 162.59 191.423 163.85 191.513 164.279 192.093 164.469 192.483 164.309 192.882 164.15 193.382 163.95 193.992 163.62 194.511 163.85 194.801 164.09 195.061 165.019 194.711 165.878 194.691 167.098 194.621 168.057 195.461 169.007 196.15 169.916 196.84 171.065 197.28 172.215 197.759Z" fill="#1D1D1B" fill-rule="nonzero" fill-opacity="1"/><path d="M273.802 183.298C271.494 182.459 269.225 181.609 266.817 181.08 265.697 180.83 264.528 180.71 263.409 180.47 261.33 180.08 259.361 179.501 257.213 179.411 255.863 179.371 254.524 179.361 253.175 179.351 251.586 179.351 250.157 179.55 248.638 179.66 247.439 179.75 245.76 179.54 244.78 179.93 243.151 180.7 244.66 182.948 245.35 184.138 245.75 184.797 246.159 185.477 246.709 186.007 247.738 187.026 249.237 187.316 250.707 187.366 253.875 187.366 257.203 187.815 260.331 187.446 261.73 187.296 263.099 187.126 264.528 187.126 266.097 187.156 267.716 187.206 269.225 187.306 270.874 187.426 272.393 187.835 274.012 188.095 275.811 188.395 277.8 188.535 279.539 188.975 280.938 189.324 282.657 190.004 284.046 189.754L284.066 189.754C285.535 189.364 283.376 188.475 283.347 187.765 283.526 187.046 284.606 186.666 284.866 185.987 285.065 185.027 282.957 184.977 282.167 184.917 280.568 184.837 278.909 184.737 277.35 184.398 276.131 184.148 274.972 183.738 273.822 183.298Z" fill="#1D1D1B" fill-rule="nonzero" fill-opacity="1"/><path d="M252.975 281.828C252.266 281.338 251.426 280.988 250.627 280.619 249.797 280.239 249.008 279.779 248.198 279.319 246.329 278.35 244.48 277.241 242.392 276.781 240.073 276.211 237.455 276.341 235.026 276.061 233.657 275.882 232.228 275.722 230.929 275.672 229.16 275.542 227.161 275.832 225.302 275.782 222.284 275.712 219.216 276.031 216.278 276.551 213.199 277.031 210.151 277.311 207.173 278.08 204.135 278.89 201.047 279.739 198.029 280.679 196.66 281.228 191.773 282.418 192.562 284.266L192.562 284.266C193.841 285.875 197.689 284.816 199.548 284.566 202.126 284.206 204.715 283.807 207.203 283.057 208.562 282.637 209.901 282.198 211.271 281.858 213.02 281.448 214.798 281.088 216.577 280.779 218.756 280.339 220.935 279.849 223.183 279.659 226.481 279.299 229.779 279.699 233.077 279.809 235.216 279.869 237.315 280.049 239.423 280.389 240.853 280.609 242.242 281.008 243.651 281.298 246.049 281.788 248.398 282.358 250.766 282.907 251.576 283.127 253.465 283.397 253.795 282.957 254.005 282.627 253.585 282.298 252.965 281.818Z" fill="#1D1D1B" fill-rule="nonzero" fill-opacity="1"/><path d="M246.149 188.875C245.989 189.764 246.879 190.694 247.538 191.433 249.058 192.942 250.447 194.591 252.036 196.06 254.704 198.549 257.902 200.678 261.65 201.187 264.028 201.427 266.557 201.107 268.765 200.238 271.694 199.168 274.452 197.25 276.551 195.051 277.43 194.142 278.32 193.242 279.279 192.403 279.849 191.843 282.037 190.054 280.388 189.804 277.86 189.754 274.252 191.853 271.983 192.982 267.496 195.311 262.739 197.31 257.642 195.551L257.612 195.551C254.914 194.571 252.665 192.732 250.637 190.774 249.777 189.934 248.798 188.965 247.648 188.565 247.009 188.365 246.379 188.275 246.149 188.885Z" fill="#1D1D1B" fill-rule="nonzero" fill-opacity="1"/><path d="M253.115 191.313C255.034 192.373 257.033 192.972 259.311 193.002 261.17 193.022 263.129 192.772 264.828 192.093 265.467 191.843 266.097 191.553 266.727 191.293 267.506 190.973 268.476 190.564 269.015 190.224 269.425 189.974 269.665 189.754 269.655 189.574 269.565 189.065 267.666 189.175 267.126 189.165 264.758 189.324 262.449 189.724 260.091 189.994 258.632 190.184 257.113 190.054 255.733 189.674 254.624 189.494 250.846 187.695 250.297 188.895L250.297 188.895C250.297 189.854 252.196 190.784 253.115 191.303Z" fill="#1D1D1B" fill-rule="nonzero" fill-opacity="1"/><path d="M181.209 190.844C179.65 191.183 178.011 191.523 176.422 191.563 175.882 191.603 172.774 191.563 173.294 192.373L173.294 192.373C173.914 193.052 175.363 193.132 176.342 193.202 178.581 193.332 180.749 193.072 182.848 192.513 183.777 192.253 184.707 191.963 185.636 191.673 187.165 191.203 188.894 190.774 190.234 189.964 190.563 189.754 190.703 189.544 190.613 189.394 190.403 189.085 189.614 189.095 189.134 189.115 186.356 189.235 183.957 190.244 181.189 190.844Z" fill="#1D1D1B" fill-rule="nonzero" fill-opacity="1"/><path d="M272.833 246.999C275.002 245.52 277.42 244.531 279.669 243.222 280.198 242.912 281.797 241.742 280.308 241.762 279.679 241.782 278.809 242.012 278.12 242.202 275.601 243.022 273.023 244.001 270.524 244.801 269.355 245.18 268.176 245.49 266.927 245.67 262.07 246.37 257.272 244.861 252.595 243.811 250.237 243.331 247.788 243.202 245.38 243.341 242.811 243.421 240.183 243.731 237.774 244.411 235.036 245.23 232.428 246.499 229.699 247.369 227.231 248.218 224.533 248.458 221.924 248.608 218.606 248.748 215.218 248.618 211.91 248.188 209.682 247.929 207.523 247.459 205.264 247.279 202.186 247.129 199.028 247.209 195.96 247.089 193.092 247.029 190.274 247.319 187.565 248.089 185.586 248.628 183.757 249.268 181.769 249.718 177.261 250.767 173.544 249.847 169.286 248.438 167.727 247.939 166.148 247.229 164.579 246.659 163.76 246.39 162.92 246.1 162.051 246.18L162.031 246.18C161.221 246.36 161.411 246.959 162.061 247.609 162.92 248.408 164.14 248.948 165.219 249.488 166.858 250.227 168.397 251.107 169.766 252.256 172.065 254.105 174.523 256.024 176.762 258.002 179.59 260.491 182.478 263.129 185.566 265.308 188.045 266.987 190.703 268.396 193.462 269.585 196.52 270.775 199.878 271.574 203.166 272.054 205.864 272.504 208.542 272.893 211.291 272.743 215.508 272.414 219.616 271.604 223.803 270.995 226.811 270.585 229.819 270.165 232.797 269.625 235.946 268.976 239.104 268.456 242.312 268.106 244.041 267.956 245.76 267.727 247.449 267.367 250.227 266.747 252.795 265.268 255.054 263.589 257.292 261.87 258.911 259.711 260.85 257.643 263.409 254.934 266.077 252.516 268.915 250.037 270.155 248.958 271.454 247.929 272.823 246.999ZM190.034 255.594 190.034 255.624C189.824 256.753 190.353 258.392 189.254 259.032 188.425 259.392 186.906 259.861 185.766 259.671 183.777 259.372 182.378 258.732 182.258 256.783 182.228 255.484 182.148 253.795 182.618 252.676 183.098 251.496 184.397 250.987 185.716 250.787 186.956 250.567 188.585 250.297 189.414 251.277 190.294 252.346 190.184 254.225 190.044 255.604ZM198.908 256.154 198.908 256.184C198.718 257.523 199.278 259.492 198.189 260.241 197.369 260.651 195.85 261.201 194.701 260.951 192.702 260.561 191.293 259.771 191.133 257.443 191.083 255.894 190.973 253.865 191.423 252.546 191.883 251.147 193.172 250.557 194.491 250.337 195.73 250.087 197.349 249.797 198.199 250.987 199.098 252.276 199.018 254.515 198.908 256.174ZM204.735 261.7C203.525 262.03 201.866 261.56 200.957 261.19 199.738 260.481 200.187 258.392 199.898 257.013L199.898 256.983C199.658 255.264 199.408 252.936 200.277 251.536 201.097 250.237 202.856 250.447 204.195 250.627 205.614 250.777 207.033 251.307 207.633 252.736 208.213 254.085 208.243 256.204 208.302 257.823 208.302 260.271 206.853 261.171 204.745 261.71ZM218.786 259.002C218.536 261.64 216.777 262.49 214.309 262.889 212.89 263.139 211.86 263.629 210.851 263.139 209.522 262.27 209.432 258.912 209.232 257.383L209.232 257.353C209.132 255.484 209.082 252.946 210.221 251.506 211.291 250.177 213.289 250.557 214.808 250.867 216.427 251.157 217.997 251.856 218.536 253.445 219.056 254.954 218.886 257.253 218.786 259.002ZM228.86 261.57C227.861 262.06 226.002 262.71 224.583 262.46 222.114 262.06 220.355 261.21 220.105 258.572 220.005 256.823 219.825 254.525 220.355 253.016 220.895 251.416 222.464 250.717 224.083 250.437 225.602 250.127 227.601 249.748 228.67 251.077 229.809 252.516 229.759 255.054 229.659 256.923L229.659 256.953C229.46 258.472 230.189 260.691 228.86 261.56ZM238.194 258.962C237.325 259.412 235.716 260.011 234.476 259.781 232.328 259.412 230.809 258.632 230.589 256.194 230.499 254.575 230.349 252.466 230.799 251.067 231.268 249.598 232.628 248.948 234.037 248.688 235.356 248.398 237.085 248.049 238.014 249.278 239.004 250.607 238.964 252.946 238.874 254.674L238.874 254.704C238.694 256.114 239.333 258.152 238.184 258.952ZM244.41 258.212C243.291 258.552 241.732 258.132 240.873 257.793 239.713 257.143 240.103 255.134 239.793 253.815L239.793 253.785C239.533 252.146 239.254 249.927 240.033 248.558 240.773 247.299 242.412 247.469 243.671 247.609 245 247.719 246.339 248.198 246.919 249.558 247.479 250.837 247.558 252.866 247.638 254.415 247.678 256.753 246.349 257.653 244.39 258.202ZM253.175 255.854C252.056 256.134 250.497 255.794 249.637 255.504 248.478 254.954 248.868 253.275 248.558 252.176L248.558 252.156C248.298 250.787 248.018 248.928 248.798 247.789 249.537 246.739 251.176 246.879 252.435 246.999 253.765 247.099 255.104 247.499 255.683 248.628 256.243 249.698 256.323 251.396 256.403 252.686 256.443 254.645 255.114 255.394 253.155 255.854Z" fill="#1D1D1B" fill-rule="nonzero" fill-opacity="1"/></g></g></svg>