<svg width="605" height="270" xmlns="http://www.w3.org/2000/svg" xmlns:xlink="http://www.w3.org/1999/xlink" xml:space="preserve" overflow="hidden"><defs><clipPath id="clip0"><rect x="0" y="0" width="605" height="270"/></clipPath><clipPath id="clip1"><rect x="0" y="0" width="605" height="270"/></clipPath></defs><g clip-path="url(#clip0)"><g clip-path="url(#clip1)"><path d="M500.794 269.468 453.903 269.468C454.612 268.931 454.574 268.171 454.574 267.399 454.561 260.82 454.574 254.236 454.574 247.657L454.574 246.01 457.288 246.01 457.288 269.129 470.822 269.129 470.822 248.999C470.822 246.618 469.932 244.677 468.152 243.174 468.114 243.142 468.063 243.123 468.024 243.091 467.022 242.158 466.019 241.226 464.997 240.268 466.709 238.69 468.337 237.151 470.011 235.663 470.643 235.101 470.847 234.469 470.841 233.645 470.815 229.206 470.809 224.767 470.841 220.329 470.847 219.492 470.585 218.885 469.998 218.31 467.916 216.279 465.84 214.236 463.828 212.141 463.017 211.291 462.117 210.972 460.98 210.978 454.599 210.998 448.213 210.985 441.832 210.991 441.443 210.991 441.053 211.055 440.587 211.1L440.587 269.238 442.196 269.238C445.211 269.238 448.219 269.225 451.234 269.251 451.719 269.251 452.204 269.391 452.69 269.468L348.178 269.468C348.612 269.391 349.046 269.257 349.481 269.251 351.116 269.225 352.744 269.238 354.379 269.238 355.439 269.238 356.5 269.238 357.636 269.238L357.636 211.349C355.803 211.017 345.764 211.093 344.55 211.47L344.55 213.086C344.55 219.971 344.55 226.856 344.537 233.741 344.537 234.226 344.754 234.814 344.097 235.369 343.707 234.066 343.343 232.917 343.017 231.761 341.235 225.393 339.466 219.026 337.684 212.658 337.237 211.068 337.129 210.998 335.455 210.991 333.207 210.991 330.966 210.991 328.717 210.991 328.175 210.991 327.632 210.991 326.98 210.991 326.98 211.745 326.98 212.294 326.98 212.85 326.98 231.007 326.98 249.165 326.98 267.322 326.98 267.68 327.019 268.037 326.98 268.395 326.91 268.957 327.293 269.2 327.651 269.481L288.117 269.481C288.551 269.404 288.986 269.27 289.42 269.264 291.157 269.238 292.894 269.251 294.625 269.251 295.583 269.251 296.541 269.251 297.569 269.251L297.569 211.343C295.455 211.004 285.626 211.106 284.49 211.502L284.49 216.803C284.49 222.519 284.49 228.229 284.477 233.945 284.477 234.443 284.681 235.037 284.062 235.535 283.915 235.12 283.781 234.801 283.685 234.475 283.001 232.08 282.331 229.679 281.66 227.277 280.319 222.475 278.984 217.665 277.637 212.869 277.113 211.004 277.094 211.004 275.107 211.004 272.808 211.004 270.509 211.004 268.216 211.004 267.827 211.004 267.437 211.074 267.028 211.119L267.028 269.155 280.102 269.155 280.102 246.252C280.517 246.572 280.657 246.929 280.76 247.3 282.599 254.076 284.426 260.852 286.284 267.622 286.463 268.28 286.885 268.868 287.191 269.487L227.424 269.487C227.91 269.41 228.395 269.27 228.88 269.27 231.997 269.251 235.114 269.264 238.224 269.257 238.716 269.257 239.208 269.219 239.853 269.193 237.317 249.784 234.801 230.56 232.285 211.291L212.811 211.291C210.359 230.624 207.919 249.854 205.467 269.161L219.166 269.161C219.383 266.255 219.594 263.433 219.811 260.61 219.843 260.207 219.837 259.773 220.003 259.422 220.131 259.153 220.488 258.828 220.75 258.815 222.257 258.757 223.765 258.738 225.323 258.815 225.54 261.9 225.732 264.786 225.949 267.673 226 268.369 226.102 269.078 226.805 269.487L168.877 269.487C169.363 269.41 169.848 269.27 170.333 269.27 173.297 269.251 176.26 269.27 179.224 269.257 179.709 269.257 180.195 269.193 180.661 269.161 180.718 268.855 180.769 268.708 180.769 268.561 180.769 261.363 180.769 254.172 180.789 246.974 180.789 246.137 180.482 245.505 179.875 244.962 178.885 244.081 177.902 243.199 176.937 242.286 176.248 241.635 175.596 240.951 174.868 240.217 176.433 238.805 177.831 237.464 179.313 236.232 180.329 235.382 180.827 234.43 180.801 233.07 180.737 229.04 180.744 225.004 180.801 220.974 180.82 219.754 180.418 218.828 179.562 217.991 177.55 216.03 175.564 214.05 173.603 212.032 172.875 211.279 172.083 210.972 171.03 210.978 164.592 211.017 158.16 210.998 151.723 210.998 151.276 210.998 150.835 211.049 150.343 211.074L150.343 269.244C150.943 269.244 151.448 269.244 151.953 269.244 155.069 269.244 158.186 269.232 161.303 269.257 161.788 269.257 162.273 269.398 162.759 269.474L0 269.474C0 234.558 0 199.648 0 164.739 0.0894139 164.962 0.236308 165.179 0.261855 165.409 0.48539 167.523 0.638671 169.65 0.906912 171.758 1.40508 175.647 3.15503 178.821 6.52722 180.961 7.94506 181.861 9.39485 182.724 10.9021 183.452 17.1739 186.498 23.4775 186.479 29.7621 183.452 34.2008 181.306 37.771 178.061 41.0793 174.478 42.2545 173.208 43.3977 171.898 44.6495 170.704 45.9971 169.427 46.5719 169.35 48.1877 170.276 49.9504 171.292 51.6238 172.467 53.3546 173.546 61.7595 178.809 70.8669 180.565 80.613 178.866 90.3847 177.161 98.5469 172.364 105.56 165.512 108.485 162.657 110.956 159.425 113.192 155.995 119.572 146.217 121.194 135.59 119.042 124.247 117.943 118.454 115.906 112.981 113.62 107.578 112.725 105.476 111.94 103.324 111.167 101.172 110.33 98.8407 110.624 96.65 112.253 94.7276 112.776 94.1081 113.377 93.5397 114.016 93.0352 116.909 90.7743 119.821 88.5453 122.733 86.3163 126.738 83.2507 130.844 80.3192 134.255 76.5447 136.784 73.7473 138.802 70.6434 139.958 67.0477 142.194 60.0989 142.609 52.9714 141.6 45.7991 140.571 38.4799 137.372 32.1698 131.617 27.4373 123.787 20.9995 114.884 18.9557 105.125 22.0597 102.194 22.9921 99.4985 24.6719 96.7011 26.0194 95.0917 26.7922 93.5269 27.6481 91.892 28.3634 90.2633 29.0787 89.0946 28.44 88.6603 26.7284 88.5836 26.4346 88.5709 26.1216 88.5198 25.8215 88.2451 24.2759 88.1238 22.6856 87.6639 21.1975 87.0189 19.1026 85.8246 18.3554 83.6659 18.3682 83.0591 18.3682 82.4332 18.4129 81.852 18.5662 77.656 19.6774 73.875 21.6573 70.5029 24.3653 68.5549 25.93 67.284 28.0121 66.7028 30.4901 66.1599 32.7957 66.0897 35.1205 66.1918 37.4708 66.326 40.4726 66.4856 43.4679 66.5431 46.4697 66.5942 49.0755 65.8406 51.3938 63.7457 53.131 63.1198 53.6483 62.5195 54.204 61.9127 54.7469 57.7933 58.4703 53.5717 62.0788 49.5992 65.9555 46.3228 69.1489 43.2891 72.6041 40.2363 76.0274 34.0603 82.9569 28.242 90.1675 23.1518 97.9402 19.1218 104.097 15.6091 110.528 12.9586 117.4 10.4614 123.857 8.02809 130.346 5.70333 136.867 2.98898 144.442 0.408749 152.061 0.249082 160.236 0.249082 160.409 0.0830272 160.581 0 160.753 0 107.175 0 53.5909 0 0L605 0 605 165.352C604.515 164.509 603.78 164.183 602.829 164.304 602.631 164.33 602.42 164.292 602.215 164.304 597.994 164.637 594.175 163.283 590.464 161.482 590.253 161.379 590.1 161.162 589.812 160.894 590.196 160.415 590.515 159.974 590.873 159.572 594.175 155.861 596.755 151.748 597.866 146.856 598.952 142.079 599.667 137.263 599.552 132.333 599.437 127.191 598.173 122.376 595.899 117.796 593.721 113.415 591.473 109.066 589.359 104.653 588.299 102.449 587.59 100.092 587.271 97.6528 586.938 95.1236 587.047 92.5945 588.529 90.4294 589.436 89.101 590.624 87.9322 591.824 86.8528 593.977 84.9177 594.858 82.6312 594.315 79.7636 593.082 73.2939 586.6 69.0659 580.188 70.5603 576.975 71.3076 574.203 72.8851 571.77 75.0438 568.034 78.3521 565.984 82.446 566.009 87.5362 566.022 89.9823 566.648 92.2624 567.421 94.5297 568.704 98.3042 568.398 101.964 566.539 105.464 565.607 107.214 564.553 108.906 563.454 110.554 560.919 114.373 558.326 118.148 555.746 121.935 554.283 124.081 552.916 126.31 551.307 128.341 544.927 136.407 538.367 144.333 532.275 152.63 529.183 156.838 525.026 159.802 520.121 161.571 512.297 164.387 504.403 164.151 496.56 161.59 494.58 160.945 492.626 160.134 491.055 158.671 489.758 157.464 489.554 156.417 490.435 154.871 490.933 153.996 491.572 153.172 492.281 152.457 495.813 148.919 499.428 145.476 502.934 141.913 505.834 138.962 508.401 135.73 510.63 132.237 513.344 127.983 515.152 123.366 516.308 118.461 517.553 113.16 518.837 107.897 518.345 102.36 517.898 97.3973 516.199 92.9394 513.236 88.986 510.547 85.4031 506.734 83.4934 502.506 82.363 497.243 80.9515 491.917 80.9835 486.578 81.8712 482.982 82.4716 479.508 83.5381 476.301 85.2498 469.238 89.0243 464.084 94.6829 460.456 101.759 456.234 109.985 454.599 118.837 454.293 127.983 454.235 129.708 454.427 131.438 454.472 133.163 454.625 138.796 455.711 144.269 457.397 149.634 457.991 151.531 458.514 153.428 458.578 155.446 458.687 158.569 457.365 159.859 454.912 160.977 454.587 161.124 454.242 161.213 453.903 161.328 449.139 162.938 444.202 163.666 439.214 164.119 436.474 164.368 433.728 164.509 430.994 164.815 426.664 165.307 422.985 163.078 421.535 158.984 420.463 155.963 420.654 152.949 421.714 150.005 424.314 142.826 426.9 135.641 429.685 128.539 432.533 121.29 435.701 114.175 438.051 106.735 439.252 102.928 440.287 99.1089 440.057 95.0661 439.814 90.8445 437.968 87.6895 433.983 85.9523 431.652 84.9368 429.174 84.6047 426.677 84.5153 421.389 84.3237 416.42 85.5947 411.987 88.4687 404.106 93.5653 397.049 99.6518 391.262 107.067 387.284 112.163 383.605 117.496 379.805 122.733 378.968 123.889 378.157 125.065 377.333 126.227 377.001 126.7 376.522 126.891 375.998 126.706 375.423 126.508 375.072 126.054 375.111 125.422 375.136 125.02 375.232 124.617 375.321 124.221 377.703 113.575 380.935 103.184 384.678 92.9394 385.495 90.704 386.204 88.4048 386.715 86.08 387.194 83.9086 386.345 82.7079 384.18 82.3502 382.334 82.0436 380.437 81.9606 378.559 81.9287 375.621 81.884 373.405 83.1038 371.949 85.7799 368.187 92.6967 365.103 99.8945 362.618 107.354 359.15 117.752 356.5 128.36 354.277 139.083 353.134 144.621 351.346 149.909 347.98 154.539 344.077 159.91 338.904 163.193 332.262 164.132 327.344 164.828 322.605 164.049 317.969 162.51 315.823 161.794 313.888 160.67 312.374 158.914 309.749 155.868 309.295 152.304 310.094 148.568 310.515 146.6 311.269 144.665 312.112 142.826 315.593 135.232 319.22 127.709 322.663 120.096 324.023 117.088 325.071 113.939 326.182 110.829 326.501 109.928 326.635 108.951 326.744 107.993 327.191 104.039 325.467 101.095 322.126 99.2239 319.157 97.557 315.995 96.2349 312.917 94.766 310.343 93.5397 307.692 92.4476 305.202 91.0681 300.271 88.3409 297.774 84.1066 297.844 78.4288 297.863 77.0492 297.857 75.6697 297.844 74.2966 297.819 72.0932 296.771 70.803 294.593 70.324 293.999 70.1963 293.386 70.1388 292.779 70.1133 291.202 70.0494 289.618 69.9408 288.04 69.9983 286.061 70.0686 284.068 70.0494 282.139 70.6753 278.978 71.6972 277.432 73.4982 277.349 76.7938 277.234 81.3283 277.196 85.8757 279.144 90.1484 279.335 90.5635 279.457 91.017 279.553 91.464 279.91 93.0479 280.332 94.6382 279.872 96.2732 279.367 98.0807 278.895 99.9009 278.333 101.689 276.117 108.727 273.932 115.778 271.62 122.791 269.973 127.779 267.871 132.594 265.285 137.174 261.395 144.052 256.477 150.145 250.787 155.599 247.721 158.537 244.106 160.594 239.974 161.686 235.031 162.989 230.017 163.117 224.953 162.612 222.788 162.395 221.197 161.379 220.099 159.578 219.153 158.033 218.719 156.302 218.579 154.501 218.342 151.365 218.77 148.299 219.671 145.31 220.833 141.466 222.008 137.614 223.343 133.827 227.162 122.989 232.023 112.617 237.496 102.526 239.367 99.0834 241.156 95.5899 242.835 92.0516 243.436 90.7934 243.749 89.35 243.94 87.9514 244.266 85.5691 243.57 84.4578 241.379 83.5062 237.119 81.6604 232.591 80.8302 228.012 80.4789 225.636 80.3001 224.365 80.9324 223.746 83.6275 223.413 85.0901 222.775 86.5143 222.053 87.8428 221.35 89.1329 220.08 89.58 218.63 89.2223 217.844 89.0307 217.078 88.7178 216.324 88.4176 215.143 87.945 213.993 87.3829 212.799 86.9423 205.856 84.4131 198.722 83.7936 191.416 84.7835 185.572 85.5755 180.131 87.4468 175.111 90.5571 169.273 94.172 164.445 98.8854 160.172 104.206 154.635 111.09 150.343 118.703 147.06 126.891 143.222 136.471 140.686 146.319 140.916 156.743 140.942 157.905 140.801 159.08 140.629 160.236 140.386 161.897 139.435 163.014 137.78 163.461 137.289 163.596 136.784 163.691 136.286 163.787 132.633 164.49 128.986 165.186 125.333 165.895 124.732 166.01 124.138 166.163 123.564 166.348 122.452 166.706 121.782 167.428 121.616 168.641 121.29 170.979 121.303 173.297 121.641 175.628 121.743 176.337 122.101 176.733 122.765 176.899 123.212 177.014 123.653 177.142 124.107 177.212 126.91 177.659 129.688 177.48 132.441 176.81 134.9 176.209 137.129 175.034 139.243 173.725 141.996 172.026 144.435 172.166 146.971 174.166 148.989 175.762 151.371 176.727 153.9 177.282 158.767 178.362 163.666 178.208 168.462 177.065 179.613 174.402 188.836 168.667 195.746 159.412 197.464 157.113 199.419 155.044 201.609 153.192 202.005 152.853 202.471 152.604 203.053 152.214 202.97 153.492 202.989 154.507 202.816 155.497 201.884 160.875 203.148 165.793 205.818 170.448 207.843 173.98 210.915 176.069 214.823 176.976 218.789 177.895 222.807 177.959 226.824 177.391 230.305 176.899 233.76 176.254 237.228 175.686 242.733 174.791 247.619 172.499 252.051 169.158 256.439 165.85 260.182 161.909 263.528 157.579 268.74 150.835 272.629 143.337 276.059 135.583 278.799 129.388 281.398 123.136 284.113 116.928 285.396 113.99 286.527 110.963 288.405 108.331 289.107 107.354 289.957 106.428 290.915 105.706 292.409 104.576 294.082 104.608 295.622 105.674 296.618 106.364 297.595 107.143 298.419 108.025 300.622 110.381 301.529 113.345 301.453 116.442 301.376 119.744 300.597 123.014 299.422 126.118 297.512 131.17 295.462 136.165 293.45 141.172 291.764 145.374 289.867 149.506 289.216 154.047 288.162 161.405 290.301 167.581 296.292 172.135 302.858 177.129 310.407 178.777 318.511 178.138 323.474 177.748 328.238 176.433 332.907 174.747 335.392 173.853 337.755 172.62 340.418 172.211 342.168 171.943 343.618 172.326 344.869 173.603 345.431 174.178 346.089 174.689 346.779 175.111 351.665 178.068 359.073 177.154 363.308 173.227 366.195 170.544 367.74 167.198 368.692 163.474 369.433 160.568 370.174 157.656 371.087 154.795 374.542 143.963 379.856 134.089 386.632 124.981 391.952 117.841 398.071 111.435 404.719 105.528 405.971 104.416 407.299 103.35 408.73 102.494 411.413 100.891 413.514 101.204 415.858 103.235 416.835 104.084 417.288 105.112 416.924 106.345 416.273 108.587 415.602 110.829 414.791 113.019 412.767 118.461 410.576 123.838 408.596 129.293 406.808 134.229 405 139.147 402.624 143.835 401.264 146.524 400.172 149.315 399.527 152.278 398.875 155.28 398.384 158.288 398.939 161.354 400.166 168.092 404.253 172.186 410.793 173.878 414.957 174.957 419.255 175.155 423.528 175.283 426.581 175.373 429.647 175.251 432.706 175.13 438.735 174.887 444.655 173.859 450.531 172.531 454.772 171.573 458.872 170.18 462.985 168.813 465.559 167.958 468.178 167.338 470.924 167.344 473.491 167.351 475.867 168.028 478.032 169.375 484.662 173.501 491.974 175.277 499.683 175.603 505.418 175.845 511.083 175.264 516.672 173.891 520.102 173.054 523.34 171.719 526.565 170.302 529.324 169.088 532.217 168.488 535.187 169.58 536.33 170.001 537.435 170.544 538.534 171.074 540.367 171.962 542.155 172.958 544.013 173.789 548.656 175.871 553.51 177.225 558.613 177.429 562.931 177.602 567.152 176.912 571.253 175.551 573.961 174.651 576.637 173.648 579.377 172.875 582.947 171.873 586.332 172.499 589.474 174.485 590.509 175.136 591.562 175.762 592.642 176.337 594.13 177.129 595.656 177.87 597.374 177.972 599.207 178.081 600.638 177.34 601.13 175.756 601.309 175.175 601.494 174.593 601.717 174.025 602.254 172.652 602.771 171.266 603.378 169.925 603.857 168.871 604.464 167.875 605.013 166.853L605.013 269.442 502.034 269.442C502.519 269.366 503.004 269.225 503.49 269.225 506.702 269.206 509.921 269.219 513.134 269.212 513.619 269.212 514.104 269.168 514.564 269.149L514.564 211.343C512.833 211.017 501.497 211.074 500.245 211.445L500.245 213.214C500.245 230.196 500.245 247.178 500.245 264.161 500.245 265.329 500.181 266.505 500.149 267.673 500.13 268.357 500.264 268.983 500.814 269.455ZM90.7551 210.985 90.7551 269.149C91.0745 269.181 91.3171 269.232 91.5598 269.232 98.7066 269.232 105.853 269.232 113 269.244 113.664 269.244 114.162 269.021 114.629 268.567 116.845 266.383 119.067 264.212 121.309 262.047 121.973 261.402 122.261 260.68 122.254 259.741 122.222 255.404 122.216 251.068 122.254 246.738 122.267 245.722 121.922 244.956 121.175 244.336 120.389 243.691 119.572 243.084 118.78 242.446 117.567 241.462 116.366 240.46 115.076 239.399 116.781 237.726 118.32 236.168 119.917 234.667 120.683 233.951 121.015 233.115 121.009 232.099 121.009 228.12 120.996 224.142 121.009 220.163 121.009 219.083 120.67 218.17 119.942 217.397 118.378 215.724 116.762 214.089 115.255 212.364 114.328 211.304 113.249 210.959 111.882 210.972 105.349 211.01 98.8151 210.991 92.2815 210.991L90.7487 210.991ZM218.777 20.9037C218.777 16.5096 218.783 12.2816 218.764 8.04725 218.764 7.72792 218.623 7.33194 218.406 7.09563 216.388 4.93692 214.357 2.79099 212.288 0.676991 212.039 0.421523 211.585 0.236308 211.228 0.236308 205.614 0.210761 199.993 0.210761 194.379 0.236308 194.015 0.236308 193.536 0.376816 193.3 0.632284 191.346 2.70796 189.462 4.84751 187.507 6.92319 187.035 7.42135 186.907 7.93229 186.907 8.56457 186.913 22.494 186.92 36.4234 186.907 50.3528 186.907 51.0617 187.099 51.5982 187.603 52.1155 189.455 54.0124 191.275 55.9348 193.077 57.8763 193.549 58.3809 194.066 58.4958 194.712 58.4958 200.076 58.4831 205.435 58.4767 210.8 58.4958 211.521 58.4958 212.045 58.2851 212.543 57.7678 214.332 55.8837 216.139 54.006 217.985 52.1794 218.579 51.5918 218.821 51.0042 218.815 50.174 218.777 46.3994 218.802 42.6249 218.796 38.8503 218.796 38.4033 218.745 37.9562 218.719 37.4708L204.662 37.4708 204.662 46.7507 201.437 46.7507C201.111 43.3721 201.258 15.2259 201.584 14.1976L204.726 14.1976 204.726 20.9101 218.802 20.9101ZM410.557 211.279 387.181 211.279C386.881 213.642 386.983 268.069 387.277 269.155L411.042 269.155C411.419 267.897 411.202 266.664 411.24 265.464 411.278 264.237 411.298 263.011 411.24 261.791 411.183 260.603 411.534 259.371 410.921 258.119L401.315 258.119C401.009 256.184 401.079 245.281 401.43 244.023L408.813 244.023 408.813 232.891 401.226 232.891 401.226 222.296C404.368 221.97 407.472 222.443 410.557 222.028L410.557 211.279ZM393.402 0.287402C393.095 3.07839 393.21 57.3207 393.504 58.4064L407.542 58.4064C407.606 50.819 407.523 43.3019 407.587 35.6314L416.043 35.6314 416.043 21.9128 407.676 21.9128 407.676 13.2844 418.796 13.2844 418.796 0.287402 393.389 0.287402ZM341.791 0.300175 341.791 58.3809 355.918 58.3809 355.918 35.6506 364.553 35.6506 364.553 21.8425 355.88 21.8425C355.88 20.2586 355.867 18.8855 355.88 17.5124 355.899 16.1584 355.784 14.798 355.97 13.3993 359.859 13.1886 363.614 13.5079 367.325 13.2141L367.325 0.300175 341.791 0.300175ZM268.369 58.4448C268.67 56.3308 268.593 48.1622 268.229 46.9487L260.22 46.9487 260.22 0.376816C257.844 0.044707 246.987 0.153281 245.952 0.498163 245.658 3.54462 245.792 57.2952 246.105 58.4384L268.376 58.4384ZM297.965 0.300175 297.965 58.3937 312.163 58.3937 312.163 0.300175 297.965 0.300175ZM221.421 206.789 221.421 198.454C219.256 198.135 211.151 198.243 209.989 198.62 209.989 199.949 209.989 201.315 209.989 202.682 209.989 204.036 209.989 205.384 209.995 206.789L221.414 206.789ZM235.325 206.763C235.325 205.205 235.337 203.832 235.325 202.459 235.305 201.111 235.42 199.751 235.235 198.39L223.88 198.39 223.88 206.763 235.331 206.763Z" fill="#FFFFFF" fill-rule="nonzero" fill-opacity="1" transform="matrix(1 0 0 1.00149 7.11886e-17 0.0654886)"/><path d="M605 166.878C604.451 167.9 603.844 168.896 603.365 169.95 602.758 171.292 602.241 172.677 601.704 174.051 601.481 174.619 601.296 175.2 601.117 175.781 600.625 177.365 599.195 178.106 597.362 177.998 595.643 177.895 594.117 177.154 592.629 176.363 591.55 175.788 590.496 175.162 589.461 174.51 586.319 172.524 582.94 171.892 579.364 172.901 576.624 173.674 573.948 174.676 571.24 175.577 567.133 176.937 562.918 177.627 558.601 177.455 553.491 177.25 548.644 175.896 544.001 173.814 542.142 172.984 540.354 171.988 538.521 171.1 537.422 170.57 536.317 170.027 535.174 169.605 532.204 168.513 529.311 169.107 526.552 170.327 523.327 171.745 520.089 173.08 516.659 173.916 511.077 175.283 505.406 175.871 499.67 175.628 491.962 175.302 484.649 173.527 478.02 169.401 475.854 168.053 473.479 167.376 470.911 167.37 468.165 167.364 465.546 167.983 462.972 168.839 458.859 170.206 454.759 171.598 450.518 172.556 444.643 173.885 438.722 174.913 432.693 175.155 429.634 175.277 426.568 175.405 423.515 175.309 419.243 175.181 414.944 174.983 410.78 173.904 404.247 172.205 400.153 168.117 398.927 161.379 398.364 158.314 398.863 155.306 399.514 152.304 400.153 149.34 401.245 146.549 402.612 143.861 404.987 139.173 406.795 134.249 408.583 129.318 410.563 123.864 412.754 118.48 414.778 113.045 415.596 110.86 416.26 108.612 416.911 106.371 417.269 105.138 416.822 104.11 415.845 103.26 413.501 101.229 411.393 100.916 408.717 102.519 407.287 103.375 405.958 104.442 404.706 105.553 398.064 111.461 391.939 117.867 386.619 125.007 379.843 134.108 374.529 143.988 371.074 154.82 370.161 157.675 369.426 160.587 368.679 163.5 367.727 167.223 366.182 170.57 363.295 173.252 359.067 177.18 351.658 178.093 346.766 175.136 346.077 174.721 345.419 174.204 344.857 173.629 343.605 172.352 342.149 171.968 340.405 172.237 337.748 172.645 335.379 173.878 332.894 174.772 328.226 176.458 323.461 177.774 318.499 178.164 310.388 178.802 302.839 177.154 296.279 172.16 290.289 167.6 288.149 161.424 289.203 154.073 289.854 149.532 291.751 145.4 293.437 141.197 295.449 136.19 297.499 131.189 299.409 126.144 300.584 123.04 301.363 119.776 301.44 116.468 301.516 113.37 300.61 110.401 298.406 108.05 297.576 107.169 296.605 106.39 295.609 105.7 294.07 104.633 292.39 104.601 290.902 105.732 289.944 106.454 289.088 107.38 288.392 108.357 286.514 110.988 285.384 114.016 284.1 116.953 281.386 123.155 278.786 129.414 276.046 135.609 272.617 143.362 268.727 150.86 263.516 157.605 260.169 161.941 256.426 165.882 252.039 169.184 247.606 172.524 242.72 174.817 237.215 175.711 233.747 176.273 230.292 176.925 226.811 177.416 222.8 177.985 218.777 177.915 214.811 177.001 210.902 176.094 207.83 174.012 205.805 170.474 203.136 165.818 201.871 160.9 202.804 155.523 202.976 154.539 202.95 153.517 203.04 152.24 202.465 152.63 201.999 152.879 201.596 153.217 199.412 155.069 197.451 157.139 195.733 159.438 188.823 168.692 179.601 174.427 168.449 177.091 163.653 178.234 158.761 178.387 153.888 177.308 151.365 176.752 148.983 175.781 146.958 174.191 144.423 172.192 141.983 172.052 139.23 173.75 137.116 175.06 134.887 176.235 132.428 176.835 129.676 177.506 126.897 177.685 124.094 177.238 123.64 177.167 123.2 177.04 122.753 176.925 122.095 176.759 121.731 176.363 121.628 175.654 121.29 173.322 121.277 171.004 121.603 168.667 121.769 167.453 122.44 166.731 123.551 166.374 124.132 166.189 124.726 166.035 125.32 165.92 128.967 165.211 132.62 164.515 136.273 163.813 136.771 163.717 137.276 163.615 137.768 163.487 139.422 163.04 140.373 161.922 140.616 160.262 140.789 159.106 140.929 157.93 140.904 156.768 140.674 146.345 143.203 136.497 147.048 126.917 150.33 118.729 154.622 111.116 160.159 104.231 164.432 98.9173 169.261 94.1975 175.098 90.5827 180.118 87.4724 185.566 85.601 191.403 84.8091 198.71 83.8192 205.844 84.4387 212.786 86.9678 213.98 87.4021 215.13 87.9641 216.311 88.4431 217.065 88.7433 217.831 89.0563 218.617 89.2479 220.06 89.6055 221.338 89.1584 222.04 87.8683 222.762 86.5463 223.401 85.1157 223.733 83.6531 224.346 80.9643 225.623 80.3256 227.999 80.5044 232.578 80.8557 237.107 81.686 241.366 83.5317 243.563 84.4834 244.253 85.5947 243.928 87.9769 243.736 89.3692 243.423 90.8126 242.823 92.0772 241.143 95.6154 239.355 99.1089 237.483 102.551 232.01 112.642 227.15 123.014 223.33 133.853 221.996 137.64 220.82 141.491 219.658 145.336 218.751 148.325 218.323 151.391 218.566 154.526 218.7 156.327 219.141 158.058 220.086 159.604 221.184 161.398 222.781 162.42 224.94 162.637 230.005 163.142 235.018 163.021 239.961 161.711 244.094 160.619 247.708 158.563 250.774 155.625 256.471 150.171 261.382 144.078 265.272 137.199 267.859 132.62 269.966 127.804 271.608 122.816 273.919 115.804 276.104 108.753 278.32 101.715 278.882 99.9264 279.355 98.1062 279.859 96.2988 280.319 94.6574 279.897 93.0735 279.54 91.4896 279.438 91.0425 279.316 90.5891 279.131 90.1739 277.183 85.9012 277.221 81.3539 277.336 76.8193 277.419 73.5302 278.971 71.7291 282.126 70.7009 284.055 70.075 286.048 70.0941 288.028 70.0239 289.605 69.9664 291.189 70.075 292.767 70.1388 293.373 70.1644 293.987 70.2218 294.58 70.3496 296.758 70.8222 297.806 72.1187 297.831 74.3221 297.844 75.7016 297.85 77.0812 297.831 78.4543 297.761 84.1385 300.258 88.3729 305.189 91.0936 307.68 92.4731 310.33 93.5653 312.904 94.7915 315.982 96.2605 319.144 97.5825 322.114 99.2494 325.447 101.121 327.178 104.065 326.731 108.018 326.623 108.976 326.488 109.954 326.169 110.854 325.051 113.964 324.004 117.113 322.65 120.121 319.208 127.734 315.574 135.258 312.099 142.851 311.256 144.691 310.503 146.626 310.081 148.593 309.283 152.329 309.736 155.9 312.361 158.94 313.875 160.696 315.816 161.826 317.956 162.535 322.593 164.075 327.325 164.854 332.249 164.158 338.891 163.219 344.065 159.93 347.967 154.565 351.333 149.934 353.115 144.646 354.264 139.109 356.487 128.386 359.137 117.771 362.605 107.38 365.096 99.92 368.181 92.7222 371.936 85.8054 373.392 83.1294 375.602 81.9159 378.547 81.9542 380.424 81.9798 382.321 82.0692 384.167 82.3757 386.332 82.7334 387.175 83.9341 386.702 86.1056 386.191 88.4304 385.483 90.7232 384.665 92.9649 380.922 103.209 377.691 113.6 375.308 124.247 375.219 124.643 375.123 125.045 375.098 125.448 375.059 126.086 375.411 126.533 375.985 126.731 376.516 126.917 376.988 126.731 377.32 126.252 378.144 125.084 378.949 123.909 379.792 122.759 383.598 117.528 387.271 112.189 391.25 107.092 397.036 99.6837 404.093 93.5972 411.975 88.4942 416.413 85.6202 421.376 84.3493 426.664 84.5408 429.161 84.6303 431.639 84.9624 433.97 85.9779 437.949 87.715 439.801 90.8701 440.044 95.0917 440.274 99.1345 439.239 102.954 438.039 106.76 435.688 114.201 432.521 121.316 429.672 128.564 426.881 135.666 424.301 142.851 421.702 150.03 420.635 152.968 420.45 155.989 421.523 159.01 422.972 163.104 426.651 165.333 430.981 164.841 433.715 164.528 436.461 164.387 439.201 164.145 444.189 163.691 449.12 162.963 453.891 161.354 454.229 161.239 454.58 161.149 454.9 161.003 457.352 159.885 458.668 158.595 458.566 155.472 458.495 153.453 457.978 151.557 457.384 149.66 455.698 144.295 454.619 138.828 454.459 133.188 454.414 131.458 454.216 129.727 454.28 128.009 454.593 118.863 456.228 110.011 460.443 101.785 464.071 94.7085 469.225 89.0499 476.289 85.2753 479.501 83.5637 482.969 82.4907 486.565 81.8967 491.904 81.009 497.231 80.9771 502.493 82.3885 506.721 83.519 510.534 85.4286 513.223 89.0115 516.193 92.9649 517.892 97.4228 518.332 102.385 518.831 107.916 517.54 113.185 516.295 118.486 515.139 123.391 513.332 128.009 510.617 132.262 508.388 135.756 505.821 138.988 502.921 141.938 499.421 145.502 495.8 148.944 492.268 152.483 491.559 153.198 490.921 154.022 490.422 154.897 489.541 156.442 489.746 157.49 491.042 158.697 492.613 160.153 494.561 160.964 496.547 161.616 504.39 164.177 512.278 164.413 520.108 161.596 525.019 159.834 529.171 156.864 532.262 152.655 538.355 144.359 544.914 136.433 551.294 128.366 552.904 126.335 554.27 124.107 555.733 121.961 558.313 118.173 560.906 114.392 563.442 110.579 564.54 108.925 565.6 107.239 566.526 105.489 568.385 101.989 568.698 98.3298 567.408 94.5552 566.635 92.2879 566.009 90.0079 565.996 87.5618 565.971 82.4716 568.027 78.3777 571.757 75.0694 574.191 72.9107 576.962 71.3331 580.175 70.5859 586.587 69.0914 593.07 73.3194 594.302 79.7891 594.852 82.6568 593.97 84.9432 591.811 86.8784 590.611 87.9577 589.423 89.1265 588.516 90.4549 587.034 92.62 586.926 95.1492 587.258 97.6783 587.577 100.118 588.292 102.475 589.346 104.678 591.46 109.091 593.708 113.441 595.886 117.822 598.16 122.401 599.424 127.217 599.539 132.358 599.654 137.289 598.933 142.104 597.853 146.882 596.742 151.774 594.155 155.893 590.86 159.597 590.496 160.006 590.176 160.447 589.8 160.919 590.087 161.188 590.24 161.405 590.451 161.507 594.162 163.308 597.981 164.656 602.203 164.33 602.407 164.317 602.611 164.349 602.816 164.33 603.767 164.209 604.502 164.534 604.987 165.377L604.987 166.91ZM205.448 98.0743C203.972 98.3361 202.388 98.483 200.881 98.9109 197.33 99.9137 193.996 101.453 190.943 103.522 184.71 107.75 179.198 112.821 174.229 118.448 170.219 122.989 167.159 128.143 165.103 133.865 163.544 138.196 162.65 142.666 162.082 147.226 161.763 149.781 161.89 152.291 162.401 154.801 163.474 160.057 169.094 163.787 174.581 161.418 177.154 160.3 179.326 158.646 181.325 156.743 188.114 150.266 193.83 142.928 198.62 134.881 203.487 126.7 208.271 118.461 213.073 110.247 213.929 108.778 214.472 107.188 214.581 105.483 214.791 102.219 213.086 99.722 209.918 98.8535 208.507 98.4639 207.025 98.3425 205.454 98.0743ZM475.944 133.425C476.052 134.728 476.129 136.356 476.327 137.966 476.576 139.997 477.1 141.964 478.237 143.707 479.501 145.649 481.277 146.345 483.518 145.732 484.247 145.534 484.968 145.221 485.613 144.838 487.108 143.956 488.417 142.851 489.579 141.536 494.255 136.248 498.412 130.615 501.344 124.158 503.892 118.537 505.361 112.662 505.45 106.466 505.527 101.134 500.961 97.6336 496.541 97.3845 492.057 97.1291 488.545 99.1919 485.652 102.341 482.439 105.834 480.293 110.005 478.76 114.475 476.691 120.504 476.282 126.802 475.95 133.425ZM580.96 129.356C580.788 127.945 580.705 126.521 580.437 125.128 579.926 122.465 579.14 119.885 577.576 117.618 576.349 115.842 575.136 115.446 573.092 116.13 572.613 116.289 572.153 116.532 571.725 116.8 569.362 118.263 567.772 120.447 566.284 122.714 562.356 128.673 558.46 134.651 554.519 140.597 553.172 142.634 551.741 144.621 550.317 146.607 548.235 149.506 548.158 152.432 550.119 155.414 551.46 157.458 553.178 159.086 555.331 160.255 559.278 162.395 562.784 162.05 566.252 159.214 568.123 157.681 569.688 155.88 571.08 153.926 574.836 148.644 577.524 142.832 579.511 136.688 580.277 134.319 581.018 131.924 580.967 129.356Z" fill="#000000" fill-rule="nonzero" fill-opacity="1" transform="matrix(1 0 0 1.00149 7.11886e-17 0.0654886)"/><path d="M0 160.76C0.0894139 160.587 0.249082 160.415 0.249082 160.242 0.408749 152.068 2.98898 144.442 5.69694 136.867 8.02809 130.346 10.4614 123.864 12.9522 117.4 15.6027 110.535 19.1154 104.097 23.1454 97.9402 28.2356 90.1675 34.0603 82.9569 40.2299 76.0274 43.2763 72.6041 46.31 69.1553 49.5928 65.9555 53.5653 62.0852 57.7933 58.4703 61.9064 54.7469 62.5131 54.1976 63.1134 53.6483 63.7393 53.131 65.8342 51.3938 66.5814 49.0755 66.5367 46.4697 66.4792 43.4679 66.3196 40.4726 66.1854 37.4708 66.0833 35.1205 66.1535 32.7957 66.6964 30.4901 67.2776 28.0121 68.5421 25.9364 70.4965 24.3653 73.8687 21.6573 77.6496 19.6774 81.8456 18.5662 82.4268 18.4129 83.0527 18.3746 83.6595 18.3682 85.8182 18.3554 87.0125 19.1026 87.6576 21.1975 88.1174 22.6856 88.2451 24.2759 88.5134 25.8215 88.5645 26.1216 88.5772 26.4346 88.6539 26.7284 89.0882 28.44 90.257 29.0787 91.8856 28.3634 93.5206 27.6481 95.0853 26.7922 96.6947 26.0194 99.4921 24.6719 102.187 22.9921 105.119 22.0597 114.878 18.9557 123.781 20.9995 131.611 27.4373 137.365 32.1698 140.565 38.4799 141.593 45.7991 142.602 52.9777 142.187 60.1053 139.952 67.0477 138.796 70.6434 136.778 73.7473 134.249 76.5447 130.844 80.3192 126.731 83.2507 122.727 86.3163 119.815 88.5453 116.902 90.7807 114.009 93.0352 113.37 93.5333 112.77 94.1081 112.246 94.7276 110.624 96.65 110.33 98.8407 111.161 101.172 111.933 103.324 112.719 105.476 113.613 107.578 115.906 112.981 117.943 118.454 119.035 124.247 121.188 135.59 119.559 146.211 113.185 155.995 110.95 159.425 108.478 162.657 105.553 165.512 98.5341 172.364 90.3719 177.161 80.6066 178.866 70.8605 180.565 61.7531 178.809 53.3482 173.546 51.6238 172.467 49.9504 171.292 48.1813 170.276 46.5655 169.344 45.9843 169.42 44.6431 170.704 43.3913 171.898 42.2481 173.208 41.0729 174.478 37.7646 178.055 34.1944 181.306 29.7557 183.452 23.4711 186.485 17.1739 186.505 10.8957 183.452 9.38846 182.717 7.93229 181.855 6.52083 180.961 3.15503 178.821 1.39869 175.654 0.900526 171.758 0.632284 169.65 0.479003 167.523 0.255468 165.409 0.229921 165.179 0.0830272 164.962-0.00638671 164.739-0.00638671 163.41-0.00638671 162.082-0.00638671 160.76ZM70.2538 158.014C71.5311 158.014 72.8085 158.026 74.0794 158.014 79.2335 157.95 83.9469 156.468 88.0471 153.358 96.6373 146.843 100.073 137.863 100.067 127.376 100.067 123.417 99.5879 119.476 99.0642 115.542 98.6491 112.464 97.3015 109.896 95.0342 107.878 90.538 103.861 85.1029 102.417 79.1952 102.622 77.0109 102.698 75.1205 103.663 73.8495 105.483 73.1022 106.549 72.4508 107.744 72.0293 108.976 70.7392 112.725 69.5321 116.506 68.3697 120.306 65.0742 131.087 60.9292 141.517 55.5069 151.422 54.4467 153.351 54.9321 155.159 56.9183 156.161 58.036 156.723 59.275 157.113 60.5077 157.394 63.7138 158.122 66.9838 158.065 70.2474 158.033ZM119.885 53.0288C119.885 52.2624 119.923 51.496 119.885 50.736 119.399 42.3375 113.358 36.6214 104.333 37.7965 100.865 38.25 97.6144 39.4251 94.4147 40.7664 89.2606 42.9314 85.8821 46.6932 84.3045 52.0836 83.3465 55.3664 82.8101 58.7258 82.5035 62.1171 82.2927 64.4483 82.3055 66.7986 82.05 69.117 81.6668 72.5402 81.9798 75.9188 82.5227 79.2846 83.1613 83.2571 87.236 86.6548 90.6146 87.0253 93.9932 87.3893 97.0907 86.6038 100.086 85.2242 104.755 83.0719 108.548 79.7891 111.825 75.8869 117.375 69.283 119.61 61.4976 119.885 53.0224ZM17.4804 156.698C17.6018 157.771 17.8189 159.84 18.0744 161.903 18.2213 163.078 18.8727 163.934 20.0543 164.138 21.0378 164.311 22.098 164.464 23.0624 164.292 27.2457 163.544 30.4327 161.277 32.272 157.451 35.0566 151.672 37.8157 145.872 40.3321 139.977 45.831 127.089 50.257 113.811 54.2295 100.38 55.1684 97.2057 56.1264 94.0443 57.0333 90.8637 57.6336 88.7689 58.2148 86.6612 58.7002 84.5345 58.8407 83.9277 58.7002 83.2252 58.5597 82.5929 58.3617 81.6604 57.5953 81.207 56.7523 81.2134 54.4275 81.2453 52.3838 81.8393 50.9659 83.9788 48.5454 87.632 45.8949 91.1319 43.5126 94.8043 39.8211 100.488 36.1552 106.192 32.6872 112.01 27.7758 120.255 23.5989 128.871 20.6482 138.036 18.8025 143.778 17.589 149.634 17.4676 156.704Z" fill="#000000" fill-rule="nonzero" fill-opacity="1" transform="matrix(1 0 0 1.00149 7.11886e-17 0.0654886)"/><path d="M162.746 269.468C162.261 269.391 161.775 269.251 161.29 269.251 158.173 269.232 155.056 269.238 151.94 269.238 151.435 269.238 150.937 269.238 150.33 269.238L150.33 211.068C150.822 211.036 151.269 210.991 151.71 210.991 158.148 210.991 164.579 211.004 171.017 210.972 172.071 210.972 172.863 211.272 173.591 212.026 175.545 214.038 177.538 216.024 179.55 217.985 180.405 218.821 180.808 219.741 180.789 220.967 180.731 224.997 180.731 229.034 180.789 233.064 180.808 234.424 180.316 235.376 179.3 236.225 177.819 237.464 176.42 238.799 174.855 240.21 175.583 240.939 176.235 241.628 176.925 242.28 177.889 243.187 178.873 244.074 179.862 244.956 180.469 245.499 180.776 246.131 180.776 246.968 180.757 254.165 180.763 261.357 180.757 268.555 180.757 268.702 180.706 268.848 180.648 269.155 180.182 269.187 179.696 269.251 179.211 269.251 176.248 269.257 173.284 269.251 170.321 269.264 169.835 269.264 169.35 269.404 168.865 269.481L167.638 269.481C166.929 268.951 166.968 268.191 166.968 267.411 166.98 260.846 166.968 254.28 166.968 247.708L166.968 245.99 164.311 245.99 164.311 247.721C164.311 254.338 164.324 260.954 164.298 267.577 164.298 268.21 164.075 268.842 163.96 269.474L162.733 269.474ZM166.91 234.584C167.166 230.963 167.057 223.433 166.751 222.321 164.394 221.989 164.33 222.04 164.33 224.378 164.33 227.226 164.33 230.068 164.33 232.917 164.33 234.673 164.509 234.839 166.252 234.731 166.444 234.718 166.636 234.648 166.91 234.59Z" fill="#000000" fill-rule="nonzero" fill-opacity="1" transform="matrix(1 0 0 1.00149 7.11886e-17 0.0654886)"/><path d="M327.632 269.468C327.28 269.187 326.897 268.944 326.961 268.382 327.006 268.031 326.961 267.667 326.961 267.309 326.961 249.152 326.961 230.994 326.961 212.837 326.961 212.281 326.961 211.732 326.961 210.978 327.613 210.978 328.155 210.978 328.698 210.978 330.946 210.978 333.188 210.978 335.436 210.978 337.11 210.978 337.218 211.055 337.665 212.645 339.447 219.013 341.216 225.381 342.998 231.748 343.324 232.91 343.688 234.054 344.077 235.357 344.742 234.801 344.518 234.22 344.518 233.728 344.537 226.843 344.531 219.958 344.531 213.073L344.531 211.457C345.751 211.081 355.784 211.01 357.617 211.336L357.617 269.225C356.474 269.225 355.414 269.225 354.36 269.225 352.725 269.225 351.09 269.212 349.461 269.238 349.027 269.244 348.593 269.379 348.159 269.455L347.239 269.455C346.926 268.772 346.517 268.114 346.319 267.399 344.467 260.635 342.653 253.859 340.814 247.095 340.75 246.859 340.565 246.655 340.431 246.437 340.348 246.463 340.265 246.489 340.182 246.508L340.182 269.219C339.556 269.219 339.058 269.219 338.566 269.219 335.609 269.219 332.652 269.206 329.695 269.232 329.209 269.232 328.724 269.372 328.238 269.449L327.625 269.449Z" fill="#000000" fill-rule="nonzero" fill-opacity="1" transform="matrix(1 0 0 1.00149 7.11886e-17 0.0654886)"/><path d="M287.178 269.468C286.872 268.848 286.45 268.261 286.271 267.603 284.406 260.833 282.586 254.057 280.747 247.281 280.645 246.91 280.511 246.552 280.089 246.233L280.089 269.136 267.015 269.136 267.015 211.1C267.418 211.062 267.814 210.991 268.203 210.985 270.503 210.972 272.802 210.978 275.095 210.985 277.087 210.985 277.1 210.985 277.624 212.85 278.971 217.653 280.306 222.455 281.647 227.258 282.318 229.66 282.995 232.055 283.672 234.456 283.768 234.788 283.902 235.101 284.049 235.516 284.675 235.024 284.464 234.43 284.464 233.926 284.483 228.21 284.477 222.5 284.477 216.784L284.477 211.483C285.62 211.087 295.443 210.985 297.557 211.323L297.557 269.232C296.528 269.232 295.57 269.232 294.612 269.232 292.875 269.232 291.138 269.219 289.407 269.244 288.973 269.251 288.539 269.385 288.104 269.462L287.185 269.462Z" fill="#000000" fill-rule="nonzero" fill-opacity="1" transform="matrix(1 0 0 1.00149 7.11886e-17 0.0654886)"/><path d="M452.677 269.468C452.192 269.391 451.706 269.251 451.221 269.251 448.206 269.232 445.198 269.238 442.184 269.238L440.574 269.238 440.574 211.1C441.04 211.062 441.43 210.991 441.82 210.991 448.2 210.991 454.587 210.998 460.967 210.978 462.104 210.978 463.004 211.298 463.815 212.141 465.827 214.242 467.903 216.279 469.985 218.31 470.573 218.885 470.834 219.486 470.828 220.329 470.79 224.767 470.796 229.206 470.828 233.645 470.828 234.469 470.624 235.101 469.998 235.663 468.331 237.151 466.702 238.684 464.984 240.268 466.012 241.226 467.009 242.158 468.012 243.091 468.05 243.123 468.101 243.142 468.139 243.174 469.919 244.677 470.809 246.618 470.809 248.999L470.809 269.129 457.275 269.129 457.275 246.01 454.561 246.01 454.561 247.657C454.561 254.236 454.561 260.82 454.561 267.399 454.561 268.171 454.606 268.938 453.891 269.468L452.664 269.468ZM454.644 234.462C456.803 235.165 457.224 234.897 457.224 232.776 457.224 229.87 457.237 226.964 457.224 224.065 457.218 222.321 456.982 222.111 455.27 222.213 455.078 222.225 454.9 222.321 454.651 222.398 454.651 226.447 454.651 230.458 454.651 234.469Z" fill="#000000" fill-rule="nonzero" fill-opacity="1" transform="matrix(1 0 0 1.00149 7.11886e-17 0.0654886)"/><path d="M226.798 269.468C226.089 269.066 225.994 268.357 225.943 267.654 225.725 264.767 225.527 261.874 225.317 258.796 223.758 258.719 222.251 258.738 220.744 258.796 220.476 258.809 220.124 259.134 219.997 259.402 219.83 259.754 219.837 260.188 219.805 260.59 219.588 263.413 219.377 266.243 219.16 269.142L205.46 269.142C207.913 249.829 210.353 230.598 212.805 211.272L232.278 211.272C234.795 230.541 237.311 249.765 239.846 269.174 239.201 269.2 238.71 269.238 238.218 269.238 235.101 269.238 231.984 269.232 228.874 269.251 228.389 269.251 227.903 269.391 227.418 269.468L226.805 269.468ZM224.339 247.51C224.339 246.75 224.378 246.144 224.339 245.543 224.058 241.647 223.765 237.758 223.471 233.868 223.279 231.339 223.081 228.817 222.858 226.287 222.826 225.904 222.609 225.54 222.481 225.163 222.34 225.183 222.194 225.208 222.053 225.227 221.6 232.617 221.146 240.012 220.686 247.51L224.346 247.51Z" fill="#000000" fill-rule="nonzero" fill-opacity="1" transform="matrix(1 0 0 1.00149 7.11886e-17 0.0654886)"/><path d="M500.794 269.468C500.245 268.995 500.111 268.369 500.13 267.686 500.169 266.517 500.226 265.342 500.226 264.173 500.226 247.191 500.226 230.209 500.226 213.227L500.226 211.457C501.478 211.093 512.814 211.03 514.545 211.355L514.545 269.161C514.085 269.187 513.6 269.225 513.114 269.225 509.902 269.225 506.683 269.225 503.471 269.238 502.985 269.238 502.5 269.379 502.014 269.455L500.788 269.455Z" fill="#000000" fill-rule="nonzero" fill-opacity="1" transform="matrix(1 0 0 1.00149 7.11886e-17 0.0654886)"/><path d="M328.245 269.468C328.73 269.391 329.216 269.251 329.701 269.251 332.658 269.232 335.615 269.238 338.572 269.238 339.07 269.238 339.568 269.238 340.188 269.238L340.188 246.527C340.271 246.501 340.354 246.476 340.437 246.457 340.565 246.674 340.756 246.878 340.82 247.114 342.66 253.884 344.473 260.654 346.326 267.418 346.524 268.133 346.932 268.791 347.245 269.474L328.245 269.474Z" fill="#FFFFFF" fill-rule="nonzero" fill-opacity="1" transform="matrix(1 0 0 1.00149 7.11886e-17 0.0654886)"/><path d="M163.966 269.468C164.087 268.836 164.304 268.203 164.304 267.571 164.33 260.954 164.317 254.338 164.317 247.715L164.317 245.984 166.974 245.984 166.974 247.702C166.974 254.268 166.974 260.833 166.974 267.405 166.974 268.178 166.936 268.938 167.645 269.474L163.966 269.474Z" fill="#FFFFFF" fill-rule="nonzero" fill-opacity="1" transform="matrix(1 0 0 1.00149 7.11886e-17 0.0654886)"/><path d="M90.7551 210.985 92.2879 210.985C98.8215 210.985 105.355 211.01 111.889 210.966 113.255 210.959 114.335 211.304 115.261 212.358 116.768 214.082 118.384 215.711 119.949 217.391 120.677 218.17 121.022 219.077 121.015 220.156 120.996 224.135 121.003 228.114 121.015 232.093 121.015 233.108 120.683 233.939 119.923 234.66 118.327 236.161 116.781 237.726 115.082 239.393 116.372 240.46 117.573 241.456 118.786 242.439 119.578 243.078 120.396 243.685 121.181 244.33 121.929 244.943 122.267 245.716 122.261 246.731 122.222 251.068 122.222 255.404 122.261 259.735 122.267 260.673 121.98 261.402 121.316 262.04 119.074 264.199 116.851 266.377 114.635 268.561 114.169 269.014 113.671 269.238 113.006 269.238 105.86 269.219 98.713 269.225 91.5662 269.225 91.3235 269.225 91.0808 269.181 90.7615 269.142L90.7615 210.978ZM105.278 245.537 105.278 257.921 107.533 257.921 107.533 245.537 105.278 245.537ZM107.546 222.277C107.214 222.232 107.016 222.194 106.818 222.187 105.164 222.142 105.08 222.213 105.074 223.848 105.068 226.747 105.068 229.653 105.074 232.553 105.074 233.032 105.164 233.517 105.221 234.035 105.789 234.073 106.185 234.118 106.588 234.118 106.882 234.118 107.175 234.06 107.546 234.022L107.546 222.283Z" fill="#000000" fill-rule="nonzero" fill-opacity="1" transform="matrix(1 0 0 1.00149 7.11886e-17 0.0654886)"/><path d="M218.777 20.9037 204.7 20.9037 204.7 14.1913 201.558 14.1913C201.232 15.2195 201.085 43.3657 201.411 46.7443L204.636 46.7443 204.636 37.4644 218.694 37.4644C218.719 37.9562 218.77 38.4033 218.77 38.844 218.77 42.6185 218.751 46.393 218.789 50.1676 218.796 50.9979 218.553 51.5918 217.959 52.173 216.107 53.9996 214.306 55.8773 212.518 57.7614 212.026 58.2851 211.502 58.4958 210.774 58.4895 205.416 58.4639 200.051 58.4703 194.686 58.4895 194.041 58.4895 193.524 58.3809 193.051 57.87 191.25 55.9284 189.43 53.9996 187.578 52.1091 187.073 51.5918 186.881 51.0617 186.881 50.3464 186.894 36.417 186.894 22.4876 186.881 8.55819 186.881 7.91952 187.009 7.41497 187.482 6.9168 189.436 4.84112 191.327 2.70158 193.275 0.625897 193.511 0.370429 193.99 0.229921 194.354 0.229921 199.968 0.204375 205.588 0.204375 211.202 0.229921 211.56 0.229921 212.013 0.415136 212.262 0.670604 214.325 2.7846 216.362 4.93054 218.381 7.08925 218.598 7.31917 218.738 7.71514 218.738 8.04086 218.764 12.2753 218.751 16.5033 218.751 20.8973Z" fill="#000000" fill-rule="nonzero" fill-opacity="1" transform="matrix(1 0 0 1.00149 7.11886e-17 0.0654886)"/><path d="M410.557 211.272 410.557 222.021C407.472 222.436 404.368 221.964 401.226 222.289L401.226 232.885 408.813 232.885 408.813 244.017 401.43 244.017C401.079 245.275 401.009 256.177 401.315 258.112L410.921 258.112C411.534 259.364 411.183 260.603 411.24 261.785 411.304 263.005 411.285 264.231 411.24 265.457 411.202 266.664 411.425 267.89 411.042 269.149L387.277 269.149C386.983 268.063 386.881 213.635 387.181 211.272L410.557 211.272Z" fill="#000000" fill-rule="nonzero" fill-opacity="1" transform="matrix(1 0 0 1.00149 7.11886e-17 0.0654886)"/><path d="M393.402 0.287402 418.808 0.287402 418.808 13.2844 407.689 13.2844 407.689 21.9128 416.056 21.9128 416.056 35.6314 407.6 35.6314C407.529 43.3019 407.619 50.819 407.555 58.4064L393.517 58.4064C393.223 57.3207 393.102 3.07839 393.415 0.287402Z" fill="#000000" fill-rule="nonzero" fill-opacity="1" transform="matrix(1 0 0 1.00149 7.11886e-17 0.0654886)"/><path d="M341.791 0.300175 367.325 0.300175 367.325 13.2141C363.614 13.5143 359.859 13.1886 355.97 13.3993 355.784 14.7916 355.899 16.1584 355.88 17.5124 355.861 18.8855 355.88 20.2586 355.88 21.8425L364.553 21.8425 364.553 35.6506 355.918 35.6506 355.918 58.3809 341.791 58.3809 341.791 0.300175Z" fill="#000000" fill-rule="nonzero" fill-opacity="1" transform="matrix(1 0 0 1.00149 7.11886e-17 0.0654886)"/><path d="M268.369 58.4448 246.099 58.4448C245.786 57.2952 245.658 3.55101 245.946 0.50455 246.98 0.159668 257.838 0.0510937 260.214 0.383202L260.214 46.9487 268.223 46.9487C268.587 48.1558 268.67 56.3308 268.363 58.4448Z" fill="#000000" fill-rule="nonzero" fill-opacity="1" transform="matrix(1 0 0 1.00149 7.11886e-17 0.0654886)"/><path d="M297.965 0.300175 312.163 0.300175 312.163 58.3937 297.965 58.3937 297.965 0.300175Z" fill="#000000" fill-rule="nonzero" fill-opacity="1" transform="matrix(1 0 0 1.00149 7.11886e-17 0.0654886)"/><path d="M221.421 206.789 210.001 206.789C210.001 205.384 209.995 204.03 209.995 202.682 209.995 201.315 209.995 199.949 209.995 198.62 211.151 198.243 219.262 198.141 221.427 198.454L221.427 206.789Z" fill="#000000" fill-rule="nonzero" fill-opacity="1" transform="matrix(1 0 0 1.00149 7.11886e-17 0.0654886)"/><path d="M235.331 206.763 223.88 206.763 223.88 198.39 235.235 198.39C235.42 199.751 235.305 201.111 235.325 202.459 235.344 203.832 235.325 205.205 235.325 206.763Z" fill="#000000" fill-rule="nonzero" fill-opacity="1" transform="matrix(1 0 0 1.00149 7.11886e-17 0.0654886)"/><path d="M205.448 98.0743C207.012 98.3361 208.5 98.4639 209.912 98.8535 213.08 99.722 214.785 102.213 214.574 105.483 214.466 107.188 213.929 108.778 213.067 110.247 208.258 118.467 203.48 126.7 198.614 134.881 193.824 142.928 188.108 150.266 181.319 156.743 179.326 158.646 177.154 160.3 174.574 161.418 169.088 163.793 163.468 160.064 162.395 154.801 161.884 152.291 161.756 149.781 162.075 147.226 162.65 142.673 163.538 138.202 165.096 133.865 167.153 128.143 170.212 122.989 174.223 118.448 179.198 112.815 184.704 107.75 190.937 103.522 193.99 101.453 197.324 99.9137 200.875 98.9109 202.382 98.483 203.966 98.3361 205.441 98.0743Z" fill="#FFFFFF" fill-rule="nonzero" fill-opacity="1" transform="matrix(1 0 0 1.00149 7.11886e-17 0.0654886)"/><path d="M475.944 133.418C476.282 126.789 476.685 120.498 478.754 114.469 480.287 110.005 482.433 105.828 485.645 102.334 488.538 99.1919 492.051 97.1227 496.535 97.3781 500.948 97.6272 505.514 101.127 505.444 106.46 505.355 112.655 503.892 118.531 501.337 124.151 498.406 130.608 494.248 136.241 489.573 141.529 488.411 142.845 487.101 143.95 485.607 144.831 484.955 145.215 484.24 145.521 483.512 145.726 481.277 146.339 479.501 145.642 478.23 143.701 477.093 141.957 476.57 139.997 476.321 137.959 476.123 136.35 476.046 134.721 475.937 133.418Z" fill="#FFFFFF" fill-rule="nonzero" fill-opacity="1" transform="matrix(1 0 0 1.00149 7.11886e-17 0.0654886)"/><path d="M580.967 129.35C581.024 131.917 580.277 134.312 579.511 136.682 577.524 142.826 574.842 148.638 571.08 153.92 569.688 155.874 568.123 157.681 566.252 159.208 562.784 162.044 559.278 162.395 555.331 160.249 553.178 159.08 551.46 157.451 550.119 155.408 548.158 152.419 548.229 149.5 550.317 146.6 551.741 144.614 553.172 142.628 554.519 140.591 558.46 134.645 562.362 128.667 566.284 122.708 567.778 120.441 569.362 118.256 571.725 116.794 572.153 116.525 572.613 116.283 573.092 116.123 575.136 115.44 576.349 115.836 577.576 117.611 579.14 119.878 579.926 122.459 580.437 125.122 580.705 126.514 580.794 127.939 580.96 129.35Z" fill="#FFFFFF" fill-rule="nonzero" fill-opacity="1" transform="matrix(1 0 0 1.00149 7.11886e-17 0.0654886)"/><path d="M70.2538 158.007C66.9902 158.039 63.7202 158.103 60.5141 157.368 59.2878 157.087 58.0488 156.698 56.9247 156.136 54.9321 155.133 54.4531 153.332 55.5133 151.397 60.9356 141.491 65.0742 131.062 68.3761 120.281 69.5385 116.487 70.7392 112.706 72.0357 108.951 72.4572 107.718 73.1086 106.53 73.8559 105.457 75.1268 103.637 77.0173 102.673 79.2016 102.596 85.1093 102.392 90.538 103.835 95.0406 107.852 97.3079 109.877 98.6618 112.438 99.0706 115.516 99.6007 119.451 100.073 123.391 100.073 127.351 100.073 137.838 96.6437 146.818 88.0535 153.332 83.9533 156.442 79.2399 157.93 74.0858 157.988 72.8085 158.001 71.5311 157.988 70.2602 157.988Z" fill="#FFFFFF" fill-rule="nonzero" fill-opacity="1" transform="matrix(1 0 0 1.00149 7.11886e-17 0.0654886)"/><path d="M119.885 53.0288C119.61 61.4976 117.375 69.283 111.825 75.8932 108.548 79.7955 104.748 83.0783 100.086 85.2306 97.0907 86.6101 93.9932 87.3957 90.6146 87.0317 87.236 86.6676 83.1613 83.2635 82.5227 79.291 81.9798 75.9316 81.6668 72.553 82.05 69.1233 82.3119 66.805 82.2991 64.4547 82.5035 62.1235 82.8101 58.7322 83.3465 55.3728 84.3045 52.09 85.8821 46.6996 89.2606 42.9378 94.4147 40.7727 97.608 39.4315 100.865 38.2564 104.333 37.8029 113.351 36.6214 119.393 42.3439 119.885 50.7424 119.93 51.5024 119.885 52.2688 119.885 53.0352Z" fill="#FFFFFF" fill-rule="nonzero" fill-opacity="1" transform="matrix(1 0 0 1.00149 7.11886e-17 0.0654886)"/><path d="M17.4804 156.698C17.6018 149.634 18.8152 143.778 20.661 138.03 23.6117 128.865 27.7886 120.255 32.6999 112.004 36.1615 106.185 39.8339 100.482 43.5254 94.7979 45.914 91.1255 48.5581 87.6256 50.9787 83.9724 52.3965 81.8329 54.4403 81.2389 56.7651 81.207 57.6081 81.1942 58.3745 81.6541 58.5725 82.5865 58.7066 83.2188 58.8535 83.9213 58.713 84.5281 58.2276 86.6548 57.6464 88.7625 57.0461 90.8573 56.1392 94.0379 55.1812 97.2057 54.2423 100.373 50.2698 113.805 45.8438 127.083 40.3448 139.971 37.8285 145.866 35.0694 151.665 32.2848 157.445 30.439 161.271 27.2521 163.538 23.0752 164.285 22.1108 164.458 21.0506 164.304 20.067 164.132 18.8855 163.928 18.234 163.072 18.0872 161.897 17.8317 159.834 17.6145 157.764 17.4932 156.691Z" fill="#FFFFFF" fill-rule="nonzero" fill-opacity="1" transform="matrix(1 0 0 1.00149 7.11886e-17 0.0654886)"/><path d="M166.904 234.584C166.636 234.648 166.444 234.712 166.246 234.724 164.502 234.833 164.324 234.667 164.324 232.91 164.324 230.062 164.324 227.22 164.324 224.371 164.324 222.04 164.387 221.989 166.744 222.315 167.051 223.426 167.159 230.956 166.904 234.577Z" fill="#FFFFFF" fill-rule="nonzero" fill-opacity="1" transform="matrix(1 0 0 1.00149 7.11886e-17 0.0654886)"/><path d="M454.644 234.462C454.644 230.452 454.644 226.441 454.644 222.392 454.893 222.315 455.078 222.213 455.264 222.206 456.975 222.111 457.212 222.321 457.218 224.058 457.231 226.964 457.218 229.864 457.218 232.77 457.218 234.89 456.803 235.159 454.638 234.456Z" fill="#FFFFFF" fill-rule="nonzero" fill-opacity="1" transform="matrix(1 0 0 1.00149 7.11886e-17 0.0654886)"/><path d="M224.339 247.51 220.68 247.51C221.14 240.012 221.593 232.623 222.047 225.227 222.187 225.208 222.334 225.183 222.475 225.163 222.602 225.54 222.819 225.904 222.851 226.287 223.081 228.81 223.273 231.339 223.465 233.868 223.765 237.758 224.052 241.654 224.333 245.543 224.378 246.144 224.333 246.75 224.333 247.51Z" fill="#FFFFFF" fill-rule="nonzero" fill-opacity="1" transform="matrix(1 0 0 1.00149 7.11886e-17 0.0654886)"/><path d="M105.278 245.543 107.533 245.543 107.533 257.927 105.278 257.927 105.278 245.543Z" fill="#FFFFFF" fill-rule="nonzero" fill-opacity="1" transform="matrix(1 0 0 1.00149 7.11886e-17 0.0654886)"/><path d="M107.546 222.283 107.546 234.022C107.175 234.06 106.882 234.118 106.588 234.118 106.185 234.118 105.789 234.073 105.221 234.035 105.17 233.517 105.08 233.032 105.074 232.553 105.061 229.653 105.061 226.747 105.074 223.848 105.074 222.213 105.164 222.142 106.818 222.187 107.016 222.187 107.22 222.238 107.546 222.277Z" fill="#FFFFFF" fill-rule="nonzero" fill-opacity="1" transform="matrix(1 0 0 1.00149 7.11886e-17 0.0654886)"/></g></g></svg>