<?xml version="1.0" encoding="UTF-8"?>
<svg id="Lager_1" data-name="Lager 1" xmlns="http://www.w3.org/2000/svg" viewBox="0 0 221.1 255.12">
  <defs>
    <style>
      .cls-1 {
        fill: none;
        stroke-width: .41px;
      }

      .cls-1, .cls-2, .cls-3, .cls-4 {
        stroke: #215aa8;
        stroke-miterlimit: 10;
      }

      .cls-2 {
        stroke-width: .51px;
      }

      .cls-2, .cls-3, .cls-4 {
        fill: #f0845c;
      }

      .cls-3 {
        stroke-width: .53px;
      }

      .cls-5 {
        fill: #215aa8;
      }

      .cls-4 {
        stroke-width: .52px;
      }
    </style>
  </defs>
  <line class="cls-3" x1="212.39" y1="178.31" x2="7.96" y2="178.31"/>
  <line class="cls-3" x1="212.39" y1="190.47" x2="7.96" y2="190.47"/>
  <line class="cls-3" x1="212.39" y1="222.56" x2="7.96" y2="222.56"/>
  <line class="cls-3" x1="212.39" y1="240.03" x2="7.96" y2="240.03"/>
  <line class="cls-3" x1="212.39" y1="242.02" x2="7.96" y2="242.02"/>
  <line class="cls-4" x1="36.37" y1="232.96" x2="36.37" y2="239.76"/>
  <line class="cls-4" x1="54.14" y1="228.64" x2="54.14" y2="239.76"/>
  <line class="cls-4" x1="75.5" y1="228.64" x2="75.5" y2="239.76"/>
  <line class="cls-4" x1="110.6" y1="228.64" x2="110.6" y2="239.76"/>
  <line class="cls-4" x1="134.92" y1="228.64" x2="134.92" y2="239.76"/>
  <line class="cls-4" x1="170.71" y1="228.64" x2="170.71" y2="239.76"/>
  <line class="cls-4" x1="93.19" y1="232.96" x2="93.19" y2="239.76"/>
  <line class="cls-4" x1="152.61" y1="232.96" x2="152.61" y2="239.76"/>
  <line class="cls-2" x1="212.39" y1="63.61" x2="7.96" y2="63.61"/>
  <line class="cls-2" x1="212.39" y1="82.76" x2="7.96" y2="82.76"/>
  <line class="cls-2" x1="212.39" y1="101.91" x2="7.96" y2="101.91"/>
  <line class="cls-2" x1="212.39" y1="121.05" x2="7.96" y2="121.05"/>
  <rect class="cls-1" x="9.87" y="194.37" width="9.94" height="9.94"/>
  <rect class="cls-1" x="40.18" y="194.37" width="9.94" height="9.94"/>
  <rect class="cls-1" x="9.87" y="208.54" width="9.94" height="9.94"/>
  <g>
    <path class="cls-5" d="M9.47,182.3h.3c.07,0,.2,.07,.4,.2h.27l.1-.07,.2,.33v.84c.07,.2,.1,.31,.1,.33,0,.13-.07,.24-.2,.33-.05-.04-.12-.21-.2-.5-.11-.11-.23-.29-.37-.57-.14-.16-.31-.27-.5-.33h-.2c-.17,0-.38,.29-.64,.87-.11,.39-.17,.75-.17,1.07,0,.16,.02,.24,.07,.24l-.03,.17v.4l.27,.64c.29,.11,.47,.17,.54,.17h.2c.37,0,.6-.26,.71-.77,0-.17-.17-.27-.51-.3-.02-.05-.04-.17-.06-.37,.03,0,.07-.07,.13-.2,.04,.02,.08,.04,.1,.04,.28-.02,.42-.04,.44-.04l.07,.04,.2-.07c.18,.02,.27,.04,.27,.07l.07-.04c.31,.06,.47,.2,.47,.44-.04,.09-.22,.2-.54,.34l-.24,.63v.54s.02,.04,.07,.1v.03s-.04,.08-.13,.14l-.3-.17h-.03l-.6,.2c-.13,0-.22,.02-.27,.06h-.17c-.1,0-.23-.08-.4-.24-.17,0-.33-.32-.47-.97l-.13-.27v-.23c-.07-.29-.1-.56-.1-.81,.05,0,.07-.02,.07-.06v-.61c.11-.57,.29-1,.54-1.31,.31-.2,.54-.3,.7-.3Z"/>
    <path class="cls-5" d="M13.53,182.47c.3,0,.6,.22,.91,.67,.1,0,.25,.38,.44,1.14,0,.06,.02,.11,.06,.17v.3c0,.06-.02,.13-.06,.2,.07,.11,.1,.2,.1,.27v.07s-.04,.19-.13,.54l.03,.07c-.11,.2-.18,.46-.2,.77-.31,.49-.59,.74-.84,.74h-.24c-.09,.07-.19,.1-.3,.1h-.2c-.57-.27-.92-.56-1.04-.87,0-.04-.08-.26-.23-.64v-.1c-.02-.51-.08-.77-.17-.77l.03-.23v-.57c.09-.11,.19-.4,.3-.87,.28-.5,.62-.83,1-.97h.54Zm-1.24,2.52c-.05,.16-.07,.25-.07,.27v.6c.28,.65,.53,.97,.77,.97,0,.02,.01,.03,.03,.03h.57c.49-.38,.74-.69,.74-.94,.13-.17,.23-.6,.3-1.28-.13-.37-.22-.67-.27-.91-.03,0-.12-.09-.27-.27-.05,0-.07,0-.07-.03l-.06,.03c-.17-.12-.37-.24-.6-.33-.04,.02-.08,.03-.13,.03l-.07-.03c-.19,0-.48,.28-.87,.84v1Z"/>
    <path class="cls-5" d="M16.51,182.39s.11,.04,.27,.13c.23-.02,.41-.03,.54-.03h.07c.12,0,.35,.18,.7,.54,0,.1,.12,.43,.37,1.01,.02,.37,.03,.72,.03,1.07v.4c-.1,.15-.23,.46-.4,.91-.12,.23-.36,.4-.7,.51-.04-.02-.08-.03-.1-.03,0,.04-.02,.07-.07,.07h-.4c-.08,.04-.25,.08-.5,.14-.72-.06-1.08-.14-1.08-.24v-.03c0-.18,.08-.31,.24-.4h.27c.14,0,.25-.1,.33-.3v-.33c0-.07-.01-.1-.03-.1l.03-.17v-.4c0-.14-.03-.37-.1-.7,.02-.19,.03-.35,.03-.47v-.6c0-.25-.12-.37-.37-.37-.13,0-.23-.05-.3-.14,0-.04,.09-.14,.27-.3h.6c.07,0,.17-.04,.3-.13Zm-.06,.77v.33l.06,.1s-.06,.03-.06,.07v.13c0,.2-.01,.42-.03,.67,.02,.13,.04,.2,.07,.2-.02,.11-.05,.44-.07,.97,.13,.42,.22,.64,.27,.67h.2c.56-.07,.84-.17,.84-.3,.15-.14,.25-.37,.3-.67,.03-.13,.06-.21,.1-.27v-.4c-.05-.67-.13-1-.23-1-.15-.4-.36-.61-.64-.61-.01-.07-.1-.1-.27-.1-.36,.08-.54,.14-.54,.2Z"/>
    <path class="cls-5" d="M19.86,182.63h.37c.05,.05,.26,.1,.64,.17h.1l.33-.17h.1l.1,.07h.4l.24-.03c.16,.2,.24,.35,.24,.47-.09,.08-.26,.15-.5,.2-.2,.07-.39,.27-.57,.6-.22,.07-.33,.3-.33,.67v.27c.09,.1,.2,.37,.33,.8,.07,.04,.15,.19,.23,.44,.19,.31,.43,.47,.7,.47,.05,.07,.07,.14,.07,.2v.13s-.07,.1-.2,.2h-.43c-.08,0-.18,.01-.3,.03-.1-.06-.25-.12-.47-.17-.09-.02-.13-.05-.13-.1h-.07c0,.06-.13,.14-.4,.24h-.43s-.26-.07-.7-.13l-.03-.07v-.23c0-.07,.16-.15,.47-.24,.05-.08,.07-.17,.07-.27v-.74c0-.47,.01-1.2,.03-2.18-.06-.1-.2-.15-.4-.17-.13-.1-.2-.21-.2-.34,.11-.04,.32-.07,.6-.07h.06s.05-.02,.1-.07Zm.33,2.88l.03,.07v.04c-.16,.13-.24,.38-.24,.73,0,.03,.13,.09,.4,.2,0,.14,.11,.22,.33,.24,.12,0,.24-.19,.37-.57v-.04s-.11-.27-.33-.7v-.04h.03c-.04-.1-.09-.16-.13-.17h-.33l-.13,.24Zm.5-2.61s-.06,.08-.17,.1c-.08,.13-.24,.28-.47,.44l-.03,.2v.84h.33c.15-.4,.27-.6,.33-.6,.07,0,.16-.21,.27-.64,0-.06-.06-.17-.17-.33h-.1Z"/>
    <path class="cls-5" d="M24.32,182.58h.06c.18,.07,.3,.17,.37,.3v.24c0,.06,.09,.24,.27,.54v.03l-.03,.07c.13,.31,.25,.6,.33,.87l-.03,.17v.07c.07,.33,.19,.72,.37,1.14-.02,.04-.03,.08-.03,.1,.12,.33,.29,.5,.51,.5,.13,.11,.2,.18,.2,.2-.15,.31-.25,.46-.3,.47,0-.05-.03-.07-.1-.07-.52,.02-.79,.03-.81,.03-.4-.07-.6-.15-.6-.24-.02-.04-.03-.08-.03-.1,.13-.2,.27-.3,.4-.3h.14l.03-.17v-.2c-.04-.09-.12-.13-.24-.13h-.81c-.12,0-.2,.04-.23,.13v.17c.26,.31,.4,.47,.43,.47h.03v.07c-.06,0-.22,.08-.47,.24h-.14l-.1-.07h-.2l-.2,.04-.5-.2c-.05-.09-.07-.17-.07-.23,.1-.12,.29-.21,.57-.27l.2-.67v-.27c.12-.16,.19-.35,.24-.57h.03l-.03-.07v-.1s.1-.26,.17-.67c.06,0,.12-.19,.17-.57,.13-.29,.22-.56,.27-.84l.14-.1Zm-.41-1.21c.25,.08,.37,.23,.37,.47-.16,.21-.28,.32-.33,.33h-.07c-.2-.11-.3-.27-.3-.47,.15-.22,.27-.34,.33-.34Zm.41,2.59l-.27,.97v.3c.08,.18,.14,.27,.17,.27h.37c.01-.2,.07-.3,.17-.3v-.5c-.08-.49-.15-.74-.23-.74h-.2Zm.73-2.55c.12,.13,.21,.25,.27,.37,0,.24-.17,.39-.5,.44-.13-.14-.2-.3-.2-.47v-.03c.14-.2,.29-.3,.44-.3Z"/>
    <path class="cls-5" d="M27.28,182.67c.18,.04,.27,.14,.27,.3,.3,.54,.49,.87,.57,.97,.14,.67,.29,1,.47,1,0,.02,.01,.03,.03,.03,.13-.05,.2-.13,.2-.27v-.03c0-.22-.02-.33-.06-.33l.03-.17v-.54c0-.16-.19-.36-.57-.6-.04-.09-.06-.16-.06-.2,.08-.07,.21-.1,.4-.1h.17c.05-.05,.1-.07,.13-.07,.09,.04,.36,.08,.8,.13l.07,.13c0,.15-.12,.25-.37,.3-.08,.08-.15,.21-.24,.37v.7l.07,.1v.34l-.03,.17s.07,.03,.07,.07v.17c-.05,.16-.07,.25-.07,.27v.33l.07,.1v.07c0,.15,.01,.29,.03,.4-.02,.12-.03,.25-.03,.4v.03c-.16,.25-.27,.38-.33,.4-.16-.2-.28-.3-.33-.3l-.24-.57s-.13-.33-.27-.97c-.13-.06-.2-.32-.2-.77-.02-.27-.12-.4-.3-.4h-.03s-.06,.03-.1,.1c0,.09,.01,.22,.03,.37-.02,.16-.03,.25-.03,.27,.02,.17,.03,.35,.03,.54,.04,0,.06,.03,.06,.07v.4c0,.25,.13,.42,.4,.5l.13,.03v.27c0,.25-.2,.39-.6,.43,0-.04-.02-.07-.07-.07h-.57c-.22-.03-.33-.18-.33-.44v-.07l.47-.4c.08-.44,.13-.69,.17-.74v-.17c-.05-.05-.07-.1-.07-.14,.05-.07,.07-.14,.07-.2v-.23l-.07-.1v-.33s.02-.11,.07-.27v-.07c-.05-.49-.16-.74-.33-.74-.16-.13-.24-.21-.24-.24v-.06c.04-.09,.11-.13,.2-.13l.23,.03c.13-.01,.23-.04,.3-.1Z"/>
    <path class="cls-5" d="M31.23,182.39s.11,.04,.27,.13c.23-.02,.41-.03,.54-.03h.07c.12,0,.35,.18,.7,.54,0,.1,.12,.43,.37,1.01,.02,.37,.03,.72,.03,1.07v.4c-.1,.15-.23,.46-.4,.91-.12,.23-.36,.4-.7,.51-.04-.02-.08-.03-.1-.03,0,.04-.02,.07-.07,.07h-.4c-.08,.04-.25,.08-.5,.14-.72-.06-1.08-.14-1.08-.24v-.03c0-.18,.08-.31,.24-.4h.27c.14,0,.25-.1,.33-.3v-.33c0-.07-.01-.1-.03-.1l.03-.17v-.4c0-.14-.03-.37-.1-.7,.02-.19,.03-.35,.03-.47v-.6c0-.25-.12-.37-.37-.37-.13,0-.23-.05-.3-.14,0-.04,.09-.14,.27-.3h.6c.07,0,.17-.04,.3-.13Zm-.06,.77v.33l.06,.1s-.06,.03-.06,.07v.13c0,.2-.01,.42-.03,.67,.02,.13,.04,.2,.07,.2-.02,.11-.05,.44-.07,.97,.13,.42,.22,.64,.27,.67h.2c.56-.07,.84-.17,.84-.3,.15-.14,.25-.37,.3-.67,.03-.13,.06-.21,.1-.27v-.4c-.05-.67-.13-1-.23-1-.15-.4-.36-.61-.64-.61-.01-.07-.1-.1-.27-.1-.36,.08-.54,.14-.54,.2Z"/>
    <path class="cls-5" d="M36.83,182.55c.23,.07,.34,.13,.34,.2,.04,.03,.07,.18,.1,.43,.15,.18,.26,.43,.33,.74,.22,.31,.33,.7,.33,1.18,.25,.48,.39,.87,.44,1.17,.08,.16,.14,.24,.17,.24,.31,.04,.47,.09,.47,.17-.1,.23-.17,.38-.23,.44-.12-.02-.21-.03-.27-.03-.34,0-.56,.03-.67,.1l-.57-.13c-.05-.09-.1-.13-.17-.13v-.03c.07-.14,.26-.26,.57-.37l.06-.1v-.14c0-.16-.09-.23-.27-.23h-.5c-.38,.04-.57,.14-.57,.3v.07s.14,.17,.43,.4c.02,.04,.03,.08,.03,.1-.17,.13-.29,.2-.37,.2h-.5c-.06,0-.13,.02-.2,.07l-.27-.13-.07,.04c-.13-.06-.2-.16-.2-.3,.08-.12,.22-.2,.44-.24,.08,0,.14-.13,.17-.4l.13-.3v-.17c.2-.91,.3-1.42,.3-1.54,.03,0,.07-.03,.1-.1v-.2c0-.1,.02-.19,.06-.27-.02,0-.03-.01-.03-.03,.02,0,.09-.18,.2-.54v-.24s.07-.1,.2-.2Zm-.2,2.38v.13c.13,.29,.23,.44,.3,.44h.2s.11-.09,.23-.27c-.02-.35-.03-.61-.03-.77-.05,0-.1-.16-.17-.47l-.14-.1h-.1c-.06,0-.12,.2-.17,.6-.03,0-.08,.15-.13,.44Z"/>
    <path class="cls-5" d="M41.23,182.58l.17,.03h.5l.06-.03c.09,.09,.14,.18,.14,.27,0,.21-.12,.35-.37,.43-.1,0-.17,.04-.2,.13v.1c0,.27-.08,.57-.24,.91v.07c0,.35-.04,.58-.13,.7v.2c0,.51-.16,1.07-.47,1.68l-.07,.03c-.17,0-.31-.32-.4-.97l-.54-2.55c0-.05-.17-.26-.5-.6,0-.25,.11-.37,.33-.37l.07,.03c.23-.02,.41-.03,.54-.03h.03s.13,.1,.27,.3h.07v.03c-.27,.36-.4,.59-.4,.7v.1c.1,.16,.19,.46,.27,.91,.06,.27,.1,.4,.14,.4h.23c.16-.13,.24-.41,.24-.84,.05,0,.09-.1,.1-.3-.04,0-.06-.02-.06-.07l.06-.1-.03-.07,.03-.07c-.05-.17-.17-.39-.37-.64v-.03c.09,0,.13-.06,.13-.17l.4-.2Z"/>
    <path class="cls-5" d="M45.31,182.55c.23,.07,.34,.13,.34,.2,.04,.03,.07,.18,.1,.43,.15,.18,.26,.43,.33,.74,.22,.31,.33,.7,.33,1.18,.25,.48,.39,.87,.44,1.17,.08,.16,.14,.24,.17,.24,.31,.04,.47,.09,.47,.17-.1,.23-.17,.38-.23,.44-.12-.02-.21-.03-.27-.03-.34,0-.56,.03-.67,.1l-.57-.13c-.05-.09-.1-.13-.17-.13v-.03c.07-.14,.26-.26,.57-.37l.06-.1v-.14c0-.16-.09-.23-.27-.23h-.5c-.38,.04-.57,.14-.57,.3v.07s.14,.17,.43,.4c.02,.04,.03,.08,.03,.1-.17,.13-.29,.2-.37,.2h-.5c-.06,0-.13,.02-.2,.07l-.27-.13-.07,.04c-.13-.06-.2-.16-.2-.3,.08-.12,.22-.2,.44-.24,.08,0,.14-.13,.17-.4l.13-.3v-.17c.2-.91,.3-1.42,.3-1.54,.03,0,.07-.03,.1-.1v-.2c0-.1,.02-.19,.06-.27-.02,0-.03-.01-.03-.03,.02,0,.09-.18,.2-.54v-.24s.07-.1,.2-.2Zm-.2,2.38v.13c.13,.29,.23,.44,.3,.44h.2s.11-.09,.23-.27c-.02-.35-.03-.61-.03-.77-.05,0-.1-.16-.17-.47l-.14-.1h-.1c-.06,0-.12,.2-.17,.6-.03,0-.08,.15-.13,.44Z"/>
    <path class="cls-5" d="M48.81,182.63l.2,.1h.34c.13,0,.2,.05,.23,.17,0,.18-.14,.3-.43,.37h-.27v.23s-.03,.07-.1,.1c.02,.45,.03,.78,.03,1v1.27c.09,.31,.21,.47,.33,.47,.05,0,.11,.02,.17,.07h.5c.29,0,.44-.27,.44-.8h.03l-.03-.07,.06-.1v-.23h.07c.16,.23,.24,.48,.24,.77v.3l.06,.1v.1c-.11,.29-.26,.48-.43,.57-.07,0-.1,.01-.1,.03l-.17-.03h-1.04c-.13,.05-.2,.08-.2,.1l-.24-.03h-.33c-.34-.11-.52-.22-.54-.33v-.03c0-.2,.12-.3,.37-.3,.18-.04,.33-.14,.44-.3l-.03-.07c.04-.07,.06-.14,.06-.2v-.54c0-.06-.02-.13-.06-.2,.04-.09,.06-.21,.06-.37v-.94c0-.4-.22-.6-.67-.6-.04-.07-.06-.14-.06-.2,0-.25,.16-.37,.47-.37h.47c.05,0,.1-.01,.14-.04Z"/>
    <path class="cls-5" d="M52.21,182.63l.2,.1h.34c.13,0,.2,.05,.23,.17,0,.18-.14,.3-.43,.37h-.27v.23s-.03,.07-.1,.1c.02,.45,.03,.78,.03,1v1.27c.09,.31,.21,.47,.33,.47,.05,0,.11,.02,.17,.07h.5c.29,0,.44-.27,.44-.8h.03l-.03-.07,.06-.1v-.23h.07c.16,.23,.24,.48,.24,.77v.3l.06,.1v.1c-.11,.29-.26,.48-.43,.57-.07,0-.1,.01-.1,.03l-.17-.03h-1.04c-.13,.05-.2,.08-.2,.1l-.24-.03h-.33c-.34-.11-.52-.22-.54-.33v-.03c0-.2,.12-.3,.37-.3,.18-.04,.33-.14,.44-.3l-.03-.07c.04-.07,.06-.14,.06-.2v-.54c0-.06-.02-.13-.06-.2,.04-.09,.06-.21,.06-.37v-.94c0-.4-.22-.6-.67-.6-.04-.07-.06-.14-.06-.2,0-.25,.16-.37,.47-.37h.47c.05,0,.1-.01,.14-.04Z"/>
    <path class="cls-5" d="M56.54,182.45c.69,.07,1.04,.23,1.04,.47,.02,0,.03,.01,.03,.03l-.07,.1v.63c0,.29-.06,.49-.17,.61,0-.04-.08-.09-.23-.13l.03-.24v-.47c-.07-.16-.17-.27-.3-.33l-.06-.04h-.24l-.2,.17h-.03c-.12-.11-.22-.17-.3-.17-.17,0-.31,.09-.4,.27v.5c.05,.16,.07,.25,.07,.27v.2h.37c.11-.07,.22-.28,.33-.64,.05,0,.14,.09,.27,.27v1.31l.07,.23c-.05,.14-.12,.28-.24,.4,0,.02-.01,.04-.03,.04-.08-.02-.16-.11-.23-.27v-.23c0-.2-.09-.3-.27-.3h-.17s-.09,.05-.17,.17v.27c.07,.2,.1,.31,.1,.33v.04l-.07,.1v.03c0,.12,.06,.21,.17,.27h.2c.05-.04,.19-.09,.43-.14,.03-.09,.07-.13,.1-.13h.3c.2,0,.33-.13,.4-.4,.05,0,.07-.08,.07-.23v-.24s.03-.07,.1-.1h.03c.07,.03,.14,.12,.2,.27l.06,.03-.03,.17v.13l.03,.24s-.08,.12-.1,.37c.02,.12,.03,.22,.03,.3v.17c-.08,.18-.3,.27-.67,.27-.07-.05-.14-.07-.2-.07h-.34s-.11,.02-.27,.07c-.1,0-.2-.02-.3-.07-.25,.02-.46,.03-.64,.03h-.33c-.21-.04-.37-.13-.5-.27,0-.17,.12-.32,.37-.47h.33c.11-.05,.17-.16,.17-.33,0-.39-.01-.64-.03-.74,.02-.25,.03-.54,.03-.87v-.81c0-.2-.11-.3-.33-.3-.1,0-.25-.09-.44-.27,0-.16,.12-.28,.37-.33,.16-.04,.28-.09,.33-.13,.02,.07,.09,.1,.2,.1h.27c.15,0,.23-.02,.23-.07l.17,.03h.27l.17-.1Z"/>
    <path class="cls-5" d="M60.51,182.46h.27c.16,0,.38,.1,.67,.3-.04,0-.11,.11-.2,.33-.04,0-.09,.03-.17,.1h-.03l-.07-.03c-.11,.07-.17,.13-.17,.2-.18,.18-.37,.58-.57,1.18v.07c.1,.1,.29,.46,.57,1.1,.23,.27,.45,.44,.64,.51,.07,.15,.1,.31,.1,.5,0,.13-.13,.29-.4,.47h-.03c-.06-.04-.09-.06-.1-.06h-.3s-.2-.08-.47-.1c-.18-.15-.27-.28-.27-.37,.13-.21,.2-.34,.2-.4v-.34c-.11-.15-.18-.23-.2-.23h-.33c-.07,0-.14,.22-.24,.67,.05,.07,.07,.14,.07,.2v.03c0,.18-.05,.27-.14,.27-.42,0-.67,.04-.77,.13h-.03c-.22-.11-.33-.27-.33-.47,.15-.29,.32-.44,.5-.44,.16,0,.31-.21,.44-.64,.05,0,.2-.28,.43-.84v-.2c-.15-.22-.25-.45-.3-.67-.14-.27-.26-.4-.33-.4-.09-.04-.18-.16-.27-.37h-.06l.06-.1v-.03c-.11,0-.17-.02-.17-.06l.54-.27h.24c.12,.09,.22,.14,.3,.14h.7l.24-.17Zm-.94,.67c.02,.27,.08,.4,.17,.4h.27c.11,0,.17-.17,.17-.5,0-.04-.02-.06-.07-.06h-.37s-.09,.06-.17,.17Z"/>
  </g>
  <g>
    <path class="cls-5" d="M112.45,182.55c.23,.07,.34,.13,.34,.2,.04,.03,.07,.18,.1,.43,.15,.18,.26,.43,.33,.74,.22,.31,.33,.7,.33,1.18,.25,.48,.39,.87,.44,1.17,.08,.16,.14,.24,.17,.24,.31,.04,.47,.09,.47,.17-.1,.23-.17,.38-.23,.44-.12-.02-.21-.03-.27-.03-.34,0-.56,.03-.67,.1l-.57-.13c-.04-.09-.1-.13-.17-.13v-.03c.07-.14,.26-.26,.57-.37l.07-.1v-.14c0-.15-.09-.23-.27-.23h-.5c-.38,.04-.57,.14-.57,.3v.07s.14,.17,.43,.4c.02,.04,.03,.08,.03,.1-.17,.13-.29,.2-.37,.2h-.5c-.06,0-.13,.02-.2,.07l-.27-.13-.07,.03c-.13-.06-.2-.16-.2-.3,.08-.12,.22-.2,.44-.24,.08,0,.14-.13,.17-.4l.13-.3v-.17c.2-.9,.3-1.42,.3-1.54,.03,0,.07-.03,.1-.1v-.2c0-.1,.02-.19,.06-.27-.02,0-.03-.01-.03-.03,.02,0,.09-.18,.2-.54v-.24s.07-.1,.2-.2Zm-.2,2.38v.13c.13,.29,.23,.44,.3,.44h.2s.11-.09,.23-.27c-.02-.35-.03-.61-.03-.77-.04,0-.1-.16-.17-.47l-.14-.1h-.1c-.06,0-.12,.2-.17,.6-.03,0-.08,.15-.13,.44Z"/>
    <path class="cls-5" d="M115.95,182.63l.2,.1h.34c.13,0,.2,.06,.23,.17,0,.18-.14,.3-.43,.37h-.27v.23s-.03,.07-.1,.1c.02,.45,.03,.78,.03,1.01v1.27c.09,.31,.21,.47,.33,.47,.05,0,.11,.02,.17,.07h.5c.29,0,.44-.27,.44-.8h.03l-.03-.07,.06-.1v-.23h.07c.16,.23,.24,.48,.24,.77v.3l.06,.1v.1c-.11,.29-.26,.48-.43,.57-.07,0-.1,.01-.1,.03l-.17-.03h-1.04c-.13,.05-.2,.08-.2,.1l-.24-.03h-.33c-.34-.11-.52-.22-.54-.34v-.03c0-.2,.12-.3,.37-.3,.18-.04,.33-.14,.44-.3l-.03-.07c.04-.07,.06-.14,.06-.2v-.54c0-.06-.02-.13-.06-.2,.04-.09,.06-.21,.06-.37v-.94c0-.4-.22-.6-.67-.6-.04-.07-.06-.14-.06-.2,0-.25,.16-.37,.47-.37h.47s.1-.01,.14-.03Z"/>
    <path class="cls-5" d="M119.63,182.55c.23,.07,.34,.13,.34,.2,.04,.03,.07,.18,.1,.43,.15,.18,.26,.43,.33,.74,.22,.31,.33,.7,.33,1.18,.25,.48,.39,.87,.44,1.17,.08,.16,.14,.24,.17,.24,.31,.04,.47,.09,.47,.17-.1,.23-.17,.38-.23,.44-.12-.02-.21-.03-.27-.03-.34,0-.56,.03-.67,.1l-.57-.13c-.05-.09-.1-.13-.17-.13v-.03c.07-.14,.26-.26,.57-.37l.06-.1v-.14c0-.15-.09-.23-.27-.23h-.5c-.38,.04-.57,.14-.57,.3v.07s.14,.17,.43,.4c.02,.04,.03,.08,.03,.1-.17,.13-.29,.2-.37,.2h-.5c-.06,0-.13,.02-.2,.07l-.27-.13-.07,.03c-.13-.06-.2-.16-.2-.3,.08-.12,.22-.2,.44-.24,.08,0,.14-.13,.17-.4l.13-.3v-.17c.2-.9,.3-1.42,.3-1.54,.03,0,.07-.03,.1-.1v-.2c0-.1,.02-.19,.07-.27-.02,0-.03-.01-.03-.03,.02,0,.09-.18,.2-.54v-.24s.07-.1,.2-.2Zm-.2,2.38v.13c.13,.29,.23,.44,.3,.44h.2s.11-.09,.23-.27c-.02-.35-.03-.61-.03-.77-.05,0-.1-.16-.17-.47l-.14-.1h-.1c-.06,0-.12,.2-.17,.6-.03,0-.08,.15-.13,.44Z"/>
    <path class="cls-5" d="M122.76,182.67c.18,.04,.27,.14,.27,.3,.3,.54,.49,.87,.57,.97,.14,.67,.29,1,.47,1,0,.02,.01,.04,.03,.04,.13-.05,.2-.13,.2-.27v-.03c0-.22-.02-.34-.07-.34l.03-.17v-.54c0-.16-.19-.36-.57-.61-.04-.09-.06-.16-.06-.2,.08-.07,.21-.1,.4-.1h.17c.05-.04,.1-.07,.13-.07,.09,.04,.36,.08,.8,.13l.07,.13c0,.15-.12,.25-.37,.3-.08,.08-.15,.21-.24,.37v.71l.07,.1v.33l-.03,.17s.07,.03,.07,.07v.17c-.05,.16-.07,.25-.07,.27v.33l.07,.1v.07c0,.15,.01,.29,.03,.4-.02,.12-.03,.25-.03,.4v.04c-.16,.25-.27,.38-.33,.4-.16-.2-.28-.3-.33-.3l-.24-.57s-.13-.32-.27-.97c-.13-.06-.2-.31-.2-.77-.02-.27-.12-.4-.3-.4h-.03s-.06,.03-.1,.1c0,.09,.01,.22,.03,.37-.02,.16-.03,.25-.03,.27,.02,.17,.03,.35,.03,.54,.04,0,.06,.03,.06,.06v.4c0,.25,.13,.42,.4,.5l.13,.03v.27c0,.25-.2,.39-.6,.43,0-.04-.02-.07-.07-.07h-.57c-.22-.03-.33-.18-.33-.44v-.07l.47-.4c.08-.45,.13-.69,.17-.74v-.17c-.05-.05-.07-.1-.07-.14,.04-.07,.07-.14,.07-.2v-.23l-.07-.1v-.33s.02-.11,.07-.27v-.07c-.05-.49-.16-.74-.33-.74-.16-.13-.24-.21-.24-.24v-.07c.04-.09,.11-.13,.2-.13l.23,.03c.13-.01,.23-.04,.3-.1Z"/>
    <path class="cls-5" d="M127.07,182.37l.1,.07h.7c.22,.08,.33,.28,.33,.6v.54s-.04,.08-.13,.14h-.03c-.14-.21-.31-.38-.5-.51-.04-.09-.18-.17-.44-.27h-.24c-.31,.04-.57,.17-.77,.4l-.03,.07v.24s.17,.17,.5,.47h.47c.14,.11,.34,.18,.6,.24,.33,.36,.5,.56,.5,.6,0,.06,.06,.22,.17,.47-.02,0-.03,.01-.03,.04,.04,0,.06,.03,.06,.07v.54c-.22,.56-.4,.84-.54,.84,0,.03-.08,.1-.23,.2h-.51c-.07,0-.33-.12-.8-.37-.25,0-.37-.03-.37-.1v-.23c-.07-.21-.1-.35-.1-.4,0-.01,.01-.16,.03-.44h.07c.39,.45,.61,.67,.67,.67,.19,0,.38,.07,.57,.2h.24c.45-.19,.67-.48,.67-.88l-.17-.3c-.31-.2-.51-.3-.61-.3,0-.04-.14-.07-.43-.1,0-.02-.16-.1-.47-.23,0-.03-.14-.19-.43-.47,0-.05-.07-.22-.2-.5,0-.1,.04-.21,.13-.33v-.24c.1-.31,.25-.47,.47-.47,0-.05,.11-.11,.34-.17h.3l.1-.07Z"/>
    <path class="cls-5" d="M132.62,182.35l.17,.1h.24l.1-.07c.18,.21,.27,.39,.27,.54,.02,0,.03,.01,.03,.03v.1c-.04,.16-.07,.25-.07,.27v.37s.02,.04,.07,.1v.17c0,.17-.04,.27-.14,.3h-.03s-.08-.05-.14-.17c-.02-.38-.03-.67-.03-.87-.03,0-.2-.09-.51-.27h-.37s-.2,.08-.47,.1c-.18,.17-.27,.31-.27,.4v.64c.03,.09,.13,.13,.3,.13h.24c.07-.08,.12-.36,.17-.84l.06-.03h.03s.07,.03,.07,.07l-.03,.07c.09,0,.13,.02,.13,.07v.03l-.07,.1v.14l.17,.43v.04l-.07,.1c.02,.48,.03,.76,.03,.84-.03,.47-.09,.7-.17,.7h-.03c-.09,0-.18-.27-.27-.81l-.23-.13h-.03c-.18,.06-.29,.16-.33,.3v.81s.04,.08,.13,.13h.24c.27,0,.44,.17,.5,.5-.04,.16-.14,.24-.3,.24h-.47c-.11,0-.17-.02-.17-.07l-.33,.03h-.07c-.42,0-.64-.04-.64-.13v-.27c.01-.13,.05-.2,.1-.2h.3c.22-.1,.33-.23,.33-.4v-1.21l.06-.1v-.6c0-.05,0-.1-.03-.14,.02-.04,.03-.08,.03-.13v-.13c-.04-.43-.17-.64-.37-.64-.18-.04-.27-.08-.27-.13v-.03s.03-.07,.07-.07l-.03-.07v-.03c.13,0,.26-.06,.37-.17,.41-.02,.67-.03,.8-.03,0-.04,.03-.07,.07-.07h.06c.09,.07,.19,.1,.3,.1,.07,0,.23-.04,.47-.13Z"/>
    <path class="cls-5" d="M135.82,182.45c.69,.07,1.04,.23,1.04,.47,.02,0,.03,0,.03,.03l-.07,.1v.64c0,.28-.06,.49-.17,.6,0-.04-.08-.09-.23-.13l.03-.24v-.47c-.07-.16-.17-.27-.3-.33l-.07-.03h-.24l-.2,.17h-.03c-.12-.11-.22-.17-.3-.17-.17,0-.3,.09-.4,.27v.5c.05,.16,.07,.25,.07,.27v.2h.37c.11-.07,.22-.28,.33-.64,.05,0,.14,.09,.27,.27v1.31l.07,.23c-.04,.14-.12,.28-.24,.4,0,.02-.01,.03-.03,.03-.08-.02-.16-.11-.23-.27v-.23c0-.2-.09-.3-.27-.3h-.17s-.09,.06-.17,.17v.27c.07,.2,.1,.31,.1,.33v.03l-.07,.1v.03c0,.12,.06,.21,.17,.27h.2c.05-.05,.2-.09,.43-.14,.03-.09,.07-.13,.1-.13h.3c.2,0,.33-.13,.4-.4,.04,0,.07-.08,.07-.23v-.24s.03-.06,.1-.1h.03c.07,.03,.14,.12,.2,.27l.06,.03-.03,.17v.13l.03,.24s-.08,.12-.1,.37c.02,.12,.03,.22,.03,.3v.17c-.08,.18-.3,.27-.67,.27-.07-.04-.14-.07-.2-.07h-.34s-.11,.02-.27,.07c-.1,0-.2-.02-.3-.07-.25,.02-.46,.03-.64,.03h-.33c-.21-.04-.37-.13-.5-.27,0-.17,.12-.32,.37-.47h.33c.11-.05,.17-.16,.17-.33,0-.39-.01-.64-.03-.74,.02-.25,.03-.54,.03-.87v-.81c0-.2-.11-.3-.33-.3-.1,0-.25-.09-.44-.27,0-.16,.12-.28,.37-.33,.16-.04,.28-.09,.33-.13,.02,.07,.09,.1,.2,.1h.27c.16,0,.23-.02,.23-.07l.17,.04h.27l.17-.1Z"/>
    <path class="cls-5" d="M139.6,182.45c.69,.07,1.04,.23,1.04,.47,.02,0,.03,0,.03,.03l-.07,.1v.64c0,.28-.06,.49-.17,.6,0-.04-.08-.09-.23-.13l.03-.24v-.47c-.07-.16-.17-.27-.3-.33l-.07-.03h-.24l-.2,.17h-.03c-.12-.11-.22-.17-.3-.17-.17,0-.3,.09-.4,.27v.5c.05,.16,.07,.25,.07,.27v.2h.37c.11-.07,.22-.28,.33-.64,.05,0,.14,.09,.27,.27v1.31l.07,.23c-.04,.14-.12,.28-.24,.4,0,.02-.01,.03-.03,.03-.08-.02-.16-.11-.23-.27v-.23c0-.2-.09-.3-.27-.3h-.17s-.09,.06-.17,.17v.27c.07,.2,.1,.31,.1,.33v.03l-.07,.1v.03c0,.12,.06,.21,.17,.27h.2c.05-.05,.2-.09,.43-.14,.03-.09,.07-.13,.1-.13h.3c.2,0,.33-.13,.4-.4,.04,0,.07-.08,.07-.23v-.24s.03-.06,.1-.1h.03c.07,.03,.14,.12,.2,.27l.06,.03-.03,.17v.13l.03,.24s-.08,.12-.1,.37c.02,.12,.03,.22,.03,.3v.17c-.08,.18-.3,.27-.67,.27-.07-.04-.14-.07-.2-.07h-.34s-.11,.02-.27,.07c-.1,0-.2-.02-.3-.07-.25,.02-.46,.03-.64,.03h-.33c-.21-.04-.37-.13-.5-.27,0-.17,.12-.32,.37-.47h.33c.11-.05,.17-.16,.17-.33,0-.39-.01-.64-.03-.74,.02-.25,.03-.54,.03-.87v-.81c0-.2-.11-.3-.33-.3-.1,0-.25-.09-.44-.27,0-.16,.12-.28,.37-.33,.16-.04,.28-.09,.33-.13,.02,.07,.09,.1,.2,.1h.27c.16,0,.23-.02,.23-.07l.17,.04h.27l.17-.1Z"/>
    <path class="cls-5" d="M142.53,182.39s.11,.04,.27,.13c.23-.02,.41-.04,.54-.04h.07c.12,0,.35,.18,.7,.54,0,.1,.12,.43,.37,1.01,.02,.37,.03,.72,.03,1.07v.4c-.1,.15-.23,.45-.4,.91-.12,.23-.36,.4-.7,.51-.04-.02-.08-.03-.1-.03,0,.04-.02,.06-.07,.06h-.4c-.08,.04-.25,.08-.5,.14-.72-.06-1.08-.14-1.08-.24v-.03c0-.18,.08-.31,.24-.4h.27c.14,0,.25-.1,.33-.3v-.33c0-.07-.01-.1-.03-.1l.03-.17v-.4c0-.14-.03-.37-.1-.71,.02-.19,.03-.35,.03-.47v-.6c0-.25-.12-.37-.37-.37-.13,0-.23-.05-.3-.14,0-.04,.09-.14,.27-.3h.6c.07,0,.17-.04,.3-.13Zm-.06,.77v.33l.06,.1s-.06,.03-.06,.07v.13c0,.2-.01,.42-.03,.67,.02,.13,.04,.2,.07,.2-.02,.11-.05,.44-.07,.97,.13,.42,.22,.64,.27,.67h.2c.56-.07,.84-.17,.84-.3,.15-.14,.25-.37,.3-.67,.03-.13,.07-.21,.1-.27v-.4c-.05-.67-.13-1.01-.23-1.01-.15-.4-.36-.6-.64-.6-.01-.07-.1-.1-.27-.1-.36,.07-.54,.14-.54,.2Z"/>
    <path class="cls-5" d="M146.78,182.57c.63,.14,.94,.3,.94,.47,.08,.1,.19,.3,.33,.61l-.17,1.04c.2,.44,.3,.71,.3,.8h.03l-.03,.17v.2l.03,.2c-.11,.39-.31,.69-.61,.91-.28,.11-.7,.17-1.24,.17h-.24c-.09,0-.21-.01-.37-.04-.08,.05-.17,.07-.27,.07h-.24c-.22-.2-.33-.37-.33-.5,.25-.17,.47-.26,.67-.27,.2,0,.3-.39,.3-1.17-.02-.17-.03-.36-.03-.57,0-.14,.01-.31,.03-.5,0-.63-.04-.94-.13-.94l-.1-.07h-.44c-.07-.02-.1-.09-.1-.2,0-.13,.08-.2,.24-.2h.4l.1-.07c.55,0,.85-.03,.91-.1Zm-.4,2.72v.27l.07,.1v.27c.04,.29,.16,.44,.37,.44h.06c.54-.16,.81-.34,.81-.54v-.2c0-.26-.18-.45-.54-.57h-.17c-.4,.04-.6,.12-.6,.24Zm.4-1.95c-.09-.02-.17-.03-.24-.03l-.1,.13v.74c.08,.13,.18,.2,.3,.2h.24c.33-.16,.5-.27,.5-.3,0-.05,.02-.11,.07-.17v-.1c0-.29-.16-.47-.47-.54-.05,.02-.15,.04-.3,.06Z"/>
    <path class="cls-5" d="M150.15,182.55c.23,.07,.34,.13,.34,.2,.04,.03,.07,.18,.1,.43,.15,.18,.26,.43,.33,.74,.22,.31,.33,.7,.33,1.18,.25,.48,.39,.87,.44,1.17,.08,.16,.14,.24,.17,.24,.31,.04,.47,.09,.47,.17-.1,.23-.17,.38-.23,.44-.12-.02-.21-.03-.27-.03-.34,0-.56,.03-.67,.1l-.57-.13c-.04-.09-.1-.13-.17-.13v-.03c.07-.14,.26-.26,.57-.37l.07-.1v-.14c0-.15-.09-.23-.27-.23h-.5c-.38,.04-.57,.14-.57,.3v.07s.14,.17,.43,.4c.02,.04,.03,.08,.03,.1-.17,.13-.29,.2-.37,.2h-.5c-.06,0-.13,.02-.2,.07l-.27-.13-.07,.03c-.13-.06-.2-.16-.2-.3,.08-.12,.22-.2,.44-.24,.08,0,.14-.13,.17-.4l.13-.3v-.17c.2-.9,.3-1.42,.3-1.54,.03,0,.07-.03,.1-.1v-.2c0-.1,.02-.19,.06-.27-.02,0-.03-.01-.03-.03,.02,0,.09-.18,.2-.54v-.24s.07-.1,.2-.2Zm-.2,2.38v.13c.13,.29,.23,.44,.3,.44h.2s.11-.09,.23-.27c-.02-.35-.03-.61-.03-.77-.04,0-.1-.16-.17-.47l-.14-.1h-.1c-.06,0-.12,.2-.17,.6-.03,0-.08,.15-.13,.44Z"/>
    <path class="cls-5" d="M153.72,182.48h.57c.08,.07,.18,.1,.3,.1h.24c.18,.09,.27,.23,.27,.44v.27c.07,.09,.12,.27,.17,.54,.02,0,.03,.01,.03,.03v.17c-.07,.15-.14,.24-.23,.27h-.07c-.11-.05-.21-.24-.3-.57-.23-.29-.44-.44-.6-.44h-.03c-.27,.13-.51,.2-.7,.2l-.2,.6v1.11c0,.13,.08,.28,.24,.47,0,.22,.19,.41,.57,.57h.3c.36-.28,.54-.51,.54-.67h.03l-.03-.07v-.1l.13-.37h.03c.27,.12,.4,.29,.4,.54,0,.16-.08,.37-.24,.64,0,.33-.28,.63-.84,.91h-.13l-.1-.07h-.33c-.21,0-.45-.31-.7-.94-.16-.31-.27-.79-.33-1.44,0-.16,.03-.28,.1-.37v-.24c0-.29,.08-.54,.24-.74l-.03-.07c.09-.24,.21-.38,.33-.43,.08-.2,.21-.3,.37-.3,0-.02,.01-.03,.03-.03Z"/>
    <path class="cls-5" d="M156.64,182.63h.37c.05,.05,.26,.1,.64,.17h.1l.33-.17h.1l.1,.07h.4l.24-.03c.16,.2,.24,.35,.24,.47-.09,.08-.26,.15-.5,.2-.2,.07-.39,.27-.57,.61-.22,.07-.33,.3-.33,.67v.27c.09,.11,.2,.37,.33,.8,.07,.05,.15,.19,.23,.44,.19,.31,.43,.47,.7,.47,.04,.07,.07,.14,.07,.2v.13s-.07,.1-.2,.2h-.43c-.08,0-.18,.01-.3,.03-.1-.06-.25-.12-.47-.17-.09-.02-.13-.05-.13-.1h-.07c0,.06-.13,.14-.4,.24h-.43s-.26-.07-.7-.13l-.03-.07v-.23c0-.08,.16-.15,.47-.24,.05-.08,.07-.17,.07-.27v-.74c0-.47,.01-1.2,.03-2.18-.06-.1-.2-.15-.4-.17-.13-.1-.2-.21-.2-.34,.11-.04,.32-.07,.6-.07h.07s.04-.02,.1-.07Zm.33,2.88l.03,.07v.03c-.16,.13-.24,.38-.24,.73,0,.03,.13,.09,.4,.2,0,.14,.11,.22,.33,.24,.12,0,.24-.19,.37-.57v-.03s-.11-.27-.33-.7v-.03h.03c-.04-.1-.09-.16-.13-.17h-.33l-.13,.24Zm.5-2.61s-.06,.08-.17,.1c-.08,.13-.24,.28-.47,.44l-.03,.2v.84h.33c.16-.4,.27-.6,.33-.6,.07,0,.16-.21,.27-.64,0-.06-.06-.17-.17-.33h-.1Z"/>
    <path class="cls-5" d="M161.05,182.54h.14c.15,0,.23,.03,.23,.07,.02,0,.03-.01,.03-.03,.35,0,.63,.19,.84,.57,.11,0,.17,.18,.17,.54,.02,0,.03,.04,.03,.13,0,.15-.12,.44-.37,.87v.54c.11,.2,.17,.48,.17,.84,.09,.18,.25,.27,.47,.27,.18,.14,.27,.25,.27,.33-.08,.2-.19,.3-.33,.3h-.43c-.16,0-.34-.15-.54-.44v-.24c.04-.22,.07-.34,.07-.37-.11-.58-.23-.87-.37-.87h-.17c-.06,.06-.2,.11-.43,.13-.09,.17-.14,.29-.14,.34v.5c0,.29,.19,.43,.57,.43l.2,.24v.03c-.15,.17-.31,.28-.47,.33h-.44c-.08,0-.15,.03-.24,.1l-.37-.17h-.37s-.07-.04-.1-.13c0-.17,.19-.3,.57-.4,0-.04,.03-.09,.1-.17v-.07c0-.2,0-.33-.03-.4,.02-.2,.03-.36,.03-.5v-.7c.05-.06,.07-.09,.07-.1v-.07s-.03-.16-.1-.34c.02-.12,.03-.21,.03-.27,0-.6-.1-.91-.3-.91-.13-.06-.2-.1-.2-.13v-.07s.03-.07,.1-.1h.6c.16,.04,.25,.06,.27,.06h.07l.37-.17Zm.44,.51h-.84s-.08,.04-.14,.13v.4c0,.12,.03,.22,.1,.3v.03l-.07,.1v.27c.06,.11,.1,.17,.13,.17h.24c.2,.07,.31,.1,.33,.1h.17c0-.1,.12-.18,.37-.23,.11-.11,.17-.26,.17-.47,.03,0,.07-.03,.1-.1v-.24c-.16-.28-.33-.45-.51-.5l-.06,.03Z"/>
    <path class="cls-5" d="M163.7,182.54h.67c.13,.08,.27,.23,.4,.44-.05,.04-.25,.1-.6,.17-.07,.07-.1,.13-.1,.17,0,.35,.01,.71,.03,1.07l-.03,.34c.02,.25,.03,.54,.03,.87v.24c0,.28,.2,.46,.61,.54,0,.02,.01,.03,.03,.03h.4c.36-.11,.54-.33,.54-.64,.07-.31,.1-.52,.1-.6v-1.48l.03-.07-.17-.3c-.27-.18-.4-.32-.4-.44,0-.13,.09-.24,.27-.34h.03l.1,.07h.27l.1-.07h.3c.09,.06,.21,.19,.33,.4v.03s-.17,.12-.5,.3c-.02,.22-.06,.36-.1,.4v.27l.07,.24h-.03c.04,.07,.07,.13,.07,.17-.02,.07-.05,.1-.07,.1l.03,.07v.37c0,.09-.01,.18-.03,.27,.02,.09,.03,.17,.03,.27l-.03,.13,.03,.07s-.01,.03-.03,.03l.03,.24v.1c-.18,.51-.41,.85-.7,1-.04-.02-.08-.03-.1-.03-.01,.07-.1,.1-.27,.1-.48,0-.76-.12-.84-.37-.18,0-.31-.35-.4-1.04,.02-.31,.03-.58,.03-.81,0-.11-.01-.28-.03-.5l.03-.17s-.01-.11-.03-.27c.02-.16,.03-.25,.03-.27,0-.36-.16-.6-.47-.7,0-.02-.01-.04-.03-.04,0-.17,.12-.29,.37-.37Z"/>
    <path class="cls-5" d="M168.39,182.58l.17,.03h.84c.14,0,.25,.1,.34,.3,0,.04,.04,.08,.13,.13-.02,.32-.06,.56-.1,.7v.24l.07,.1v.4l-.33,.24h-.1l-.03-.17c.04-.22,.07-.34,.07-.37v-.13c-.04-.06-.11-.26-.2-.61-.06-.11-.1-.17-.13-.17h-.24c-.18,.08-.27,.13-.27,.17l-.1,.54v.03c0,.07,.06,.19,.17,.34-.08,.1-.14,.33-.2,.7,.04,0,.06,.03,.06,.07-.02,.31-.04,.48-.06,.5,.04,0,.06,.03,.06,.07v.4s.05,.08,.14,.14h.37c.12,.08,.22,.21,.3,.37,0,.18-.08,.31-.24,.37h-1.54c-.16-.07-.24-.14-.24-.2,.09-.29,.27-.44,.54-.44,.18,0,.27-.35,.27-1.04l-.03-.07s.04-.17,.06-.4l-.06-.4c.02-.23,.03-.41,.03-.54-.07-.16-.11-.37-.14-.64-.07-.04-.14-.07-.2-.07h-.06c-.31,0-.47,.16-.47,.47-.02,0-.03,.01-.03,.04,.07,.22,.1,.49,.1,.8-.06,.15-.13,.24-.2,.27h-.07s-.09-.06-.13-.17c.02-.07,.04-.1,.07-.1-.05-.08-.07-.17-.07-.27v-.5l.07-.1v-.54c0-.28,.23-.43,.7-.47h.6c.07,0,.1-.01,.1-.03Zm1.34,4.09h.03s.07,.03,.07,.07v.07h-.03s-.07-.02-.07-.07v-.07Z"/>
    <path class="cls-5" d="M171.73,182.55c.23,.07,.34,.13,.34,.2,.04,.03,.07,.18,.1,.43,.15,.18,.26,.43,.33,.74,.22,.31,.33,.7,.33,1.18,.25,.48,.39,.87,.44,1.17,.08,.16,.14,.24,.17,.24,.31,.04,.47,.09,.47,.17-.1,.23-.17,.38-.23,.44-.12-.02-.21-.03-.27-.03-.34,0-.56,.03-.67,.1l-.57-.13c-.05-.09-.1-.13-.17-.13v-.03c.07-.14,.26-.26,.57-.37l.06-.1v-.14c0-.15-.09-.23-.27-.23h-.5c-.38,.04-.57,.14-.57,.3v.07s.14,.17,.43,.4c.02,.04,.03,.08,.03,.1-.17,.13-.29,.2-.37,.2h-.5c-.06,0-.13,.02-.2,.07l-.27-.13-.07,.03c-.13-.06-.2-.16-.2-.3,.08-.12,.22-.2,.44-.24,.08,0,.14-.13,.17-.4l.13-.3v-.17c.2-.9,.3-1.42,.3-1.54,.03,0,.07-.03,.1-.1v-.2c0-.1,.02-.19,.07-.27-.02,0-.03-.01-.03-.03,.02,0,.09-.18,.2-.54v-.24s.07-.1,.2-.2Zm-.2,2.38v.13c.13,.29,.23,.44,.3,.44h.2s.11-.09,.23-.27c-.02-.35-.03-.61-.03-.77-.05,0-.1-.16-.17-.47l-.14-.1h-.1c-.06,0-.12,.2-.17,.6-.03,0-.08,.15-.13,.44Z"/>
  </g>
  <g>
    <path class="cls-5" d="M26.88,197.5h.03l.1,.06h.91c.05,0,.21,.09,.47,.27,0,.21-.12,.32-.37,.34,0,.04-.15,.07-.44,.1-.11,.06-.17,.1-.17,.14v.03c0,.12,.03,.29,.1,.51v.84c-.05,.16-.07,.25-.07,.27l.07,.23v.13s-.01,.03-.03,.03l.03,.07c-.04,.08-.11,.38-.2,.87-.29,.49-.64,.74-1.04,.74h-.27c-.19,0-.39-.17-.6-.5-.11-.25-.17-.43-.17-.54v-.3l.06-.1-.03-.07c.06-.25,.19-.44,.37-.57h.17c.22,.17,.33,.31,.33,.43,0,.13-.09,.3-.27,.5v.2c0,.18,.16,.27,.47,.27h.03c.05-.04,.16-.07,.33-.1,.1-.18,.18-.27,.24-.27v-.17c0-.09-.02-.24-.07-.44,.06,0,.12-.06,.17-.17v-1.41l-.03-.2s.03-.09,.03-.17c0-.16-.06-.26-.17-.3h-.4c-.2-.16-.3-.25-.3-.27v-.2c.05-.11,.29-.2,.7-.27Z"/>
    <path class="cls-5" d="M29.73,197.52c.23,.07,.34,.13,.34,.2,.04,.03,.07,.18,.1,.43,.15,.18,.26,.43,.33,.74,.22,.31,.33,.7,.33,1.18,.25,.48,.39,.87,.44,1.17,.08,.16,.14,.24,.17,.24,.31,.04,.47,.09,.47,.17-.1,.23-.17,.38-.23,.44-.12-.02-.21-.03-.27-.03-.34,0-.56,.03-.67,.1l-.57-.13c-.05-.09-.1-.13-.17-.13v-.03c.07-.14,.26-.26,.57-.37l.06-.1v-.14c0-.15-.09-.23-.27-.23h-.5c-.38,.04-.57,.14-.57,.3v.07s.14,.17,.43,.4c.02,.04,.03,.08,.03,.1-.17,.13-.29,.2-.37,.2h-.5c-.06,0-.13,.02-.2,.07l-.27-.13-.07,.03c-.13-.06-.2-.16-.2-.3,.08-.12,.22-.2,.44-.24,.08,0,.14-.13,.17-.4l.13-.3v-.17c.2-.9,.3-1.42,.3-1.54,.03,0,.07-.03,.1-.1v-.2c0-.1,.02-.19,.06-.27-.02,0-.03-.01-.03-.03,.02,0,.09-.18,.2-.54v-.24s.07-.1,.2-.2Zm-.2,2.38v.13c.13,.29,.23,.44,.3,.44h.2s.11-.09,.23-.27c-.02-.35-.03-.61-.03-.77-.05,0-.1-.16-.17-.47l-.14-.1h-.1c-.06,0-.12,.2-.17,.6-.03,0-.08,.15-.13,.44Z"/>
  </g>
  <g>
    <path class="cls-5" d="M59.13,197.62c.18,.04,.27,.14,.27,.3,.3,.54,.49,.87,.57,.97,.14,.67,.29,1.01,.47,1.01,0,.02,.01,.03,.03,.03,.13-.04,.2-.13,.2-.27v-.04c0-.22-.02-.33-.06-.33l.03-.17v-.54c0-.16-.19-.36-.57-.6-.04-.09-.06-.16-.06-.2,.08-.07,.21-.1,.4-.1h.17c.05-.05,.1-.07,.13-.07,.09,.04,.36,.08,.8,.13l.07,.13c0,.15-.12,.25-.37,.3-.08,.08-.15,.21-.24,.37v.7l.07,.1v.33l-.03,.17s.07,.03,.07,.07v.17c-.05,.16-.07,.25-.07,.27v.34l.07,.1v.07c0,.15,.01,.29,.03,.4-.02,.12-.03,.25-.03,.4v.03c-.16,.25-.27,.38-.33,.4-.16-.2-.28-.3-.33-.3l-.24-.57s-.13-.33-.27-.97c-.13-.06-.2-.32-.2-.77-.02-.27-.12-.4-.3-.4h-.03s-.06,.03-.1,.1c0,.09,.01,.22,.03,.37-.02,.16-.03,.25-.03,.27,.02,.17,.03,.35,.03,.54,.04,0,.06,.03,.06,.07v.4c0,.25,.13,.42,.4,.5l.13,.04v.27c0,.25-.2,.39-.6,.43,0-.04-.02-.06-.07-.06h-.57c-.22-.03-.33-.18-.33-.44v-.07l.47-.4c.08-.44,.13-.69,.17-.74v-.17c-.05-.05-.07-.1-.07-.14,.05-.07,.07-.14,.07-.2v-.23l-.07-.1v-.34s.02-.11,.07-.27v-.07c-.05-.49-.16-.74-.33-.74-.16-.13-.24-.21-.24-.24v-.06c.04-.09,.11-.13,.2-.13l.23,.03c.13-.01,.23-.04,.3-.1Z"/>
    <path class="cls-5" d="M63.92,197.4c.69,.07,1.04,.23,1.04,.47,.02,0,.03,.01,.03,.03l-.07,.1v.64c0,.29-.06,.49-.17,.61,0-.05-.08-.09-.23-.13l.03-.24v-.47c-.07-.16-.17-.27-.3-.33l-.06-.03h-.24l-.2,.17h-.03c-.12-.11-.22-.17-.3-.17-.17,0-.31,.09-.4,.27v.5c.05,.16,.07,.25,.07,.27v.2h.37c.11-.07,.22-.28,.33-.64,.05,0,.14,.09,.27,.27v1.31l.07,.23c-.05,.14-.12,.28-.24,.4,0,.02-.01,.03-.03,.03-.08-.02-.16-.11-.23-.27v-.23c0-.2-.09-.3-.27-.3h-.17s-.09,.06-.17,.17v.27c.07,.2,.1,.31,.1,.33v.03l-.07,.1v.04c0,.12,.06,.21,.17,.27h.2c.05-.04,.19-.09,.43-.14,.03-.09,.07-.13,.1-.13h.3c.2,0,.33-.13,.4-.4,.05,0,.07-.08,.07-.23v-.24s.03-.07,.1-.1h.03c.07,.03,.14,.12,.2,.27l.06,.04-.03,.17v.13l.03,.24s-.08,.12-.1,.37c.02,.12,.03,.22,.03,.3v.17c-.08,.18-.3,.27-.67,.27-.07-.05-.14-.07-.2-.07h-.34s-.11,.02-.27,.07c-.1,0-.2-.02-.3-.07-.25,.02-.46,.03-.64,.03h-.33c-.21-.04-.37-.13-.5-.27,0-.17,.12-.33,.37-.47h.33c.11-.05,.17-.16,.17-.33,0-.39-.01-.64-.03-.74,.02-.25,.03-.54,.03-.87v-.81c0-.2-.11-.3-.33-.3-.1,0-.25-.09-.44-.27,0-.16,.12-.28,.37-.33,.16-.04,.28-.09,.33-.13,.02,.07,.09,.1,.2,.1h.27c.15,0,.23-.02,.23-.07l.17,.03h.27l.17-.1Z"/>
    <path class="cls-5" d="M67.28,197.49h.03l.1,.07h.91c.05,0,.21,.09,.47,.27,0,.21-.12,.32-.37,.33,0,.04-.15,.07-.44,.1-.11,.06-.17,.11-.17,.14v.03c0,.12,.03,.29,.1,.51v.84c-.05,.16-.07,.25-.07,.27l.07,.23v.13s-.01,.03-.03,.03l.03,.07c-.04,.08-.11,.38-.2,.87-.29,.49-.64,.74-1.04,.74h-.27c-.19,0-.39-.17-.6-.5-.11-.25-.17-.43-.17-.54v-.3l.06-.1-.03-.07c.06-.25,.19-.44,.37-.57h.17c.22,.17,.33,.31,.33,.43,0,.13-.09,.3-.27,.5v.2c0,.18,.16,.27,.47,.27h.03c.05-.04,.16-.08,.33-.1,.1-.18,.18-.27,.24-.27v-.17c0-.09-.02-.24-.07-.44,.06,0,.12-.06,.17-.17v-1.41l-.03-.2s.03-.09,.03-.17c0-.16-.06-.26-.17-.3h-.4c-.2-.15-.3-.24-.3-.27v-.2c.05-.11,.29-.2,.7-.27Z"/>
  </g>
  <g>
    <path class="cls-5" d="M28.06,211.65l.17,.03h.5l.06-.03c.09,.09,.14,.18,.14,.27,0,.21-.12,.35-.37,.43-.1,0-.17,.04-.2,.13v.1c0,.27-.08,.57-.24,.91v.06c0,.35-.04,.58-.13,.7v.2c0,.51-.16,1.06-.47,1.68l-.07,.03c-.17,0-.31-.33-.4-.97l-.54-2.55c0-.05-.17-.25-.5-.6,0-.25,.11-.37,.33-.37l.07,.04c.23-.02,.41-.04,.54-.04h.03s.13,.1,.27,.3h.07v.04c-.27,.36-.4,.59-.4,.7v.1c.1,.16,.19,.46,.27,.91,.06,.27,.1,.4,.14,.4h.23c.16-.13,.24-.41,.24-.84,.05,0,.09-.1,.1-.3-.04,0-.06-.02-.06-.07l.06-.1-.03-.06,.03-.07c-.05-.17-.17-.39-.37-.64v-.03c.09,0,.13-.06,.13-.17l.4-.2Z"/>
    <path class="cls-5" d="M31.07,211.52c.69,.07,1.04,.23,1.04,.47,.02,0,.03,0,.03,.03l-.07,.1v.64c0,.28-.06,.49-.17,.6,0-.04-.08-.09-.23-.13l.03-.24v-.47c-.07-.16-.17-.27-.3-.33l-.06-.03h-.24l-.2,.17h-.03c-.12-.11-.22-.17-.3-.17-.17,0-.31,.09-.4,.27v.5c.05,.16,.07,.25,.07,.27v.2h.37c.11-.07,.22-.28,.33-.64,.05,0,.14,.09,.27,.27v1.31l.07,.23c-.05,.14-.12,.28-.24,.4,0,.02-.01,.03-.03,.03-.08-.02-.16-.11-.23-.27v-.23c0-.2-.09-.3-.27-.3h-.17s-.09,.06-.17,.17v.27c.07,.2,.1,.31,.1,.33v.03l-.07,.1v.03c0,.12,.06,.21,.17,.27h.2c.05-.05,.19-.09,.43-.14,.03-.09,.07-.13,.1-.13h.3c.2,0,.33-.13,.4-.4,.05,0,.07-.08,.07-.23v-.24s.03-.06,.1-.1h.03c.07,.03,.14,.12,.2,.27l.06,.03-.03,.17v.13l.03,.24s-.08,.12-.1,.37c.02,.12,.03,.22,.03,.3v.17c-.08,.18-.3,.27-.67,.27-.07-.04-.14-.07-.2-.07h-.34s-.11,.02-.27,.07c-.1,0-.2-.02-.3-.07-.25,.02-.46,.03-.64,.03h-.33c-.21-.04-.37-.13-.5-.27,0-.17,.12-.32,.37-.47h.33c.11-.05,.17-.16,.17-.33,0-.39-.01-.64-.03-.74,.02-.25,.03-.54,.03-.87v-.81c0-.2-.11-.3-.33-.3-.1,0-.25-.09-.44-.27,0-.16,.12-.28,.37-.33,.16-.04,.28-.09,.33-.13,.02,.07,.09,.1,.2,.1h.27c.15,0,.23-.02,.23-.07l.17,.04h.27l.17-.1Z"/>
    <path class="cls-5" d="M34.33,211.65l.17,.03h.84c.14,0,.25,.1,.34,.3,0,.04,.04,.08,.13,.13-.02,.32-.06,.56-.1,.7v.24l.07,.1v.4l-.33,.24h-.1l-.03-.17c.04-.22,.06-.34,.06-.37v-.13c-.04-.06-.11-.26-.2-.61-.06-.11-.1-.17-.13-.17h-.24c-.18,.08-.27,.13-.27,.17l-.1,.54v.03c0,.07,.06,.19,.17,.34-.08,.1-.14,.33-.2,.7,.04,0,.06,.03,.06,.07-.02,.31-.04,.48-.06,.5,.04,0,.06,.03,.06,.07v.4s.05,.08,.14,.14h.37c.12,.08,.22,.21,.3,.37,0,.18-.08,.31-.24,.37h-1.54c-.16-.07-.24-.14-.24-.2,.09-.29,.27-.44,.54-.44,.18,0,.27-.35,.27-1.04l-.03-.07s.04-.17,.06-.4l-.06-.4c.02-.23,.03-.41,.03-.54-.07-.16-.11-.37-.14-.64-.07-.04-.14-.07-.2-.07h-.06c-.31,0-.47,.16-.47,.47-.02,0-.03,.01-.03,.04,.07,.22,.1,.49,.1,.8-.06,.15-.13,.24-.2,.27h-.07s-.09-.06-.13-.17c.02-.07,.05-.1,.07-.1-.05-.08-.07-.17-.07-.27v-.5l.07-.1v-.54c0-.28,.23-.43,.7-.47h.6c.07,0,.1-.01,.1-.03Zm1.34,4.09h.03s.07,.03,.07,.07v.07h-.03s-.06-.02-.06-.07v-.07Z"/>
    <path class="cls-5" d="M39.67,211.54c.26,0,.44,.11,.54,.33-.09,.31-.37,.47-.84,.47-.04,.05-.06,.1-.06,.13,0,.67-.02,1.34-.07,2.01,0,.49,.11,.77,.33,.84,0,.03,.06,.08,.17,.14h.3s.08,.04,.13,.13v.07c0,.17-.16,.31-.47,.43-.55,.02-.99,.04-1.31,.04h-.13c-.18-.16-.27-.34-.27-.54,0-.09,.21-.19,.64-.3,.13-.29,.2-.54,.2-.74v-.64s.02-.11,.07-.27c0-.05-.02-.22-.07-.5,.05,0,.07-.02,.07-.07v-.07c-.07-.08-.1-.18-.1-.3v-.27c0-.08-.16-.14-.47-.17-.06-.05-.14-.19-.23-.4,0-.02,.01-.03,.03-.03l-.03-.07v-.07s.04-.08,.13-.14h.8c.18,0,.39-.01,.64-.03Z"/>
    <path class="cls-5" d="M41.29,211.74c.18,.04,.27,.14,.27,.3,.3,.54,.49,.87,.57,.97,.14,.67,.29,1,.47,1,0,.02,.01,.04,.03,.04,.13-.05,.2-.13,.2-.27v-.03c0-.22-.02-.34-.06-.34l.03-.17v-.54c0-.16-.19-.36-.57-.61-.04-.09-.06-.16-.06-.2,.08-.07,.21-.1,.4-.1h.17c.05-.04,.1-.07,.13-.07,.09,.04,.36,.08,.8,.13l.07,.13c0,.15-.12,.25-.37,.3-.08,.08-.15,.21-.24,.37v.71l.07,.1v.33l-.03,.17s.07,.03,.07,.07v.17c-.05,.16-.07,.25-.07,.27v.33l.07,.1v.07c0,.15,.01,.29,.03,.4-.02,.12-.03,.25-.03,.4v.04c-.16,.25-.27,.38-.33,.4-.16-.2-.28-.3-.33-.3l-.24-.57s-.13-.32-.27-.97c-.13-.06-.2-.31-.2-.77-.02-.27-.12-.4-.3-.4h-.03s-.06,.03-.1,.1c0,.09,.01,.22,.03,.37-.02,.16-.03,.25-.03,.27,.02,.17,.03,.35,.03,.54,.04,0,.06,.03,.06,.06v.4c0,.25,.13,.42,.4,.5l.13,.03v.27c0,.25-.2,.39-.6,.43,0-.04-.02-.07-.07-.07h-.57c-.22-.03-.33-.18-.33-.44v-.07l.47-.4c.08-.45,.13-.69,.17-.74v-.17c-.05-.05-.07-.1-.07-.14,.05-.07,.07-.14,.07-.2v-.23l-.07-.1v-.33s.02-.11,.07-.27v-.07c-.05-.49-.16-.74-.33-.74-.16-.13-.24-.21-.24-.24v-.07c.04-.09,.11-.13,.2-.13l.23,.03c.13-.01,.23-.04,.3-.1Z"/>
    <path class="cls-5" d="M45.58,211.65l.17,.03h.84c.14,0,.25,.1,.34,.3,0,.04,.04,.08,.13,.13-.02,.32-.06,.56-.1,.7v.24l.07,.1v.4l-.33,.24h-.1l-.03-.17c.04-.22,.06-.34,.06-.37v-.13c-.04-.06-.11-.26-.2-.61-.06-.11-.1-.17-.13-.17h-.24c-.18,.08-.27,.13-.27,.17l-.1,.54v.03c0,.07,.06,.19,.17,.34-.08,.1-.14,.33-.2,.7,.04,0,.06,.03,.06,.07-.02,.31-.04,.48-.06,.5,.04,0,.06,.03,.06,.07v.4s.05,.08,.14,.14h.37c.12,.08,.22,.21,.3,.37,0,.18-.08,.31-.24,.37h-1.54c-.16-.07-.24-.14-.24-.2,.09-.29,.27-.44,.54-.44,.18,0,.27-.35,.27-1.04l-.03-.07s.04-.17,.06-.4l-.06-.4c.02-.23,.03-.41,.03-.54-.07-.16-.11-.37-.14-.64-.07-.04-.14-.07-.2-.07h-.06c-.31,0-.47,.16-.47,.47-.02,0-.03,.01-.03,.04,.07,.22,.1,.49,.1,.8-.06,.15-.13,.24-.2,.27h-.07s-.09-.06-.13-.17c.02-.07,.05-.1,.07-.1-.05-.08-.07-.17-.07-.27v-.5l.07-.1v-.54c0-.28,.23-.43,.7-.47h.6c.07,0,.1-.01,.1-.03Zm1.34,4.09h.03s.07,.03,.07,.07v.07h-.03s-.06-.02-.06-.07v-.07Z"/>
    <path class="cls-5" d="M49.58,211.52c.69,.07,1.04,.23,1.04,.47,.02,0,.03,0,.03,.03l-.07,.1v.64c0,.28-.06,.49-.17,.6,0-.04-.08-.09-.23-.13l.03-.24v-.47c-.07-.16-.17-.27-.3-.33l-.06-.03h-.24l-.2,.17h-.03c-.12-.11-.22-.17-.3-.17-.17,0-.31,.09-.4,.27v.5c.05,.16,.07,.25,.07,.27v.2h.37c.11-.07,.22-.28,.33-.64,.05,0,.14,.09,.27,.27v1.31l.07,.23c-.05,.14-.12,.28-.24,.4,0,.02-.01,.03-.03,.03-.08-.02-.16-.11-.23-.27v-.23c0-.2-.09-.3-.27-.3h-.17s-.09,.06-.17,.17v.27c.07,.2,.1,.31,.1,.33v.03l-.07,.1v.03c0,.12,.06,.21,.17,.27h.2c.05-.05,.19-.09,.43-.14,.03-.09,.07-.13,.1-.13h.3c.2,0,.33-.13,.4-.4,.05,0,.07-.08,.07-.23v-.24s.03-.06,.1-.1h.03c.07,.03,.14,.12,.2,.27l.06,.03-.03,.17v.13l.03,.24s-.08,.12-.1,.37c.02,.12,.03,.22,.03,.3v.17c-.08,.18-.3,.27-.67,.27-.07-.04-.14-.07-.2-.07h-.34s-.11,.02-.27,.07c-.1,0-.2-.02-.3-.07-.25,.02-.46,.03-.64,.03h-.33c-.21-.04-.37-.13-.5-.27,0-.17,.12-.32,.37-.47h.33c.11-.05,.17-.16,.17-.33,0-.39-.01-.64-.03-.74,.02-.25,.03-.54,.03-.87v-.81c0-.2-.11-.3-.33-.3-.1,0-.25-.09-.44-.27,0-.16,.12-.28,.37-.33,.16-.04,.28-.09,.33-.13,.02,.07,.09,.1,.2,.1h.27c.15,0,.23-.02,.23-.07l.17,.04h.27l.17-.1Z"/>
  </g>
  <g>
    <path class="cls-5" d="M58.54,231.79c.23,.07,.34,.13,.34,.2,.04,.03,.07,.18,.1,.43,.15,.18,.26,.43,.33,.74,.22,.31,.33,.7,.33,1.18,.25,.48,.39,.87,.44,1.17,.08,.16,.14,.24,.17,.24,.31,.04,.47,.09,.47,.17-.1,.23-.17,.38-.23,.44-.12-.02-.21-.03-.27-.03-.34,0-.56,.03-.67,.1l-.57-.13c-.05-.09-.1-.13-.17-.13v-.03c.07-.14,.26-.26,.57-.37l.06-.1v-.14c0-.15-.09-.23-.27-.23h-.5c-.38,.04-.57,.14-.57,.3v.07s.14,.17,.43,.4c.02,.04,.03,.08,.03,.1-.17,.13-.29,.2-.37,.2h-.5c-.06,0-.13,.02-.2,.07l-.27-.13-.07,.03c-.13-.06-.2-.16-.2-.3,.08-.12,.22-.2,.44-.24,.08,0,.14-.13,.17-.4l.13-.3v-.17c.2-.9,.3-1.42,.3-1.54,.03,0,.07-.03,.1-.1v-.2c0-.1,.02-.19,.06-.27-.02,0-.03-.01-.03-.03,.02,0,.09-.18,.2-.54v-.24s.07-.1,.2-.2Zm-.2,2.38v.13c.13,.29,.23,.44,.3,.44h.2s.11-.09,.23-.27c-.02-.35-.03-.61-.03-.77-.05,0-.1-.16-.17-.47l-.14-.1h-.1c-.06,0-.12,.2-.17,.6-.03,0-.08,.15-.13,.44Z"/>
    <path class="cls-5" d="M62.03,231.87l.2,.1h.34c.13,0,.2,.06,.23,.17,0,.18-.14,.3-.43,.37h-.27v.23s-.03,.07-.1,.1c.02,.45,.03,.78,.03,1v1.27c.09,.31,.21,.47,.33,.47,.05,0,.11,.02,.17,.07h.5c.29,0,.44-.27,.44-.8h.03l-.03-.07,.06-.1v-.23h.07c.16,.23,.24,.48,.24,.77v.3l.06,.1v.1c-.11,.29-.26,.48-.43,.57-.07,0-.1,.01-.1,.03l-.17-.03h-1.04c-.13,.05-.2,.08-.2,.1l-.24-.03h-.33c-.34-.11-.52-.22-.54-.33v-.03c0-.2,.12-.3,.37-.3,.18-.04,.33-.14,.44-.3l-.03-.07c.04-.07,.06-.14,.06-.2v-.54c0-.06-.02-.13-.06-.2,.04-.09,.06-.21,.06-.37v-.94c0-.4-.22-.6-.67-.6-.04-.07-.06-.14-.06-.2,0-.25,.16-.37,.47-.37h.47c.05,0,.1-.01,.14-.03Z"/>
    <path class="cls-5" d="M65.2,231.87h.37c.05,.05,.26,.1,.64,.17h.1l.33-.17h.1l.1,.07h.4l.24-.03c.16,.2,.24,.35,.24,.47-.09,.08-.26,.15-.5,.2-.2,.07-.39,.27-.57,.61-.22,.07-.33,.3-.33,.67v.27c.09,.11,.2,.37,.33,.8,.07,.04,.15,.19,.23,.44,.19,.31,.43,.47,.7,.47,.05,.07,.07,.14,.07,.2v.13s-.07,.1-.2,.2h-.43c-.08,0-.18,.01-.3,.03-.1-.06-.25-.12-.47-.17-.09-.02-.13-.05-.13-.1h-.07c0,.06-.13,.14-.4,.24h-.43s-.26-.07-.7-.13l-.03-.07v-.23c0-.08,.16-.15,.47-.24,.05-.08,.07-.17,.07-.27v-.74c0-.47,.01-1.2,.03-2.18-.06-.1-.2-.15-.4-.17-.13-.1-.2-.21-.2-.34,.11-.04,.32-.07,.6-.07h.06s.05-.02,.1-.07Zm.33,2.88l.03,.07v.03c-.16,.13-.24,.38-.24,.74,0,.02,.13,.09,.4,.2,0,.14,.11,.22,.33,.24,.12,0,.24-.19,.37-.57v-.03s-.11-.27-.33-.7v-.03h.03c-.04-.1-.09-.16-.13-.17h-.33l-.13,.24Zm.5-2.61s-.06,.08-.17,.1c-.08,.13-.24,.28-.47,.44l-.03,.2v.84h.33c.15-.4,.27-.6,.33-.6,.07,0,.16-.21,.27-.64,0-.06-.06-.17-.17-.33h-.1Z"/>
    <path class="cls-5" d="M71.05,230.67c.12,0,.2,.12,.24,.37,0,.07-.1,.17-.3,.3,0,.14-.08,.41-.23,.8,0,.16-.13,.47-.4,.94-.05,.26-.07,.43-.07,.54v.1s.03,.06,.1,.1h.03c.23,0,.39-.03,.47-.1h.17c.26,.17,.45,.35,.57,.54v.1c0,1.01-.27,1.66-.81,1.94h-.2c-.11,0-.17-.02-.17-.06l-.06,.03c-.36-.14-.54-.27-.54-.37-.05-.16-.1-.24-.14-.24h-.03c-.23,0-.44,.39-.64,1.17-.18,.63-.36,.94-.54,.94-.07-.11-.1-.2-.1-.27v-.03c.14-.72,.3-1.18,.47-1.38l-.03-.07,.7-1.51v-.27c-.07-.11-.14-.17-.23-.17-.04,0-.17,0-.4,.03-.49-.17-.74-.42-.74-.74,0-.21,.12-.51,.37-.9,0-.24,.21-.47,.64-.67,.06-.08,.21-.17,.44-.27,.52-.13,.77-.3,.77-.54,0-.15,.22-.26,.67-.33Zm-2.65,2.28v.4l.06,.23h.47c.36-.23,.54-.46,.54-.7v-.17c0-.12-.06-.23-.17-.33h-.4l-.5,.57Zm1.37-.67c.1,.18,.17,.27,.2,.27h.17s.13-.14,.27-.43c.04,0,.08-.04,.14-.14v-.3s-.03-.06-.1-.1h-.13c-.11,.02-.29,.17-.54,.43v.27Zm.47,2.75v.14c0,.12,.07,.21,.2,.27h.33c.25-.1,.37-.24,.37-.4v-.33c-.1-.18-.21-.27-.33-.27-.17,0-.36,.2-.57,.6Z"/>
  </g>
  <g>
    <path class="cls-5" d="M114.74,231.59c.63,.14,.94,.3,.94,.47,.08,.1,.19,.3,.33,.6l-.17,1.04c.2,.44,.3,.71,.3,.8h.03l-.03,.17v.2l.03,.2c-.1,.39-.31,.69-.6,.91-.28,.11-.7,.17-1.24,.17h-.24c-.09,0-.21-.01-.37-.03-.08,.04-.17,.07-.27,.07h-.24c-.22-.2-.33-.37-.33-.5,.25-.17,.47-.26,.67-.27,.2,0,.3-.39,.3-1.17-.02-.17-.03-.36-.03-.57,0-.14,.01-.31,.03-.5,0-.63-.04-.94-.13-.94l-.1-.07h-.44c-.07-.02-.1-.09-.1-.2,0-.13,.08-.2,.24-.2h.4l.1-.07c.55,0,.85-.03,.91-.1Zm-.4,2.72v.27l.07,.1v.27c.04,.29,.16,.44,.37,.44h.07c.54-.16,.81-.34,.81-.54v-.2c0-.26-.18-.45-.54-.57h-.17c-.4,.04-.61,.12-.61,.24Zm.4-1.95c-.09-.02-.17-.03-.24-.03l-.1,.13v.74c.08,.13,.18,.2,.3,.2h.24c.33-.16,.5-.27,.5-.3,0-.05,.02-.11,.07-.17v-.1c0-.29-.16-.46-.47-.54-.05,.02-.15,.04-.3,.07Z"/>
    <path class="cls-5" d="M118.1,231.58c.23,.07,.34,.13,.34,.2,.04,.03,.07,.18,.1,.43,.15,.18,.26,.43,.33,.74,.22,.31,.33,.7,.33,1.18,.25,.48,.39,.87,.44,1.17,.08,.16,.14,.24,.17,.24,.31,.04,.47,.09,.47,.17-.1,.23-.17,.38-.23,.44-.12-.02-.21-.03-.27-.03-.34,0-.56,.03-.67,.1l-.57-.13c-.05-.09-.1-.13-.17-.13v-.03c.07-.14,.26-.26,.57-.37l.06-.1v-.14c0-.16-.09-.23-.27-.23h-.5c-.38,.04-.57,.14-.57,.3v.07s.14,.17,.43,.4c.02,.04,.03,.08,.03,.1-.17,.13-.29,.2-.37,.2h-.5c-.06,0-.13,.02-.2,.07l-.27-.13-.07,.04c-.13-.06-.2-.16-.2-.3,.08-.12,.22-.2,.44-.24,.08,0,.14-.13,.17-.4l.13-.3v-.17c.2-.91,.3-1.42,.3-1.54,.03,0,.07-.03,.1-.1v-.2c0-.1,.02-.19,.07-.27-.02,0-.03-.01-.03-.03,.02,0,.09-.18,.2-.54v-.24s.07-.1,.2-.2Zm-.2,2.38v.13c.13,.29,.23,.44,.3,.44h.2s.11-.09,.23-.27c-.02-.35-.03-.61-.03-.77-.05,0-.1-.16-.17-.47l-.14-.1h-.1c-.06,0-.12,.2-.17,.6-.03,0-.08,.15-.13,.44Z"/>
    <path class="cls-5" d="M122.03,231.6l.17,.03h.84c.14,0,.25,.1,.34,.3,0,.03,.04,.08,.13,.13-.02,.32-.06,.56-.1,.71v.24l.07,.1v.4l-.33,.24h-.1l-.03-.17c.04-.22,.06-.34,.06-.37v-.13c-.04-.06-.11-.26-.2-.6-.06-.11-.1-.17-.13-.17h-.24c-.18,.08-.27,.13-.27,.17l-.1,.54v.03c0,.07,.06,.18,.17,.33-.08,.1-.14,.33-.2,.7,.04,0,.07,.03,.07,.07-.02,.31-.04,.48-.07,.5,.04,0,.07,.03,.07,.07v.4s.04,.08,.14,.14h.37c.12,.08,.22,.21,.3,.37,0,.18-.08,.3-.24,.37h-1.54c-.16-.08-.24-.14-.24-.2,.09-.29,.27-.44,.54-.44,.18,0,.27-.35,.27-1.04l-.03-.07s.04-.17,.07-.4l-.07-.4c.02-.23,.03-.41,.03-.54-.07-.16-.11-.37-.14-.64-.07-.04-.14-.07-.2-.07h-.07c-.31,0-.47,.16-.47,.47-.02,0-.03,.01-.03,.03,.07,.22,.1,.49,.1,.8-.06,.15-.13,.24-.2,.27h-.07s-.09-.06-.13-.17c.02-.07,.05-.1,.07-.1-.04-.08-.07-.17-.07-.27v-.5l.07-.1v-.54c0-.28,.24-.43,.7-.47h.61c.07,0,.1-.01,.1-.03Zm1.34,4.09h.03s.07,.03,.07,.07v.07h-.03s-.06-.02-.06-.07v-.07Z"/>
    <path class="cls-5" d="M125.17,231.5h.57c.08,.07,.18,.1,.3,.1h.24c.18,.09,.27,.24,.27,.44v.27c.07,.09,.12,.27,.17,.54,.02,0,.03,.01,.03,.03v.17c-.07,.15-.14,.24-.23,.27h-.07c-.11-.05-.21-.24-.3-.57-.24-.29-.44-.44-.61-.44h-.03c-.27,.13-.51,.2-.7,.2l-.2,.61v1.11c0,.12,.08,.28,.24,.47,0,.22,.19,.41,.57,.57h.3c.36-.29,.54-.51,.54-.67h.03l-.03-.06v-.1l.13-.37h.03c.27,.12,.4,.29,.4,.54,0,.16-.08,.37-.24,.64,0,.33-.28,.63-.84,.91h-.13l-.1-.07h-.33c-.21,0-.45-.31-.7-.94-.16-.31-.27-.8-.33-1.44,0-.15,.03-.28,.1-.37v-.24c0-.29,.08-.54,.24-.74l-.03-.07c.09-.24,.21-.38,.33-.43,.08-.2,.21-.3,.37-.3,0-.02,.01-.03,.03-.03Z"/>
    <path class="cls-5" d="M129.66,231.34h1.11s.03,.01,.03,.03c.04-.02,.08-.03,.1-.03,.2,.13,.3,.28,.3,.44,0,.19-.21,.32-.64,.4-.09,.08-.17,.3-.24,.64v.13c0,.35-.01,.71-.03,1.07,.02,.12,.03,.21,.03,.27-.02,.09-.03,.18-.03,.27,.06,.09,.11,.33,.14,.7l.5,.17c.11,.17,.17,.3,.17,.4-.09,.18-.16,.27-.2,.27h-.17c-.3,0-.71,.01-1.21,.03-.2-.07-.3-.18-.3-.33h-.37v.14c-.2,.11-.3,.18-.3,.2-.26-.02-.45-.03-.57-.03h-.54c-.2-.13-.3-.34-.3-.64,.11-.08,.3-.15,.57-.2,.1,0,.19-.26,.27-.77v-.67c0-.06,.02-.13,.07-.2-.02-.33-.05-.51-.07-.54l.07-.13c-.02-.09-.06-.17-.1-.24v-.3c0-.18-.16-.27-.47-.27-.16-.16-.24-.37-.24-.64l.14-.1h1.41c.08,.07,.18,.1,.3,.1h.24l.33-.17Zm-1.27,.97v.1c.07,.22,.1,.41,.1,.57v.1c.04,.13,.14,.2,.3,.2h.64c.29,0,.44-.16,.44-.47l.03-.47c0-.17-.22-.33-.67-.47h-.27c-.3,.15-.49,.29-.57,.44Zm.13,2.01v.84c.01,.08,.18,.26,.51,.54h.17c.42-.28,.64-.52,.64-.74,.02-.04,.03-.08,.03-.13v-.1s-.01-.09-.03-.13c.02-.04,.03-.08,.03-.1,0-.22-.11-.34-.33-.34h-.74c-.12,0-.21,.06-.27,.17Z"/>
  </g>
  <g>
    <path class="cls-5" d="M178.76,231.78l.17,.03h.5l.06-.03c.09,.09,.14,.18,.14,.27,0,.21-.12,.35-.37,.43-.1,0-.17,.04-.2,.13v.1c0,.27-.08,.57-.24,.91v.07c0,.35-.04,.58-.13,.7v.2c0,.51-.16,1.07-.47,1.68l-.07,.03c-.17,0-.3-.33-.4-.97l-.54-2.55c0-.05-.17-.25-.5-.6,0-.25,.11-.37,.33-.37l.07,.03c.23-.02,.41-.03,.54-.03h.03s.13,.1,.27,.3h.07v.03c-.27,.36-.4,.59-.4,.7v.1c.1,.16,.19,.46,.27,.91,.06,.27,.1,.4,.14,.4h.23c.16-.13,.24-.41,.24-.84,.05,0,.09-.1,.1-.3-.04,0-.07-.02-.07-.07l.07-.1-.03-.07,.03-.07c-.05-.17-.17-.38-.37-.64v-.03c.09,0,.13-.06,.13-.17l.4-.2Z"/>
    <path class="cls-5" d="M181.74,231.67c.3,0,.6,.22,.91,.67,.11,0,.25,.38,.44,1.14,0,.06,.02,.11,.07,.17v.3c0,.06-.02,.13-.07,.2,.07,.11,.1,.2,.1,.27v.06s-.04,.19-.13,.54l.03,.07c-.11,.2-.18,.46-.2,.77-.31,.49-.59,.74-.84,.74h-.24c-.09,.07-.19,.1-.3,.1h-.2c-.57-.27-.92-.56-1.04-.87,0-.05-.08-.26-.23-.64v-.1c-.02-.52-.08-.77-.17-.77l.03-.23v-.57c.09-.11,.19-.4,.3-.87,.28-.5,.62-.83,1-.97h.54Zm-1.24,2.52c-.04,.16-.07,.25-.07,.27v.6c.28,.65,.53,.97,.77,.97,0,.02,.01,.03,.03,.03h.57c.49-.38,.74-.69,.74-.94,.12-.17,.23-.6,.3-1.28-.13-.36-.22-.67-.27-.91-.03,0-.12-.09-.27-.27-.04,0-.07,0-.07-.03l-.06,.03c-.17-.12-.37-.24-.61-.33-.04,.02-.08,.03-.13,.03l-.07-.03c-.19,0-.48,.28-.87,.84v1Z"/>
    <path class="cls-5" d="M184.62,231.84l.2,.1h.34c.12,0,.2,.06,.23,.17,0,.18-.14,.3-.43,.37h-.27v.23s-.03,.07-.1,.1c.02,.45,.03,.78,.03,1v1.28c.09,.31,.21,.47,.33,.47,.05,0,.11,.02,.17,.07h.5c.29,0,.44-.27,.44-.8h.03l-.03-.07,.07-.1v-.23h.07c.16,.23,.24,.48,.24,.77v.3l.07,.1v.1c-.11,.29-.26,.48-.43,.57-.07,0-.1,0-.1,.03l-.17-.03h-1.04c-.13,.05-.2,.08-.2,.1l-.24-.03h-.33c-.34-.11-.52-.22-.54-.33v-.03c0-.2,.12-.3,.37-.3,.18-.04,.33-.14,.44-.3l-.03-.07c.04-.07,.07-.14,.07-.2v-.54c0-.06-.02-.13-.07-.2,.04-.09,.07-.21,.07-.37v-.94c0-.4-.22-.6-.67-.6-.04-.07-.07-.14-.07-.2,0-.25,.16-.37,.47-.37h.47c.05,0,.1-.01,.14-.03Z"/>
    <path class="cls-5" d="M189.16,231.74c.36,.12,.54,.23,.54,.33-.04,.31-.18,.47-.4,.47-.33,.4-.54,.79-.64,1.18-.09,.06-.17,.27-.23,.64,.02,.34,.03,.58,.03,.74l-.03,.07c.06,.27,.21,.4,.43,.4,.11,.09,.17,.19,.17,.3v.13c-.12,.2-.29,.3-.5,.3h-.1s-.11-.02-.27-.07h-.47c-.16-.12-.24-.25-.24-.4,0-.09,.17-.19,.5-.3,.05-.38,.07-.67,.07-.84-.04-.23-.07-.35-.07-.37,.02-.12,.03-.23,.03-.34-.13-.18-.27-.48-.4-.91-.05-.01-.15-.19-.3-.54-.07-.06-.21-.12-.4-.17-.04-.08-.07-.17-.07-.27,.14-.16,.35-.24,.61-.24h.27l.1-.06h.03c.13,.08,.2,.13,.2,.17v.1l-.17,.4v.1c0,.25,.09,.46,.27,.64h.24c.13-.1,.23-.26,.3-.47-.02-.12-.09-.35-.2-.67,0-.14,.21-.24,.64-.3,0-.02,.02-.03,.07-.03Z"/>
    <path class="cls-5" d="M192.8,231.8h.07c.25,.16,.37,.25,.37,.27v.07s-.11,.12-.33,.3c0,.19-.01,.47-.03,.84,0,.24,.02,.99,.07,2.25,.27,.19,.4,.38,.4,.57l-.54,.24h-.4l-.47-.37h-.17s-.09,.01-.13,.03c-.2-.03-.3-.06-.3-.1,.07-.02,.1-.11,.1-.27-.1-.51-.22-.91-.37-1.21h-.2c-.07,0-.14,.16-.24,.47v.3c0,.38,.12,.57,.37,.57,.14,.09,.24,.14,.3,.14v.06s-.15,.15-.33,.44c-.74-.06-1.11-.22-1.11-.47v-.06c0-.11,.1-.24,.3-.4,.09-.33,.16-.52,.2-.57v-1.78l.07-.1v-.44c-.05-.12-.16-.22-.34-.3l-.03-.17v-.14s.03-.06,.1-.1l.17,.03c.09-.02,.18-.03,.27-.03,0,.03,.11,.13,.33,.3,.13,.48,.2,.74,.2,.77,.03,0,.07,.03,.1,.1v.4c0,.08,.07,.21,.2,.4,0,.12,.01,.22,.03,.3h.33v-.27s-.01-.09-.03-.13c.18-.32,.27-.59,.27-.81l.17-.27-.03-.06c.05-.07,.1-.25,.17-.54,.24-.09,.39-.18,.47-.27Zm-.94,3.09s.03,.08,.03,.13c-.07,0-.1,.26-.1,.77l.1,.07h.1c.15-.07,.28-.21,.4-.4v-.7c0-.11-.06-.19-.17-.24h-.07c-.11,.05-.21,.17-.3,.37Z"/>
    <path class="cls-5" d="M196.64,231.68h.57c.08,.07,.18,.1,.3,.1h.24c.18,.09,.27,.24,.27,.44v.27c.07,.09,.12,.27,.17,.54,.02,0,.03,.01,.03,.03v.17c-.07,.15-.14,.24-.23,.27h-.07c-.11-.05-.21-.24-.3-.57-.24-.29-.44-.44-.61-.44h-.03c-.27,.13-.51,.2-.7,.2l-.2,.6v1.11c0,.13,.08,.28,.24,.47,0,.22,.19,.41,.57,.57h.3c.36-.28,.54-.51,.54-.67h.03l-.03-.07v-.1l.13-.37h.03c.27,.12,.4,.29,.4,.54,0,.16-.08,.37-.24,.64,0,.33-.28,.63-.84,.91h-.13l-.1-.07h-.33c-.21,0-.45-.31-.7-.94-.16-.31-.27-.8-.33-1.44,0-.16,.03-.28,.1-.37v-.24c0-.29,.08-.54,.24-.74l-.03-.07c.09-.24,.21-.38,.33-.43,.08-.2,.21-.3,.37-.3,0-.02,.01-.03,.03-.03Z"/>
    <path class="cls-5" d="M199.8,231.84l.2,.1h.34c.12,0,.2,.06,.23,.17,0,.18-.14,.3-.43,.37h-.27v.23s-.03,.07-.1,.1c.02,.45,.03,.78,.03,1v1.28c.09,.31,.21,.47,.33,.47,.05,0,.11,.02,.17,.07h.5c.29,0,.44-.27,.44-.8h.03l-.03-.07,.07-.1v-.23h.07c.16,.23,.24,.48,.24,.77v.3l.07,.1v.1c-.11,.29-.26,.48-.43,.57-.07,0-.1,0-.1,.03l-.17-.03h-1.04c-.13,.05-.2,.08-.2,.1l-.24-.03h-.33c-.34-.11-.52-.22-.54-.33v-.03c0-.2,.12-.3,.37-.3,.18-.04,.33-.14,.44-.3l-.03-.07c.04-.07,.07-.14,.07-.2v-.54c0-.06-.02-.13-.07-.2,.04-.09,.07-.21,.07-.37v-.94c0-.4-.22-.6-.67-.6-.04-.07-.07-.14-.07-.2,0-.25,.16-.37,.47-.37h.47c.05,0,.1-.01,.14-.03Z"/>
  </g>
  <g id="LOGO">
    <g id="LOGO-2" data-name="LOGO">
      <path class="cls-5" d="M62.45,32.7c.45-1.71,1.05-3.06,1.64-4.62,.96-2.51,2.54-4.53,4.32-6.5,1-1.1,2.09-2.18,3.25-3.12,.83-.67,1.01-.67,.86-2.5-.14-1.68,.33-2.17,1.67-2.81,1.1-.52,1.64-.38,1.72,.52,.06,.63,.15,.63,.21,.68,.05,.04,.18,.08,.32,.03,.49-.18,1.17-.57,1.66-.8,2.56-1.2,6.23,.52,6.19,4.34-.03,2.48-.69,3.46-2.62,4.85-.18,.13-.71,.52-.94,.69-1.42,1.04-1.64,1.12-.88,2.78,1.05,2.3,1.55,4.66,.14,7-2.01,3.35-6.17,4.98-9.51,2.92-1.25-.77-.94-.82-2.05,.32-1.6,1.63-3.29,2.01-5.07,.9-.47-.29-.8-.6-.95-1.23-.21-.89-.19-2.62,.05-3.45Zm8.35,.19c-.04,.08-.07,.17-.07,.26,.04,.83,2.11,.71,3.04,.7,1.39,0,2.61-.79,3.34-2,.89-1.47,.7-3.01,.5-4.45-.13-.93-1.1-1.78-2.69-1.9-.82-.07-1.29,.23-1.56,1.02-.74,2.2-1.12,3.78-2.57,6.37Zm4.13-12.02c.03,1.29,.14,1.56,.65,2,.77,.66,2.13,.19,2.89-.35,1.64-1.16,2.34-2.62,2.4-4.51,.05-1.63-1.16-2.67-2.99-2.16-2.27,.63-2.82,1.35-2.96,5.01Zm-9.92,13.63c.14,.6,1.67,.37,2.24-.74,1.66-3.24,2.7-6.18,3.78-9.82,.08-.28,.68-1.65,0-1.65-.72,0-.82,.3-1.01,.55-.92,1.24-1.81,2.53-2.62,3.85-1.45,2.36-2.88,5.43-2.4,7.82Z"/>
      <path class="cls-5" d="M95.15,10.12c.26,.26,1.06,1.08,1.06,1.09v2.02c-.69,0-1.44,0-2.17,0,0-.11,0-.92,0-1.03-.07,.01-.47,0-.54,0,0,1.5,0,3.45,0,4.95,0,0,.55,0,.55,0,0,0,0-1.44,0-1.44h2.16v2.1l-1.07,1.06h-2.81l-1.04-1.05s0-6.59,0-6.59l1.05-1.1c1.08,0,1.73,0,2.81,0Z"/>
      <path class="cls-5" d="M119.33,10.12v1.95h-1.78v1.31s1.34,0,1.34,0v2.06h-1.34c0,1.09,0,3.39,0,3.42h-2.2V10.12h3.98Z"/>
      <path class="cls-5" d="M127.36,10.12v1.95h-1.78v1.31s1.34,0,1.34,0v2.06h-1.34c0,1.09,0,3.39,0,3.42h-2.2V10.12h3.98Z"/>
      <path class="cls-5" d="M102.68,10.12c0,2.25,0,4.7,0,7.03h1.28s0,1.69,0,1.7h-3.5V10.12h2.21Z"/>
      <path class="cls-5" d="M110.76,10.12v8.74h-2.21V10.12h2.21Z"/>
      <path class="cls-5" d="M138.41,33.73c.12,.7,4.52,2.12,6.71-.82,.69-.92,1-1.3,2.81-3.45,.57-.68,1.04-1.57,1.59-2.28,.69-.89,1.07-1.46,1.09-2.19,0-.31-.08-.59-.2-.94-.35-1.02-.05-2.02,.8-2.71,.94-.76,2.01-.92,2.73-.35,.55,.44,1.21,1.48,.27,2.18-.91,.68-.74,1.59-.39,2.49,.08,.21,.9,1.8,1,1.98,.95,1.63,.63,3.19,.53,3.8-.2,1.24-.51,1.83-1.35,2.73l-.02,.03s0,.11,.03,.14c0,0,.02,0,.02,.01,.26,.09,.97,.52,1.91,.42,.38-.04,.4,.21,.38,.33-.04,.26-.27,.43-.4,.78-.17,.46-.2,.75-.4,.86-.4,.22-.91-.04-1.67-.49-.74-.44-1.5-.27-2.26,.02-2,.77-3.6,.54-5.48-.44-.67-.35-1.14-.59-2.3-.05-1.43,.67-4.79,1.21-7.21-.26-1.2-.73-2.47,0-3.6,.29-2.14,.56-4.23,.75-6.44,.46-.81-.11-1.46-.44-1.86-.98-.65-.88-.47-1.83-.24-2.65,.24-.84,.56-1,1.33-3.14,.51-1.44,.06-.23,.78-1.99,.41-1,.73-1.62,.39-1.92-.61-.55-1.1-.28-1.72,.24-2.84,2.42-4.85,5.25-5.69,8.79-.56,2.35-2.94,2.32-3.69,1.5-.41-.44-1.19-.07-1.58,.08-1.92,.72-3.88,1.01-5.72-.12-1.19-.73-1.7-2.01-1.17-3.55,.45-1.31,.92-2.05,1.37-3.36,.15-.42,.41-1.32,.35-1.83-.1-.82-.56-1.26-.98-1.46-.69-.34-1.17,.54-1.4,1.01-.82,1.69-1.47,3.47-2.38,5.1-1.17,2.09-2.98,4.07-5.1,4.43-1.28,.22-2.16,.43-3.27,.28-1.14-.15-1.8-.7-2.19-2.16-.15-.57,.08-1.62,.02-1.63-.07-.02-.73,.51-1.16,1.1-1.76,2.33-4.51,2.71-4.65,2.73-.93,.09-1.67,.1-2.46-.26-.52-.24-.71-.52-1.09-.52-.36,0-.68,.3-1.34,.57-.75,.3-1.81,.18-1.91,.04-.09-.13-.13-1.07,0-1.32,.13-.23,.54-.24,1.38-.43,1.15-.26,1.59,.01,1.56-1.2-.09-3.85,2.86-9.48,6.8-10.6,1.51-.43,3.05-.38,4.5,.15,.69,.25,1.31,.82,1.64-.69,.06-.28,.43-.36,.72-.33,1.25,.16,2.08,.41,2.29,.68,.28,.49-.3,1.5-.7,2.2-1.38,2.37-2.43,4.8-3.01,6.84-.41,1.44-.1,2.54,.82,2.63,3.02,.24,3.95-.74,5.45-2.58,1.68-2.05,2.2-4.63,3.03-7.02,.34-.96-.19-1.51-.24-2-.07-.71-.17-1.59,.15-1.91,.51-.52,1.32-.4,2.13-.4,.98,0,.83,.66,.82,.97-.06,1.38,.57,1.99,1.73,2.47,.38,.16,.97,.43,1.36,.59,1.59,.65,1.71,1.33,1.03,2.91-.63,1.48-1.35,2.79-2,4.19-.57,1.24-.26,2.39,1.12,2.81,2.37,.71,4.81-.04,5.56-3.54,.52-2.45,1.34-5.47,2.52-7.6,.29-.53,.41-1.02,1.35-1.02,1.4,0,1.34,.28,.86,1.61-.67,1.66-1.31,3.91-1.51,4.9-.04,.22,.25,.35,.38,.16,.76-1.06,2.21-3.18,3.42-4.2,1.42-1.19,2.52-2.18,4.37-2.07,1.71,.11,2.32,1.08,1.71,3.02-.58,1.86-1.24,3.07-1.94,4.89-.27,.71-.51,1.3-.72,1.97-.37,1.16,.21,2.28,1.43,2.19,1.05-.08,2.3-.15,3.31-.43,.89-.25,1.35-.44,.84-1.96-.96-2.84-.56-7.54,2.71-9.44,1.88-1.1,5-1.03,6.08,.56,1.07,1.58,.72,3,.26,4.67-.48,1.73-1.76,2.98-3.02,4.15-.36,.34-1.07,.86-.97,1.3Zm-51.04-1.16c0,1.01,.27,1.45,.79,1.74,.99,.56,1.99-.38,2.51-.89,2.3-2.24,3.08-4.33,4.6-6.62,.53-.79,.3-1.41,.01-1.66-.38-.33-1.26-.35-1.73-.23-.78,.2-1.59,.61-2.23,1.12-2.06,1.63-3.7,3.23-3.96,6.54Zm48.87-2.74c-.05,1.14,.19,2,.71,2.18,.49,.16,.97-.21,1.26-.46,1.33-1.41,2.37-2.97,2.58-4.86,.04-.42,.23-1.28-.71-1.79-.7-.38-1.8-.24-2.66,.92-.86,1.26-1.07,2.17-1.19,4.01Zm16.27,.29c.04-.17,.09-.45,.04-.92s-.35-1.57-.81-1.69c-.66-.12-1.22,.65-1.5,1.08-.79,1.2-1.55,2.34-2.42,3.5-.56,.73-.16,1.3,.13,1.63,.39,.44,1.24,.96,2.04,.52,1.21-.67,2.23-2.91,2.51-4.12Z"/>
    </g>
    <g>
      <g>
        <path class="cls-5" d="M80.06,46.08c.34,.26,.63,.5,.93,.72,.16,.11,.21,.23,.21,.43-.01,.67,0,1.34,0,2.01,0,.06-.03,.14-.08,.18-.38,.36-.76,.72-1.14,1.08-.04,.03-.09,.07-.14,.07-1.15,0-2.31,0-3.46,0-.02,0-.03,0-.05,0v-8.72h.11c1.13,0,2.25,0,3.38,0,.06,0,.13,.03,.17,.07,.32,.32,.63,.65,.94,.98,.04,.04,.07,.12,.07,.17,0,.68,0,1.37,0,2.05,0,.06-.03,.13-.07,.17-.24,.24-.49,.48-.73,.72-.03,.03-.07,.05-.12,.09Zm-1.1,2.82v-1.93h-.42v1.93h.42Zm0-3.6v-1.82c-.11,0-.21,0-.3,0-.1,0-.12,.03-.12,.12,0,.53,0,1.06,0,1.59,0,.03,0,.07,0,.11h.41Z"/>
        <path class="cls-5" d="M134.5,46.21c.08,.07,.15,.13,.22,.2,.21,.19,.43,.38,.64,.58,.04,.03,.07,.1,.07,.15,0,1.1,0,2.2,0,3.3,0,.03,0,.07,0,.11h-2.1v-3.5h-.44s0,.1,0,.14c0,1.07,0,2.15,0,3.22,0,.11-.03,.15-.14,.15-.63,0-1.26,0-1.89,0h-.13v-8.72s.08,0,.11,0c1.07,0,2.14,0,3.21,0,.06,0,.14,.03,.18,.07,.38,.36,.75,.72,1.12,1.08,.04,.04,.07,.11,.07,.16,0,.71,0,1.42,0,2.14,0,.06-.04,.14-.08,.18-.25,.23-.5,.44-.75,.66-.03,.03-.06,.05-.1,.09Zm-1.17-1.77c0-.21,0-.42,0-.64,0-.34,0-.34-.35-.33-.08,0-.09,.03-.09,.1,0,.57,0,1.15,0,1.72,0,.07,.02,.1,.09,.1,.07,0,.15,0,.22,0,.09,0,.12-.02,.12-.12,0-.28,0-.56,0-.84Z"/>
        <path class="cls-5" d="M103.72,50.55v-8.72s.08,0,.12,0c.44,0,.87,0,1.31,0,.1,0,.14,.03,.17,.12,.33,1.15,.66,2.29,1,3.44,.01,.04,.02,.08,.04,.11,.01,.02,.04,.03,.05,.05,.02-.02,.04-.04,.04-.07,0-.03,0-.06,0-.09,0-1.14,0-2.27,0-3.41,0-.05,0-.09,0-.15h2.02v8.72s-.07,0-.11,0c-.48,0-.97,0-1.45,0-.09,0-.12-.03-.14-.11-.3-1.08-.6-2.16-.9-3.24-.02-.06-.04-.12-.06-.17-.02,0-.03,0-.05,.01v3.51h-2.04Z"/>
        <path class="cls-5" d="M113.07,41.83h.14c.43,0,.86,0,1.29,0,.1,0,.15,.03,.18,.13,.33,1.15,.66,2.3,1,3.45,.02,.05,.06,.1,.09,.15,.01-.06,.04-.11,.04-.17,0-1.13,0-2.26,0-3.39v-.16h2.03v8.71s-.08,0-.12,0c-.48,0-.96,0-1.44,0-.09,0-.13-.03-.15-.12-.3-1.09-.6-2.17-.91-3.26-.02-.05-.04-.1-.06-.16-.02,0-.03,0-.05,.01v3.51c-.06,0-.1,0-.14,0-.59,0-1.18,0-1.77,0-.1,0-.14-.02-.14-.13,0-2.83,0-5.65,0-8.48,0-.03,0-.07,0-.12Z"/>
        <path class="cls-5" d="M85.59,41.83s.09,0,.13,0c1.07,0,2.13,0,3.2,0,.08,0,.14,.02,.2,.08,.37,.36,.74,.72,1.11,1.08,.04,.04,.07,.11,.07,.17,0,.71,0,1.42,0,2.14,0,.06-.04,.13-.08,.17-.28,.25-.56,.49-.85,.75,.05,.05,.1,.09,.14,.13,.24,.22,.49,.43,.73,.65,.03,.03,.06,.08,.06,.13,0,1.12,0,2.23,0,3.35,0,.02,0,.05,0,.08-.05,0-.09,0-.13,0-.61,0-1.21,0-1.82,0-.12,0-.15-.03-.15-.15,0-1.07,0-2.13,0-3.2,0-.05,0-.1,0-.16h-.44s0,.1,0,.15c0,1.07,0,2.15,0,3.22,0,.11-.03,.14-.14,.14-.63,0-1.27,0-1.9,0h-.12v-8.73Zm2.59,1.65c-.1,0-.2,0-.29,0-.1,0-.14,.02-.14,.14,0,.31,0,.62,0,.93,0,.25,0,.5,0,.75,0,.03,.04,.09,.07,.09,.12,0,.23,0,.36,0v-1.91Z"/>
        <path class="cls-5" d="M95.32,41.84h3c.39,2.9,.78,5.8,1.18,8.71-.04,0-.08,0-.11,0-.63,0-1.25,0-1.88,0-.1,0-.13-.03-.13-.13-.04-.48-.08-.96-.12-1.46-.19,0-.37,0-.56,0-.3,0-.3,0-.32,.3-.03,.39-.06,.78-.09,1.18,0,.07-.01,.11-.1,.11-.65,0-1.3,0-1.95,0-.02,0-.03,0-.07,0,.38-2.9,.76-5.8,1.14-8.71Zm1.82,5.48c-.02-.29-.05-.57-.07-.85-.06-.82-.13-1.63-.2-2.44,0-.04-.04-.09-.07-.1-.08-.02-.07,.05-.07,.1-.02,.31-.04,.61-.06,.92-.04,.57-.07,1.14-.11,1.72-.01,.22-.03,.44-.04,.66h.62Z"/>
        <path class="cls-5" d="M125.81,46.77c-.37,0-.73,0-1.08,0-.11,0-.15,.03-.15,.14,0,.62,0,1.24,0,1.86,0,.04,0,.08,0,.13,.06,0,.1,0,.15,0,.43,0,.87,0,1.3,0,.09,0,.13,.02,.12,.11,0,.48,0,.95,0,1.43,0,.07,0,.12-.1,.12-1.19,0-2.37,0-3.56,0-.02,0-.05,0-.08,0v-8.71h3.64s0,.08,0,.12c0,.46,0,.93,0,1.39,0,.11-.04,.14-.14,.14-.41,0-.83,0-1.24,0-.06,0-.11,0-.11,.08,0,.51,0,1.02,0,1.54h1.23v1.66Z"/>
        <path class="cls-5" d="M142.24,50.56s-.08,0-.12,0c-.66,0-1.32,0-1.97,0-.11,0-.13-.03-.13-.13,0-2.82,0-5.65,0-8.47,0-.04,0-.08,0-.12h2.22v8.72Z"/>
      </g>
      <rect class="cls-5" x="94.88" y="39.91" width="1.77" height="1.26"/>
      <rect class="cls-5" x="97.02" y="39.91" width="1.77" height="1.26"/>
    </g>
  </g>
</svg>